<svg width="301" height="158" viewBox="0 0 301 158" fill="none" xmlns="http://www.w3.org/2000/svg">
<g clip-path="url(#clip0_52_474)">
<path d="M291.913 84.275C291.453 84.0086 291.057 83.6444 290.753 83.208C290.448 82.7717 290.243 82.2738 290.151 81.7494C290.06 81.225 290.084 80.6869 290.223 80.1729C290.361 79.659 290.61 79.1817 290.953 78.7747L287.163 51.0203L295.058 51.4086L296.297 78.4801C296.942 79.1019 297.336 79.939 297.406 80.8327C297.476 81.7264 297.216 82.6147 296.675 83.3291C296.135 84.0436 295.351 84.5345 294.474 84.7088C293.596 84.8831 292.685 84.7288 291.913 84.275Z" fill="#A0616A"/>
<path d="M296.141 51.7763C295.98 51.9673 295.772 52.1142 295.539 52.2034L288.444 54.9162C288.087 55.0525 287.692 55.0468 287.34 54.9002C286.988 54.7536 286.705 54.4772 286.55 54.1281L280.265 39.9775C279.662 38.6649 279.559 37.1763 279.977 35.793C280.285 34.8057 280.854 33.9201 281.623 33.2295C282.392 32.5389 283.332 32.0689 284.346 31.869C285.125 31.7083 285.93 31.7197 286.704 31.9024C287.632 32.1096 288.494 32.5454 289.211 33.1703C289.929 33.7952 290.479 34.5894 290.813 35.4812L296.401 50.2809C296.495 50.5307 296.52 50.8011 296.475 51.0641C296.429 51.327 296.314 51.5729 296.141 51.7763Z" fill="#CCCCCC"/>
<path d="M259.169 152.017H254.261L252.48 132.958L259.169 133.048V152.017Z" fill="#A0616A"/>
<path d="M250.754 150.612H260.22V156.584H244.792C244.792 155 245.42 153.481 246.538 152.361C247.656 151.241 249.172 150.612 250.753 150.612H250.754Z" fill="#2F2E41"/>
<path d="M281.992 152.018H277.083L274.748 133.048H281.993L281.992 152.018Z" fill="#A0616A"/>
<path d="M273.577 150.612H283.043V156.584H267.615C267.615 155 268.243 153.481 269.361 152.361C270.479 151.241 271.995 150.612 273.576 150.612H273.577Z" fill="#2F2E41"/>
<path d="M282.61 145.268L274.901 144.696C274.462 144.664 274.051 144.472 273.743 144.156C273.436 143.841 273.254 143.424 273.232 142.984L271.513 107.39C271.497 107.048 271.356 106.725 271.119 106.479C270.881 106.234 270.562 106.084 270.222 106.058C269.882 106.031 269.543 106.13 269.271 106.336C268.998 106.541 268.81 106.839 268.741 107.174L261.57 142.238C261.481 142.669 261.238 143.053 260.886 143.318C260.535 143.582 260.099 143.709 259.661 143.674L252.691 143.116C252.456 143.097 252.226 143.032 252.015 142.924C251.804 142.816 251.617 142.668 251.463 142.487C251.31 142.307 251.194 142.098 251.121 141.872C251.048 141.647 251.02 141.409 251.039 141.173C251.04 141.161 251.041 141.149 251.042 141.137L257.508 76.3615C257.533 76.1083 257.611 75.8633 257.738 75.6427C257.864 75.422 258.036 75.2306 258.241 75.081C258.447 74.9314 258.681 74.827 258.93 74.7747C259.178 74.7223 259.435 74.7232 259.683 74.7773L284.27 80.1321C284.677 80.2217 285.041 80.4494 285.299 80.7767C285.558 81.104 285.696 81.5108 285.689 81.9282L284.544 143.502C284.535 143.974 284.342 144.424 284.006 144.755C283.67 145.086 283.218 145.272 282.747 145.274C282.701 145.273 282.656 145.272 282.61 145.268Z" fill="#2F2E41"/>
<path d="M275.865 22.2015C281.296 22.2015 285.699 17.7903 285.699 12.3489C285.699 6.90748 281.296 2.49634 275.865 2.49634C270.434 2.49634 266.031 6.90748 266.031 12.3489C266.031 17.7903 270.434 22.2015 275.865 22.2015Z" fill="#A0616A"/>
<path d="M260.606 81.3573C259.661 80.5078 258.91 79.4631 258.406 78.2951C257.902 77.1272 257.656 75.8636 257.686 74.5915C257.686 60.4305 269.921 28.7915 270.304 27.8062C270.34 27.5684 270.663 27.4657 272.358 26.3194C274.053 25.1732 276.496 24.9961 279.621 25.7957C279.938 25.8771 280.228 26.0443 280.457 26.2791C280.687 26.5138 280.847 26.807 280.922 27.1269L281.503 27.9682C281.554 28.1817 281.654 28.3803 281.795 28.548C281.937 28.7156 282.115 28.8477 282.317 28.9334C284.837 29.9971 292.847 34.9018 290.117 53.3601C287.582 70.5065 286.553 80.5886 286.228 84.1301C286.19 84.5501 286.006 84.9434 285.708 85.2415C285.41 85.5395 285.017 85.7233 284.598 85.7609C283.363 85.8716 281.242 86.0192 278.718 86.0192C272.861 86.0174 264.831 85.2271 260.606 81.3573Z" fill="#CCCCCC"/>
<path d="M248.855 76.111C248.621 75.633 248.495 75.1094 248.485 74.5771C248.474 74.0448 248.581 73.5168 248.797 73.0302C249.012 72.5436 249.332 72.1104 249.733 71.7609C250.134 71.4115 250.606 71.1543 251.117 71.0077L263.407 45.8457L269.746 50.5755L255.719 73.7467C255.909 74.6229 255.771 75.5383 255.332 76.3194C254.893 77.1005 254.182 77.6929 253.336 77.9845C252.49 78.276 251.566 78.2462 250.741 77.9009C249.915 77.5556 249.244 76.9187 248.856 76.111H248.855Z" fill="#A0616A"/>
<path d="M270.44 51.4873C270.2 51.5556 269.946 51.5619 269.703 51.5056L262.302 49.7975C261.93 49.7118 261.606 49.4866 261.395 49.1683C261.184 48.8499 261.103 48.4627 261.168 48.0862L263.821 32.8275C264.05 31.4006 264.793 30.1072 265.909 29.1915C266.714 28.544 267.679 28.1261 268.702 27.9819C269.724 27.8377 270.767 27.9725 271.719 28.3721C272.455 28.6737 273.117 29.1324 273.659 29.7163C274.314 30.4064 274.787 31.2493 275.035 32.1687C275.284 33.0882 275.299 34.0551 275.08 34.982L271.489 50.3895C271.428 50.6496 271.298 50.8885 271.114 51.0816C270.93 51.2746 270.697 51.4147 270.44 51.4873Z" fill="#CCCCCC"/>
<path d="M273.562 21.251C273.084 20.7618 272.73 20.1639 272.532 19.5082C272.334 18.8526 272.298 18.1586 272.425 17.4857C272.768 15.6896 272.97 14.5132 273.008 14.0854C273.139 12.6223 271.662 11.4376 270.201 11.2476C270.145 11.24 270.097 11.2354 270.058 11.2321C270.094 11.268 270.135 11.3061 270.17 11.3399C270.448 11.601 270.793 11.9261 270.711 12.2616C270.661 12.4635 270.477 12.6068 270.148 12.6992C267.863 13.3396 266.103 12.7516 264.61 10.8474C264.19 10.3063 263.901 9.67481 263.767 9.00283C263.232 6.37337 264.657 4.13188 265.947 2.71477C267.011 1.54624 268.735 0.128418 270.91 0.00628463C272.601 -0.088189 274.612 0.88672 275.212 2.64364C275.496 2.22262 275.874 1.8736 276.316 1.62421C276.758 1.37481 277.252 1.2319 277.758 1.20678C278.913 1.1817 280.049 1.49833 281.025 2.11704C285.793 4.85354 287.843 11.3726 285.5 16.3527C284.026 19.4854 280.833 21.8175 277.168 22.4389C276.938 22.478 276.706 22.4977 276.473 22.4978C275.929 22.4969 275.39 22.3861 274.89 22.1722C274.389 21.9582 273.937 21.6454 273.56 21.2524L273.562 21.251Z" fill="#2F2E41"/>
<path d="M131.017 70.2516C130.81 69.7596 130.464 69.3391 130.021 69.0422C129.578 68.7454 129.058 68.5851 128.525 68.5813H78.7861C78.0711 68.5817 77.3855 68.8664 76.88 69.3729C76.3744 69.8794 76.0902 70.5663 76.0898 71.2826V134.325C76.0902 135.041 76.3744 135.728 76.88 136.235C77.3855 136.741 78.0711 137.026 78.7861 137.026H128.527C129.242 137.025 129.927 136.74 130.433 136.234C130.938 135.728 131.222 135.041 131.223 134.325V71.2826C131.225 70.9287 131.155 70.5782 131.019 70.2516H131.017ZM130.623 134.325C130.622 134.882 130.401 135.416 130.008 135.81C129.615 136.204 129.081 136.426 128.525 136.426H78.7861C78.2299 136.426 77.6965 136.205 77.3032 135.811C76.9099 135.417 76.6888 134.882 76.6886 134.325V71.283C76.6894 70.7259 76.9106 70.1918 77.3038 69.7979C77.697 69.4039 78.23 69.1823 78.7861 69.1815H128.527C128.946 69.1831 129.355 69.3097 129.702 69.5452C130.049 69.7806 130.317 70.1143 130.474 70.5035C130.505 70.581 130.531 70.6602 130.553 70.7405C130.601 70.9174 130.625 71.0998 130.625 71.283L130.623 134.325Z" fill="#3F3D56"/>
<path d="M120.637 83.4652H105.655C105.337 83.4652 105.032 83.3387 104.808 83.1135C104.583 82.8883 104.457 82.5828 104.457 82.2643C104.457 81.9459 104.583 81.6404 104.808 81.4152C105.032 81.19 105.337 81.0635 105.655 81.0635H120.637C120.955 81.0635 121.26 81.19 121.485 81.4152C121.71 81.6404 121.836 81.9459 121.836 82.2643C121.836 82.5828 121.71 82.8883 121.485 83.1135C121.26 83.3387 120.955 83.4652 120.637 83.4652Z" fill="#3F3D56"/>
<path d="M120.637 89.7696H105.655C105.337 89.7696 105.032 89.6431 104.808 89.4179C104.583 89.1927 104.457 88.8873 104.457 88.5688C104.457 88.2503 104.583 87.9449 104.808 87.7196C105.032 87.4944 105.337 87.3679 105.655 87.3679H120.637C120.955 87.3679 121.26 87.4944 121.485 87.7196C121.71 87.9449 121.836 88.2503 121.836 88.5688C121.836 88.8873 121.71 89.1927 121.485 89.4179C121.26 89.6431 120.955 89.7696 120.637 89.7696Z" fill="#3F3D56"/>
<path d="M97.9678 93.3591H87.0189C86.6614 93.3587 86.3186 93.2163 86.0658 92.963C85.813 92.7097 85.6708 92.3663 85.6704 92.0081V79.0634C85.6708 78.7052 85.813 78.3618 86.0658 78.1085C86.3186 77.8552 86.6614 77.7128 87.0189 77.7124H97.9678C98.3253 77.7128 98.6681 77.8552 98.9209 78.1085C99.1737 78.3618 99.3159 78.7052 99.3163 79.0634V92.0081C99.3159 92.3663 99.1737 92.7097 98.9209 92.963C98.6681 93.2163 98.3253 93.3587 97.9678 93.3591Z" fill="#6C63FF"/>
<path d="M120.533 102.678H86.6737C86.3558 102.678 86.051 102.552 85.8262 102.327C85.6014 102.101 85.4751 101.796 85.4751 101.477C85.4751 101.159 85.6014 100.854 85.8262 100.628C86.051 100.403 86.3558 100.277 86.6737 100.277H120.533C120.691 100.277 120.847 100.308 120.992 100.368C121.137 100.428 121.27 100.517 121.381 100.628C121.492 100.74 121.581 100.872 121.641 101.018C121.701 101.164 121.732 101.32 121.732 101.477C121.732 101.635 121.701 101.791 121.641 101.937C121.581 102.083 121.492 102.215 121.381 102.327C121.27 102.438 121.137 102.527 120.992 102.587C120.847 102.647 120.691 102.678 120.533 102.678Z" fill="#CCCCCC"/>
<path d="M120.533 108.983H86.6737C86.3558 108.983 86.051 108.856 85.8262 108.631C85.6014 108.406 85.4751 108.1 85.4751 107.782C85.4751 107.463 85.6014 107.158 85.8262 106.933C86.051 106.707 86.3558 106.581 86.6737 106.581H120.533C120.851 106.581 121.156 106.707 121.381 106.933C121.606 107.158 121.732 107.463 121.732 107.782C121.732 108.1 121.606 108.406 121.381 108.631C121.156 108.856 120.851 108.983 120.533 108.983Z" fill="#CCCCCC"/>
<path d="M120.533 115.287H86.6737C86.3558 115.287 86.051 115.16 85.8262 114.935C85.6014 114.71 85.4751 114.404 85.4751 114.086C85.4751 113.767 85.6014 113.462 85.8262 113.237C86.051 113.012 86.3558 112.885 86.6737 112.885H120.533C120.851 112.885 121.156 113.012 121.381 113.237C121.606 113.462 121.732 113.767 121.732 114.086C121.732 114.404 121.606 114.71 121.381 114.935C121.156 115.16 120.851 115.287 120.533 115.287Z" fill="#CCCCCC"/>
<path d="M120.533 121.591H86.6737C86.3558 121.591 86.051 121.464 85.8262 121.239C85.6014 121.014 85.4751 120.709 85.4751 120.39C85.4751 120.072 85.6014 119.766 85.8262 119.541C86.051 119.316 86.3558 119.189 86.6737 119.189H120.533C120.851 119.189 121.156 119.316 121.381 119.541C121.606 119.766 121.732 120.072 121.732 120.39C121.732 120.709 121.606 121.014 121.381 121.239C121.156 121.464 120.851 121.591 120.533 121.591Z" fill="#CCCCCC"/>
<path d="M120.533 127.895H86.6737C86.3558 127.895 86.051 127.769 85.8262 127.543C85.6014 127.318 85.4751 127.013 85.4751 126.694C85.4751 126.376 85.6014 126.07 85.8262 125.845C86.051 125.62 86.3558 125.493 86.6737 125.493H120.533C120.851 125.493 121.156 125.62 121.381 125.845C121.606 126.07 121.732 126.376 121.732 126.694C121.732 127.013 121.606 127.318 121.381 127.543C121.156 127.769 120.851 127.895 120.533 127.895Z" fill="#CCCCCC"/>
<path d="M230.099 157.143H300.016C300.111 157.143 300.202 157.105 300.269 157.038C300.336 156.97 300.374 156.879 300.374 156.784C300.374 156.688 300.336 156.597 300.269 156.53C300.202 156.462 300.111 156.424 300.016 156.424H230.099C230.004 156.424 229.913 156.462 229.846 156.53C229.778 156.597 229.741 156.688 229.741 156.784C229.741 156.879 229.778 156.97 229.846 157.038C229.913 157.105 230.004 157.143 230.099 157.143Z" fill="#3F3D56"/>
<path d="M104.498 53.3919C110.887 53.3919 116.065 48.2033 116.065 41.8029C116.065 35.4024 110.887 30.2139 104.498 30.2139C98.1096 30.2139 92.9307 35.4024 92.9307 41.8029C92.9307 48.2033 98.1096 53.3919 104.498 53.3919Z" fill="#6C63FF"/>
<path d="M103.352 46.2237C103.091 46.2241 102.838 46.1398 102.63 45.9834L102.617 45.9737L99.8984 43.8902C99.7723 43.7936 99.6665 43.673 99.5869 43.5353C99.5074 43.3977 99.4557 43.2457 99.4348 43.088C99.4139 42.9303 99.4243 42.7701 99.4653 42.6164C99.5062 42.4628 99.5771 42.3187 99.6736 42.1925C99.7702 42.0663 99.8907 41.9603 100.028 41.8808C100.166 41.8012 100.317 41.7496 100.475 41.7289C100.632 41.7081 100.792 41.7187 100.946 41.7599C101.099 41.8011 101.243 41.8722 101.368 41.9691L103.129 43.3219L107.29 37.8834C107.485 37.6288 107.773 37.4621 108.09 37.4201C108.408 37.3781 108.729 37.4641 108.983 37.6594L108.984 37.6596L108.958 37.6955L108.984 37.6596C109.238 37.8551 109.404 38.1436 109.446 38.4616C109.488 38.7797 109.402 39.1014 109.208 39.3562L104.314 45.7502C104.2 45.8976 104.055 46.0168 103.888 46.0986C103.721 46.1805 103.538 46.2228 103.353 46.2222L103.352 46.2237Z" fill="#E6E6E6"/>
<path d="M28.3429 36.5086C32.672 36.5086 36.1815 32.9926 36.1815 28.6554C36.1815 24.3182 32.672 20.8022 28.3429 20.8022C24.0138 20.8022 20.5044 24.3182 20.5044 28.6554C20.5044 32.9926 24.0138 36.5086 28.3429 36.5086Z" fill="#CCCCCC"/>
<path d="M27.5659 31.651C27.3896 31.6513 27.2179 31.5942 27.0768 31.4882L27.0682 31.4818L25.226 30.0686C25.0587 29.9346 24.9504 29.7403 24.9245 29.5273C24.8985 29.3143 24.957 29.0996 25.0872 28.9293C25.2174 28.7589 25.4091 28.6465 25.6212 28.6161C25.8332 28.5858 26.0487 28.6399 26.2213 28.7668L27.4146 29.6835L30.2342 25.9994C30.3662 25.8269 30.5613 25.714 30.7764 25.6855C30.9915 25.6571 31.2091 25.7154 31.3813 25.8477L31.364 25.8715L31.3819 25.8482C31.5539 25.9807 31.6664 26.1761 31.6948 26.3916C31.7231 26.6071 31.665 26.8251 31.5332 26.9977L28.2166 31.3313C28.1399 31.4311 28.0413 31.512 27.9284 31.5675C27.8155 31.623 27.6913 31.6517 27.5655 31.6513L27.5659 31.651Z" fill="#E6E6E6"/>
<path d="M50.3702 47.069C50.2074 46.6819 49.9349 46.3511 49.5865 46.1175C49.2381 45.8839 48.8289 45.7578 48.4097 45.7546H9.27044C8.70787 45.7549 8.16842 45.9789 7.77062 46.3775C7.37282 46.776 7.14921 47.3165 7.14893 47.8801V97.4852C7.14921 98.0488 7.37282 98.5893 7.77062 98.9878C8.16842 99.3864 8.70787 99.6104 9.27044 99.6107H48.4097C48.9721 99.6099 49.5113 99.3858 49.909 98.9873C50.3067 98.5889 50.5304 98.0487 50.5312 97.4852V47.8801C50.5321 47.6017 50.4773 47.3259 50.3702 47.069ZM50.0601 97.4856C50.0592 97.9236 49.8852 98.3434 49.576 98.6531C49.2669 98.9628 48.8479 99.1371 48.4108 99.138H9.27044C8.83302 99.138 8.41351 98.9639 8.10421 98.654C7.7949 98.3441 7.62113 97.9238 7.62113 97.4856V47.8801C7.62198 47.4421 7.79603 47.0223 8.10515 46.7126C8.41427 46.4029 8.83328 46.2286 9.27044 46.2277H48.4097C48.7395 46.2291 49.0614 46.3289 49.3343 46.5145C49.6072 46.7 49.8187 46.9629 49.9417 47.2694C49.9657 47.3304 49.9864 47.3927 50.0038 47.4559C50.0413 47.595 50.0604 47.7385 50.0604 47.8826L50.0601 97.4856Z" fill="#CCCCCC"/>
<path d="M42.2014 57.4665H30.4124C30.1623 57.4665 29.9224 57.3669 29.7455 57.1897C29.5686 57.0125 29.4692 56.7722 29.4692 56.5216C29.4692 56.271 29.5686 56.0306 29.7455 55.8534C29.9224 55.6762 30.1623 55.5767 30.4124 55.5767H42.201C42.4512 55.5767 42.6911 55.6762 42.8679 55.8534C43.0448 56.0306 43.1442 56.271 43.1442 56.5216C43.1442 56.7722 43.0448 57.0125 42.8679 57.1897C42.6911 57.3669 42.4515 57.4665 42.2014 57.4665Z" fill="#CCCCCC"/>
<path d="M42.2014 62.4272H30.4124C30.1623 62.4272 29.9224 62.3276 29.7455 62.1504C29.5686 61.9732 29.4692 61.7329 29.4692 61.4823C29.4692 61.2317 29.5686 60.9913 29.7455 60.8141C29.9224 60.6369 30.1623 60.5374 30.4124 60.5374H42.201C42.4512 60.5374 42.6911 60.6369 42.8679 60.8141C43.0448 60.9913 43.1442 61.2317 43.1442 61.4823C43.1442 61.7329 43.0448 61.9732 42.8679 62.1504C42.6911 62.3276 42.4515 62.4272 42.2014 62.4272Z" fill="#CCCCCC"/>
<path d="M24.3631 65.2516H15.7479C15.4667 65.2513 15.197 65.1392 14.9981 64.9399C14.7992 64.7407 14.6873 64.4705 14.687 64.1887V54.0031C14.6873 53.7213 14.7992 53.4511 14.9981 53.2518C15.197 53.0526 15.4667 52.9405 15.7479 52.9402H24.3631C24.6444 52.9406 24.914 53.0527 25.1129 53.2519C25.3117 53.4512 25.4236 53.7213 25.424 54.0031V64.1887C25.4237 64.4705 25.3119 64.7407 25.113 64.9399C24.9141 65.1392 24.6444 65.2513 24.3631 65.2516Z" fill="#CCCCCC"/>
<path d="M42.1193 72.5844H15.4768C15.2267 72.5844 14.9868 72.4849 14.8099 72.3077C14.6331 72.1305 14.5337 71.8901 14.5337 71.6395C14.5337 71.3889 14.6331 71.1486 14.8099 70.9713C14.9868 70.7941 15.2267 70.6946 15.4768 70.6946H42.1193C42.3695 70.6946 42.6094 70.7941 42.7862 70.9713C42.9631 71.1486 43.0625 71.3889 43.0625 71.6395C43.0625 71.8901 42.9631 72.1305 42.7862 72.3077C42.6094 72.4849 42.3695 72.5844 42.1193 72.5844Z" fill="#CCCCCC"/>
<path d="M42.1193 77.5466H15.4768C15.2267 77.5466 14.9868 77.447 14.8099 77.2698C14.6331 77.0926 14.5337 76.8523 14.5337 76.6017C14.5337 76.351 14.6331 76.1107 14.8099 75.9335C14.9868 75.7563 15.2267 75.6567 15.4768 75.6567H42.1193C42.3695 75.6567 42.6094 75.7563 42.7862 75.9335C42.9631 76.1107 43.0625 76.351 43.0625 76.6017C43.0625 76.8523 42.9631 77.0926 42.7862 77.2698C42.6094 77.447 42.3695 77.5466 42.1193 77.5466Z" fill="#CCCCCC"/>
<path d="M42.1193 82.5055H15.4768C15.2267 82.5055 14.9868 82.406 14.8099 82.2288C14.6331 82.0516 14.5337 81.8112 14.5337 81.5606C14.5337 81.31 14.6331 81.0697 14.8099 80.8925C14.9868 80.7153 15.2267 80.6157 15.4768 80.6157H42.1193C42.3695 80.6157 42.6094 80.7153 42.7862 80.8925C42.9631 81.0697 43.0625 81.31 43.0625 81.5606C43.0625 81.8112 42.9631 82.0516 42.7862 82.2288C42.6094 82.406 42.3695 82.5055 42.1193 82.5055Z" fill="#CCCCCC"/>
<path d="M42.1193 87.4672H15.4768C15.2267 87.4672 14.9868 87.3677 14.8099 87.1905C14.6331 87.0133 14.5337 86.7729 14.5337 86.5223C14.5337 86.2717 14.6331 86.0314 14.8099 85.8541C14.9868 85.6769 15.2267 85.5774 15.4768 85.5774H42.1193C42.3695 85.5774 42.6094 85.6769 42.7862 85.8541C42.9631 86.0314 43.0625 86.2717 43.0625 86.5223C43.0625 86.7729 42.9631 87.0133 42.7862 87.1905C42.6094 87.3677 42.3695 87.4672 42.1193 87.4672Z" fill="#CCCCCC"/>
<path d="M42.1193 92.4267H15.4768C15.2267 92.4267 14.9868 92.3271 14.8099 92.1499C14.6331 91.9727 14.5337 91.7324 14.5337 91.4818C14.5337 91.2312 14.6331 90.9908 14.8099 90.8136C14.9868 90.6364 15.2267 90.5369 15.4768 90.5369H42.1193C42.3695 90.5369 42.6094 90.6364 42.7862 90.8136C42.9631 90.9908 43.0625 91.2312 43.0625 91.4818C43.0625 91.7324 42.9631 91.9727 42.7862 92.1499C42.6094 92.3271 42.3695 92.4267 42.1193 92.4267Z" fill="#CCCCCC"/>
<path d="M0.912202 99.8179H55.9253C56.0002 99.8179 56.0719 99.7881 56.1249 99.7351C56.1778 99.682 56.2075 99.6101 56.2075 99.5352C56.2075 99.4602 56.1778 99.3883 56.1249 99.3352C56.0719 99.2822 56.0002 99.2524 55.9253 99.2524H0.912202C0.875146 99.2522 0.838411 99.2593 0.804096 99.2734C0.76978 99.2874 0.738556 99.308 0.712205 99.3341C0.685854 99.3602 0.664895 99.3913 0.65052 99.4255C0.636145 99.4597 0.628633 99.4964 0.628423 99.5335C0.628212 99.5707 0.635303 99.6075 0.649289 99.6419C0.663275 99.6762 0.683886 99.7075 0.70994 99.7339C0.735994 99.7603 0.766981 99.7813 0.801136 99.7957C0.83529 99.8101 0.87194 99.8176 0.908996 99.8179H0.912202Z" fill="#CCCCCC"/>
<path d="M178.932 36.5086C183.261 36.5086 186.77 32.9926 186.77 28.6554C186.77 24.3182 183.261 20.8022 178.932 20.8022C174.603 20.8022 171.093 24.3182 171.093 28.6554C171.093 32.9926 174.603 36.5086 178.932 36.5086Z" fill="#CCCCCC"/>
<path d="M178.155 31.651C177.979 31.6513 177.807 31.5942 177.666 31.4882L177.658 31.4818L175.815 30.0686C175.648 29.9346 175.54 29.7403 175.514 29.5273C175.488 29.3143 175.546 29.0996 175.677 28.9293C175.807 28.7589 175.998 28.6465 176.211 28.6161C176.423 28.5858 176.638 28.6399 176.811 28.7668L178.004 29.6835L180.824 25.9994C180.956 25.8269 181.151 25.714 181.366 25.6855C181.581 25.6571 181.798 25.7154 181.971 25.8477L181.953 25.8715L181.971 25.8482C182.143 25.9807 182.256 26.1761 182.284 26.3916C182.312 26.6071 182.254 26.8251 182.123 26.9977L178.806 31.3313C178.729 31.4311 178.631 31.512 178.518 31.5675C178.405 31.623 178.281 31.6517 178.155 31.6513L178.155 31.651Z" fill="#E6E6E6"/>
<path d="M200.959 47.069C200.796 46.6819 200.524 46.3511 200.175 46.1175C199.827 45.8839 199.418 45.7578 198.999 45.7546H159.859C159.297 45.7549 158.757 45.9789 158.359 46.3775C157.962 46.776 157.738 47.3165 157.738 47.8801V97.4852C157.738 98.0488 157.962 98.5893 158.359 98.9878C158.757 99.3864 159.297 99.6104 159.859 99.6107H198.999C199.561 99.6099 200.1 99.3858 200.498 98.9873C200.896 98.5889 201.119 98.0487 201.12 97.4852V47.8801C201.121 47.6017 201.066 47.3259 200.959 47.069ZM200.649 97.4856C200.648 97.9236 200.474 98.3434 200.165 98.6531C199.856 98.9628 199.437 99.1371 199 99.138H159.859C159.643 99.138 159.428 99.0952 159.228 99.0122C159.028 98.9292 158.846 98.8074 158.693 98.654C158.54 98.5006 158.418 98.3184 158.336 98.1179C158.253 97.9174 158.21 97.7026 158.21 97.4856V47.8801C158.211 47.4421 158.385 47.0223 158.694 46.7126C159.003 46.4029 159.422 46.2286 159.859 46.2277H198.999C199.328 46.2291 199.65 46.3289 199.923 46.5145C200.196 46.7 200.408 46.9629 200.531 47.2694C200.555 47.3304 200.575 47.3927 200.593 47.4559C200.63 47.595 200.649 47.7385 200.649 47.8826L200.649 97.4856Z" fill="#CCCCCC"/>
<path d="M192.791 57.4665H181.002C180.752 57.4665 180.512 57.3669 180.335 57.1897C180.158 57.0125 180.059 56.7722 180.059 56.5216C180.059 56.271 180.158 56.0306 180.335 55.8534C180.512 55.6762 180.752 55.5767 181.002 55.5767H192.79C193.041 55.5767 193.28 55.6762 193.457 55.8534C193.634 56.0306 193.734 56.271 193.734 56.5216C193.734 56.7722 193.634 57.0125 193.457 57.1897C193.28 57.3669 193.041 57.4665 192.79 57.4665H192.791Z" fill="#CCCCCC"/>
<path d="M192.791 62.4272H181.002C180.752 62.4272 180.512 62.3276 180.335 62.1504C180.158 61.9732 180.059 61.7329 180.059 61.4823C180.059 61.2317 180.158 60.9913 180.335 60.8141C180.512 60.6369 180.752 60.5374 181.002 60.5374H192.79C193.041 60.5374 193.28 60.6369 193.457 60.8141C193.634 60.9913 193.734 61.2317 193.734 61.4823C193.734 61.7329 193.634 61.9732 193.457 62.1504C193.28 62.3276 193.041 62.4272 192.79 62.4272H192.791Z" fill="#CCCCCC"/>
<path d="M174.952 65.2516H166.337C166.056 65.2513 165.786 65.1392 165.587 64.9399C165.389 64.7407 165.277 64.4705 165.276 64.1887V54.0031C165.277 53.7213 165.389 53.4511 165.587 53.2518C165.786 53.0526 166.056 52.9405 166.337 52.9402H174.952C175.234 52.9406 175.503 53.0527 175.702 53.2519C175.901 53.4512 176.013 53.7213 176.013 54.0031V64.1887C176.013 64.4705 175.901 64.7407 175.702 64.9399C175.503 65.1392 175.234 65.2513 174.952 65.2516Z" fill="#CCCCCC"/>
<path d="M192.709 72.5844H166.066C165.816 72.5844 165.576 72.4849 165.399 72.3077C165.222 72.1305 165.123 71.8901 165.123 71.6395C165.123 71.3889 165.222 71.1486 165.399 70.9713C165.576 70.7941 165.816 70.6946 166.066 70.6946H192.709C192.959 70.6946 193.199 70.7941 193.376 70.9713C193.552 71.1486 193.652 71.3889 193.652 71.6395C193.652 71.8901 193.552 72.1305 193.376 72.3077C193.199 72.4849 192.959 72.5844 192.709 72.5844Z" fill="#CCCCCC"/>
<path d="M192.709 77.5466H166.066C165.816 77.5466 165.576 77.447 165.399 77.2698C165.222 77.0926 165.123 76.8523 165.123 76.6017C165.123 76.351 165.222 76.1107 165.399 75.9335C165.576 75.7563 165.816 75.6567 166.066 75.6567H192.709C192.959 75.6567 193.199 75.7563 193.376 75.9335C193.552 76.1107 193.652 76.351 193.652 76.6017C193.652 76.8523 193.552 77.0926 193.376 77.2698C193.199 77.447 192.959 77.5466 192.709 77.5466Z" fill="#CCCCCC"/>
<path d="M192.709 82.5055H166.066C165.816 82.5055 165.576 82.406 165.399 82.2288C165.222 82.0516 165.123 81.8112 165.123 81.5606C165.123 81.31 165.222 81.0697 165.399 80.8925C165.576 80.7153 165.816 80.6157 166.066 80.6157H192.709C192.959 80.6157 193.199 80.7153 193.376 80.8925C193.552 81.0697 193.652 81.31 193.652 81.5606C193.652 81.8112 193.552 82.0516 193.376 82.2288C193.199 82.406 192.959 82.5055 192.709 82.5055Z" fill="#CCCCCC"/>
<path d="M192.709 87.4672H166.066C165.816 87.4672 165.576 87.3677 165.399 87.1905C165.222 87.0133 165.123 86.7729 165.123 86.5223C165.123 86.2717 165.222 86.0314 165.399 85.8541C165.576 85.6769 165.816 85.5774 166.066 85.5774H192.709C192.959 85.5774 193.199 85.6769 193.376 85.8541C193.552 86.0314 193.652 86.2717 193.652 86.5223C193.652 86.7729 193.552 87.0133 193.376 87.1905C193.199 87.3677 192.959 87.4672 192.709 87.4672Z" fill="#CCCCCC"/>
<path d="M192.709 92.4267H166.066C165.816 92.4267 165.576 92.3271 165.399 92.1499C165.222 91.9727 165.123 91.7324 165.123 91.4818C165.123 91.2312 165.222 90.9908 165.399 90.8136C165.576 90.6364 165.816 90.5369 166.066 90.5369H192.709C192.959 90.5369 193.199 90.6364 193.376 90.8136C193.552 90.9908 193.652 91.2312 193.652 91.4818C193.652 91.7324 193.552 91.9727 193.376 92.1499C193.199 92.3271 192.959 92.4267 192.709 92.4267Z" fill="#CCCCCC"/>
<path d="M151.502 99.8179H206.515C206.59 99.8179 206.661 99.7881 206.714 99.7351C206.767 99.682 206.797 99.6101 206.797 99.5352C206.797 99.4602 206.767 99.3883 206.714 99.3352C206.661 99.2822 206.59 99.2524 206.515 99.2524H151.502C151.464 99.2522 151.428 99.2593 151.393 99.2734C151.359 99.2874 151.328 99.308 151.302 99.3341C151.275 99.3602 151.254 99.3913 151.24 99.4255C151.225 99.4597 151.218 99.4964 151.218 99.5335C151.218 99.5707 151.225 99.6075 151.239 99.6419C151.253 99.6762 151.273 99.7075 151.299 99.7339C151.325 99.7603 151.356 99.7813 151.39 99.7957C151.425 99.8101 151.461 99.8176 151.498 99.8179H151.502Z" fill="#CCCCCC"/>
<path d="M68.3952 137.241H138.312C138.407 137.241 138.498 137.204 138.565 137.136C138.632 137.069 138.67 136.977 138.67 136.882C138.67 136.787 138.632 136.696 138.565 136.628C138.498 136.561 138.407 136.523 138.312 136.523H68.3952C68.3001 136.523 68.2089 136.561 68.1416 136.628C68.0744 136.696 68.0366 136.787 68.0366 136.882C68.0366 136.977 68.0744 137.069 68.1416 137.136C68.2089 137.204 68.3001 137.241 68.3952 137.241Z" fill="#3F3D56"/>
</g>
<defs>
<clipPath id="clip0_52_474">
<rect width="299.746" height="157.143" fill="white" transform="translate(0.628418)"/>
</clipPath>
</defs>
</svg>
