<svg width="225" height="195" viewBox="0 0 225 195" fill="none" xmlns="http://www.w3.org/2000/svg">
<g clip-path="url(#clip0_52_160)">
<path d="M202.711 101.481C202.74 125.61 193.402 148.811 176.658 166.207C175.649 167.262 174.612 168.292 173.548 169.297C171.928 170.837 170.252 172.317 168.522 173.737C152.341 187.052 132.139 194.534 111.178 194.976C110.479 194.992 109.778 195 109.075 195C92.3572 195 71.3306 186.082 52.2491 173.737C50.6704 172.716 49.1058 171.671 47.5552 170.602C46.8304 170.107 46.1092 169.606 45.3914 169.097C38.0319 163.907 31.0463 158.207 24.4861 152.04C20.1909 148.014 16.1631 143.713 12.4284 139.163C-2.23327 121.101 -5.46711 104.827 15.4356 101.481C17.9104 101.086 20.3122 100.664 22.6412 100.215C26.0147 99.5675 29.2433 98.8683 32.3269 98.1172C36.4806 97.1091 40.3829 96.0158 44.0341 94.8375C45.2623 94.4427 46.4623 94.0399 47.6343 93.6293C64.9605 87.5516 76.557 79.6261 84.4505 71.0268C85.7894 69.5712 87.0237 68.098 88.1535 66.6073C89.882 64.3383 91.4521 61.9532 92.8527 59.4688C94.7858 56.017 96.4094 52.4012 97.7048 48.6637L97.7759 48.4584C104.056 30.3648 102.146 13.582 109.075 7.96488C138.693 -16.0485 175.567 18.1488 192.875 58.4765C193.747 60.5085 194.568 62.5529 195.337 64.6095C195.682 65.5281 196.015 66.4485 196.336 67.3707C197.179 69.7738 197.944 72.1832 198.631 74.5986C198.895 75.5199 199.146 76.4403 199.385 77.3598C199.641 78.3521 199.886 79.3418 200.112 80.3315C201.796 87.5779 202.711 94.7243 202.711 101.481Z" fill="#CCCCCC"/>
<path d="M111.178 194.976C110.479 194.992 109.778 195 109.075 195C92.3571 195 71.3306 186.082 52.2491 173.737C50.6704 172.716 49.1058 171.671 47.5552 170.602L48.9151 162.337L90.0853 156.878L110.748 172.658L111.178 194.976Z" fill="#2F2E41"/>
<path d="M113.16 47.3923H107.293C107.111 47.3924 106.937 47.4645 106.809 47.5929C106.68 47.7212 106.608 47.8952 106.608 48.0767V53.9385C106.608 54.0283 106.626 54.1171 106.66 54.1999C106.695 54.2828 106.745 54.358 106.809 54.4213C106.873 54.4847 106.948 54.5348 107.031 54.569C107.114 54.6031 107.203 54.6205 107.293 54.6203H113.16C113.341 54.6204 113.515 54.5486 113.644 54.4208C113.772 54.2931 113.845 54.1196 113.845 53.9385V48.0767C113.845 47.8953 113.772 47.7216 113.644 47.5933C113.515 47.4651 113.341 47.3929 113.16 47.3923Z" fill="#E6E6E6"/>
<path d="M113.16 57.3816H107.293C107.111 57.3817 106.937 57.4538 106.809 57.5821C106.68 57.7105 106.608 57.8845 106.608 58.066V63.9278C106.608 64.0176 106.626 64.1064 106.66 64.1892C106.695 64.2721 106.745 64.3473 106.809 64.4106C106.873 64.4739 106.948 64.5241 107.031 64.5582C107.114 64.5924 107.203 64.6098 107.293 64.6096H113.16C113.341 64.6096 113.515 64.5379 113.644 64.4101C113.772 64.2823 113.845 64.1089 113.845 63.9278V58.066C113.845 57.8846 113.772 57.7108 113.644 57.5826C113.515 57.4544 113.341 57.3821 113.16 57.3816Z" fill="#E6E6E6"/>
<path d="M113.16 67.3706H107.293C107.111 67.3707 106.937 67.4428 106.809 67.5712C106.68 67.6995 106.608 67.8735 106.608 68.055V73.9142C106.608 74.0042 106.625 74.0932 106.66 74.1763C106.694 74.2594 106.745 74.335 106.808 74.3985C106.872 74.4621 106.947 74.5125 107.031 74.5469C107.114 74.5812 107.203 74.5988 107.293 74.5986H113.16C113.342 74.5985 113.516 74.5264 113.644 74.3981C113.773 74.2697 113.845 74.0957 113.845 73.9142V68.055C113.845 67.8736 113.772 67.6999 113.644 67.5716C113.515 67.4434 113.341 67.3711 113.16 67.3706Z" fill="#E6E6E6"/>
<path d="M113.835 77.9232C113.805 77.7655 113.722 77.623 113.599 77.5202C113.476 77.4174 113.32 77.3607 113.16 77.3599H107.293C107.111 77.36 106.937 77.4321 106.809 77.5604C106.68 77.6888 106.608 77.8628 106.608 78.0443V83.9035C106.608 83.9934 106.625 84.0825 106.66 84.1656C106.694 84.2487 106.745 84.3242 106.808 84.3878C106.872 84.4514 106.947 84.5018 107.031 84.5361C107.114 84.5705 107.203 84.588 107.293 84.5879H113.16C113.342 84.5878 113.516 84.5157 113.644 84.3873C113.773 84.259 113.845 84.085 113.845 83.9035V78.0443C113.846 78.0036 113.842 77.9631 113.835 77.9232Z" fill="#E6E6E6"/>
<path d="M113.426 87.4015C113.342 87.3667 113.251 87.3488 113.16 87.3489H107.293C107.203 87.3487 107.114 87.3663 107.031 87.4006C106.947 87.4349 106.872 87.4853 106.808 87.5489C106.745 87.6125 106.694 87.688 106.66 87.7711C106.625 87.8543 106.608 87.9433 106.608 88.0332V93.8925C106.608 93.9825 106.625 94.0716 106.659 94.1549C106.694 94.2381 106.744 94.3137 106.808 94.3773C106.871 94.441 106.947 94.4913 107.03 94.5256C107.114 94.5599 107.203 94.5773 107.293 94.5769H113.16C113.342 94.5768 113.516 94.5047 113.644 94.3763C113.773 94.248 113.845 94.074 113.845 93.8925V88.0332C113.845 87.8986 113.805 87.7669 113.73 87.6546C113.656 87.5423 113.55 87.4544 113.426 87.4015Z" fill="#E6E6E6"/>
<path d="M125.484 47.3923H119.617C119.435 47.3924 119.261 47.4645 119.132 47.5929C119.004 47.7212 118.932 47.8952 118.932 48.0767V53.9385C118.932 54.0283 118.95 54.1171 118.984 54.1999C119.019 54.2828 119.069 54.358 119.133 54.4213C119.196 54.4847 119.272 54.5348 119.355 54.569C119.438 54.6031 119.527 54.6205 119.617 54.6203H125.484C125.665 54.6204 125.839 54.5486 125.967 54.4208C126.096 54.2931 126.168 54.1196 126.169 53.9385V48.0767C126.168 47.8953 126.096 47.7216 125.968 47.5933C125.839 47.4651 125.665 47.3929 125.484 47.3923Z" fill="#E6E6E6"/>
<path d="M125.484 57.3816H119.617C119.435 57.3817 119.261 57.4538 119.132 57.5821C119.004 57.7105 118.932 57.8845 118.932 58.066V63.9278C118.932 64.0176 118.95 64.1064 118.984 64.1892C119.019 64.2721 119.069 64.3473 119.133 64.4106C119.196 64.4739 119.272 64.5241 119.355 64.5582C119.438 64.5924 119.527 64.6098 119.617 64.6096H125.484C125.665 64.6096 125.839 64.5379 125.967 64.4101C126.096 64.2823 126.168 64.1089 126.169 63.9278V58.066C126.168 57.8846 126.096 57.7108 125.968 57.5826C125.839 57.4544 125.665 57.3821 125.484 57.3816Z" fill="#6C63FF"/>
<path d="M125.484 67.3706H119.617C119.435 67.3707 119.261 67.4428 119.132 67.5712C119.004 67.6995 118.932 67.8735 118.932 68.055V73.9142C118.931 74.0042 118.949 74.0932 118.983 74.1763C119.018 74.2594 119.068 74.335 119.132 74.3985C119.196 74.4621 119.271 74.5125 119.354 74.5469C119.438 74.5812 119.527 74.5988 119.617 74.5986H125.484C125.665 74.5985 125.84 74.5264 125.968 74.3981C126.097 74.2697 126.169 74.0957 126.169 73.9142V68.055C126.168 67.8736 126.096 67.6999 125.968 67.5716C125.839 67.4434 125.665 67.3711 125.484 67.3706Z" fill="#6C63FF"/>
<path d="M125.484 77.3599H119.617C119.473 77.36 119.333 77.4053 119.217 77.4894C119.1 77.5735 119.014 77.6921 118.969 77.8284C118.944 77.8978 118.932 77.9707 118.932 78.0442V83.9035C118.931 83.9934 118.949 84.0825 118.983 84.1656C119.018 84.2487 119.068 84.3242 119.132 84.3878C119.196 84.4514 119.271 84.5018 119.354 84.5361C119.438 84.5705 119.527 84.588 119.617 84.5879H125.484C125.665 84.5878 125.84 84.5157 125.968 84.3873C126.097 84.259 126.169 84.085 126.169 83.9035V78.0442C126.168 77.8629 126.096 77.6891 125.968 77.5609C125.839 77.4327 125.665 77.3604 125.484 77.3599Z" fill="#6C63FF"/>
<path d="M125.484 87.3489H119.617C119.527 87.3487 119.438 87.3663 119.354 87.4006C119.271 87.4349 119.196 87.4853 119.132 87.5489C119.068 87.6125 119.018 87.688 118.983 87.7711C118.949 87.8543 118.931 87.9433 118.932 88.0332V93.8925C118.931 93.9824 118.949 94.0715 118.983 94.1546C119.018 94.2377 119.068 94.3132 119.132 94.3768C119.196 94.4404 119.271 94.4908 119.354 94.5251C119.438 94.5595 119.527 94.5771 119.617 94.5769H125.484C125.665 94.5768 125.84 94.5047 125.968 94.3763C126.097 94.248 126.169 94.074 126.169 93.8925V88.0332C126.169 87.8518 126.097 87.6777 125.968 87.5494C125.84 87.4211 125.665 87.349 125.484 87.3489Z" fill="#E6E6E6"/>
<path d="M137.807 47.3923H131.941C131.759 47.3924 131.585 47.4645 131.456 47.5929C131.328 47.7212 131.255 47.8952 131.255 48.0767V53.9385C131.255 54.0283 131.273 54.1171 131.308 54.1999C131.342 54.2828 131.393 54.358 131.456 54.4213C131.52 54.4847 131.596 54.5348 131.679 54.569C131.762 54.6031 131.851 54.6205 131.941 54.6203H137.807C137.989 54.6204 138.163 54.5486 138.291 54.4208C138.419 54.2931 138.492 54.1196 138.493 53.9385V48.0767C138.492 47.8953 138.42 47.7216 138.291 47.5933C138.163 47.4651 137.989 47.3929 137.807 47.3923Z" fill="#6C63FF"/>
<path d="M137.807 57.3816H131.941C131.759 57.3817 131.585 57.4538 131.456 57.5821C131.328 57.7105 131.255 57.8845 131.255 58.066V63.9278C131.255 64.0176 131.273 64.1064 131.308 64.1892C131.342 64.2721 131.393 64.3473 131.456 64.4106C131.52 64.4739 131.596 64.5241 131.679 64.5582C131.762 64.5924 131.851 64.6098 131.941 64.6096H137.807C137.989 64.6096 138.163 64.5379 138.291 64.4101C138.419 64.2823 138.492 64.1089 138.493 63.9278V58.066C138.492 57.8846 138.42 57.7108 138.291 57.5826C138.163 57.4544 137.989 57.3821 137.807 57.3816Z" fill="#6C63FF"/>
<path d="M137.807 67.3706H131.941C131.759 67.3707 131.585 67.4428 131.456 67.5712C131.328 67.6995 131.255 67.8735 131.255 68.055V73.9142C131.255 74.0042 131.273 74.0932 131.307 74.1763C131.342 74.2594 131.392 74.335 131.456 74.3985C131.519 74.4621 131.595 74.5125 131.678 74.5469C131.761 74.5812 131.851 74.5988 131.941 74.5986H137.807C137.989 74.5985 138.163 74.5264 138.292 74.3981C138.42 74.2697 138.493 74.0957 138.493 73.9142V68.055C138.492 67.8736 138.42 67.6999 138.291 67.5716C138.163 67.4434 137.989 67.3711 137.807 67.3706Z" fill="#E6E6E6"/>
<path d="M137.807 77.3599H131.941C131.759 77.36 131.585 77.4321 131.456 77.5604C131.328 77.6888 131.255 77.8628 131.255 78.0443V83.9035C131.255 83.9934 131.273 84.0825 131.307 84.1656C131.342 84.2487 131.392 84.3242 131.456 84.3878C131.519 84.4514 131.595 84.5018 131.678 84.5361C131.761 84.5705 131.851 84.588 131.941 84.5879H137.807C137.989 84.5878 138.163 84.5157 138.292 84.3873C138.42 84.259 138.493 84.085 138.493 83.9035V78.0443C138.492 77.8629 138.42 77.6891 138.291 77.5609C138.163 77.4327 137.989 77.3604 137.807 77.3599Z" fill="#6C63FF"/>
<path d="M137.807 87.3489H131.941C131.851 87.3487 131.761 87.3663 131.678 87.4006C131.595 87.4349 131.519 87.4853 131.456 87.5489C131.392 87.6125 131.342 87.688 131.307 87.7711C131.273 87.8543 131.255 87.9433 131.255 88.0332V93.8925C131.255 93.9824 131.273 94.0715 131.307 94.1546C131.342 94.2377 131.392 94.3132 131.456 94.3768C131.519 94.4404 131.595 94.4908 131.678 94.5251C131.761 94.5595 131.851 94.5771 131.941 94.5769H137.807C137.989 94.5768 138.163 94.5047 138.292 94.3763C138.42 94.248 138.493 94.074 138.493 93.8925V88.0332C138.493 87.8518 138.42 87.6777 138.292 87.5494C138.163 87.4211 137.989 87.349 137.807 87.3489Z" fill="#6C63FF"/>
<path d="M150.132 47.3923H144.265C144.083 47.3924 143.909 47.4645 143.78 47.5929C143.652 47.7212 143.58 47.8952 143.58 48.0767V53.9385C143.58 54.0283 143.597 54.1171 143.632 54.1999C143.666 54.2828 143.717 54.358 143.781 54.4213C143.844 54.4847 143.92 54.5348 144.003 54.569C144.086 54.6031 144.175 54.6205 144.265 54.6203H150.132C150.313 54.6204 150.487 54.5486 150.615 54.4208C150.744 54.2931 150.816 54.1196 150.817 53.9385V48.0767C150.816 47.8953 150.744 47.7216 150.616 47.5933C150.487 47.4651 150.313 47.3929 150.132 47.3923Z" fill="#6C63FF"/>
<path d="M150.132 57.3816H144.265C144.083 57.3817 143.909 57.4538 143.78 57.5821C143.652 57.7105 143.58 57.8845 143.58 58.066V63.9278C143.58 64.0176 143.597 64.1064 143.632 64.1892C143.666 64.2721 143.717 64.3473 143.781 64.4106C143.844 64.4739 143.92 64.5241 144.003 64.5582C144.086 64.5924 144.175 64.6098 144.265 64.6096H150.132C150.313 64.6096 150.487 64.5379 150.615 64.4101C150.744 64.2823 150.816 64.1089 150.817 63.9278V58.066C150.816 57.8846 150.744 57.7108 150.616 57.5826C150.487 57.4544 150.313 57.3821 150.132 57.3816Z" fill="#E6E6E6"/>
<path d="M150.132 67.3706H144.265C144.083 67.3707 143.909 67.4428 143.78 67.5712C143.652 67.6995 143.58 67.8735 143.58 68.055V73.9142C143.579 74.0042 143.597 74.0932 143.631 74.1763C143.666 74.2595 143.716 74.335 143.78 74.3985C143.844 74.4621 143.919 74.5125 144.002 74.5469C144.086 74.5812 144.175 74.5988 144.265 74.5986H150.132C150.313 74.5985 150.488 74.5264 150.616 74.3981C150.745 74.2697 150.817 74.0957 150.817 73.9142V68.055C150.816 67.8736 150.744 67.6999 150.616 67.5716C150.487 67.4434 150.313 67.3711 150.132 67.3706Z" fill="#E6E6E6"/>
<path d="M150.132 77.3599H144.265C144.083 77.36 143.909 77.4321 143.78 77.5604C143.652 77.6888 143.58 77.8628 143.58 78.0443V83.9035C143.579 83.9934 143.597 84.0825 143.631 84.1656C143.666 84.2487 143.716 84.3242 143.78 84.3878C143.844 84.4514 143.919 84.5018 144.002 84.5361C144.086 84.5705 144.175 84.5881 144.265 84.5879H150.132C150.313 84.5878 150.488 84.5157 150.616 84.3873C150.745 84.259 150.817 84.085 150.817 83.9035V78.0443C150.816 77.8629 150.744 77.6891 150.616 77.5609C150.487 77.4327 150.313 77.3604 150.132 77.3599Z" fill="#E6E6E6"/>
<path d="M150.132 87.3489H144.265C144.175 87.3487 144.086 87.3663 144.002 87.4006C143.919 87.4349 143.844 87.4853 143.78 87.5489C143.716 87.6125 143.666 87.688 143.631 87.7711C143.597 87.8542 143.579 87.9433 143.58 88.0332V93.8925C143.579 93.9824 143.597 94.0715 143.631 94.1546C143.666 94.2377 143.716 94.3132 143.78 94.3768C143.844 94.4404 143.919 94.4908 144.002 94.5251C144.086 94.5595 144.175 94.5771 144.265 94.5769H150.132C150.313 94.5768 150.488 94.5047 150.616 94.3763C150.745 94.248 150.817 94.074 150.817 93.8925V88.0332C150.817 87.8518 150.745 87.6777 150.616 87.5494C150.488 87.4211 150.313 87.349 150.132 87.3489Z" fill="#6C63FF"/>
<path d="M162.455 47.3923H156.586C156.405 47.393 156.231 47.4653 156.103 47.5936C155.975 47.7219 155.903 47.8956 155.903 48.0767V53.9385C155.903 54.1193 155.975 54.2927 156.103 54.4206C156.231 54.5484 156.405 54.6203 156.586 54.6203H162.455C162.637 54.6204 162.811 54.5486 162.939 54.4208C163.067 54.2931 163.14 54.1196 163.141 53.9385V48.0767C163.14 47.8953 163.068 47.7216 162.939 47.5933C162.811 47.4651 162.637 47.3929 162.455 47.3923Z" fill="#E6E6E6"/>
<path d="M162.455 57.3816H156.586C156.405 57.3822 156.231 57.4546 156.103 57.5829C155.975 57.7112 155.903 57.8849 155.903 58.066V63.9278C155.903 64.1086 155.975 64.282 156.103 64.4099C156.231 64.5377 156.405 64.6095 156.586 64.6096H162.455C162.637 64.6096 162.811 64.5379 162.939 64.4101C163.067 64.2823 163.14 64.1089 163.141 63.9278V58.066C163.14 57.8846 163.068 57.7108 162.939 57.5826C162.811 57.4544 162.637 57.3821 162.455 57.3816Z" fill="#E6E6E6"/>
<path d="M162.455 67.3706H156.586C156.405 67.3712 156.231 67.4436 156.103 67.5719C155.975 67.7002 155.903 67.8739 155.903 68.055V73.9142C155.903 74.004 155.921 74.0929 155.955 74.1758C155.989 74.2588 156.039 74.3342 156.103 74.3978C156.166 74.4613 156.241 74.5118 156.324 74.5462C156.407 74.5807 156.496 74.5985 156.586 74.5986H162.455C162.637 74.5985 162.811 74.5264 162.94 74.3981C163.068 74.2697 163.141 74.0957 163.141 73.9142V68.055C163.14 67.8736 163.068 67.6999 162.939 67.5716C162.811 67.4434 162.637 67.3711 162.455 67.3706Z" fill="#E6E6E6"/>
<path d="M162.455 77.3599H156.586C156.405 77.3605 156.231 77.4329 156.103 77.5612C155.975 77.6895 155.903 77.8632 155.903 78.0443V83.9035C155.903 83.9932 155.921 84.0821 155.955 84.1651C155.989 84.2481 156.039 84.3235 156.103 84.3871C156.166 84.4506 156.241 84.5011 156.324 84.5355C156.407 84.57 156.496 84.5878 156.586 84.5879H162.455C162.637 84.5878 162.811 84.5157 162.94 84.3873C163.068 84.259 163.141 84.085 163.141 83.9035V78.0443C163.14 77.8629 163.068 77.6891 162.939 77.5609C162.811 77.4327 162.637 77.3604 162.455 77.3599Z" fill="#6C63FF"/>
<path d="M162.455 87.3489H156.586C156.496 87.349 156.407 87.3668 156.324 87.4012C156.241 87.4357 156.166 87.4861 156.103 87.5497C156.039 87.6133 155.989 87.6887 155.955 87.7717C155.921 87.8546 155.903 87.9435 155.903 88.0332V93.8925C155.903 93.9822 155.921 94.0711 155.955 94.1541C155.989 94.2371 156.039 94.3125 156.103 94.376C156.166 94.4396 156.241 94.4901 156.324 94.5245C156.407 94.559 156.496 94.5768 156.586 94.5769H162.455C162.637 94.5768 162.811 94.5047 162.94 94.3763C163.068 94.248 163.141 94.074 163.141 93.8925V88.0332C163.141 87.8518 163.068 87.6777 162.94 87.5494C162.811 87.4211 162.637 87.349 162.455 87.3489Z" fill="#E6E6E6"/>
<path d="M174.779 47.3923H168.91C168.728 47.393 168.555 47.4653 168.427 47.5936C168.299 47.7219 168.227 47.8956 168.227 48.0767V53.9385C168.227 54.1193 168.299 54.2927 168.427 54.4206C168.555 54.5484 168.729 54.6203 168.91 54.6203H174.779C174.96 54.6204 175.134 54.5486 175.263 54.4208C175.391 54.293 175.464 54.1196 175.464 53.9385V48.0767C175.464 47.8953 175.391 47.7216 175.263 47.5933C175.135 47.4651 174.961 47.3929 174.779 47.3923Z" fill="#E6E6E6"/>
<path d="M174.779 57.3816H168.91C168.728 57.3822 168.555 57.4546 168.427 57.5829C168.299 57.7112 168.227 57.8849 168.227 58.066V63.9278C168.227 64.1086 168.299 64.282 168.427 64.4099C168.555 64.5377 168.729 64.6095 168.91 64.6096H174.779C174.96 64.6096 175.134 64.5379 175.263 64.4101C175.391 64.2823 175.464 64.1089 175.464 63.9278V58.066C175.464 57.8846 175.391 57.7108 175.263 57.5826C175.135 57.4544 174.961 57.3821 174.779 57.3816Z" fill="#E6E6E6"/>
<path d="M174.779 67.3706H168.91C168.728 67.3712 168.555 67.4436 168.427 67.5719C168.299 67.7002 168.227 67.8739 168.227 68.055V73.9142C168.227 74.004 168.244 74.0929 168.278 74.1758C168.313 74.2588 168.363 74.3342 168.426 74.3978C168.49 74.4613 168.565 74.5118 168.648 74.5462C168.731 74.5807 168.82 74.5985 168.91 74.5986H174.779C174.961 74.5985 175.135 74.5264 175.264 74.3981C175.392 74.2697 175.464 74.0957 175.464 73.9142V68.055C175.464 67.8737 175.391 67.6999 175.263 67.5717C175.135 67.4434 174.961 67.3711 174.779 67.3706Z" fill="#6C63FF"/>
<path d="M174.779 77.3599H168.91C168.728 77.3605 168.555 77.4329 168.427 77.5612C168.299 77.6895 168.227 77.8632 168.227 78.0443V83.9035C168.227 83.9932 168.244 84.0821 168.278 84.1651C168.313 84.2481 168.363 84.3235 168.426 84.3871C168.49 84.4506 168.565 84.5011 168.648 84.5355C168.731 84.57 168.82 84.5878 168.91 84.5879H174.779C174.961 84.5878 175.135 84.5156 175.264 84.3873C175.392 84.259 175.464 84.085 175.464 83.9035V78.0443C175.464 77.8629 175.391 77.6891 175.263 77.5609C175.135 77.4327 174.961 77.3604 174.779 77.3599Z" fill="#E6E6E6"/>
<path d="M174.779 87.3489H168.91C168.82 87.349 168.731 87.3668 168.648 87.4012C168.565 87.4357 168.49 87.4861 168.426 87.5497C168.363 87.6133 168.313 87.6887 168.278 87.7717C168.244 87.8546 168.227 87.9435 168.227 88.0332V93.8925C168.227 93.9822 168.244 94.0711 168.278 94.1541C168.313 94.2371 168.363 94.3125 168.426 94.376C168.49 94.4396 168.565 94.4901 168.648 94.5245C168.731 94.559 168.82 94.5768 168.91 94.5769H174.779C174.961 94.5768 175.135 94.5047 175.264 94.3763C175.392 94.248 175.464 94.074 175.464 93.8925V88.0332C175.464 87.8518 175.392 87.6777 175.264 87.5494C175.135 87.4211 174.961 87.349 174.779 87.3489Z" fill="#E6E6E6"/>
<path d="M187.103 47.3923H181.234C181.053 47.393 180.879 47.4653 180.751 47.5936C180.623 47.7219 180.551 47.8956 180.551 48.0767V53.9385C180.551 54.1193 180.623 54.2927 180.751 54.4206C180.879 54.5484 181.053 54.6203 181.234 54.6203H187.103C187.285 54.6204 187.459 54.5486 187.587 54.4208C187.715 54.293 187.788 54.1196 187.789 53.9385V48.0767C187.788 47.8953 187.716 47.7216 187.587 47.5933C187.459 47.4651 187.285 47.3929 187.103 47.3923Z" fill="#6C63FF"/>
<path d="M187.103 57.3816H181.234C181.053 57.3822 180.879 57.4546 180.751 57.5829C180.623 57.7112 180.551 57.8849 180.551 58.066V63.9278C180.551 64.1086 180.623 64.282 180.751 64.4099C180.879 64.5377 181.053 64.6095 181.234 64.6096H187.103C187.285 64.6096 187.459 64.5379 187.587 64.4101C187.715 64.2823 187.788 64.1089 187.789 63.9278V58.066C187.788 57.8846 187.716 57.7108 187.587 57.5826C187.459 57.4544 187.285 57.3821 187.103 57.3816Z" fill="#6C63FF"/>
<path d="M187.103 67.3706H181.234C181.053 67.3712 180.879 67.4436 180.751 67.5719C180.623 67.7002 180.551 67.8739 180.551 68.055V73.9142C180.551 74.004 180.568 74.0929 180.603 74.1758C180.637 74.2588 180.687 74.3342 180.75 74.3978C180.814 74.4613 180.889 74.5118 180.972 74.5462C181.055 74.5807 181.144 74.5985 181.234 74.5986H187.103C187.285 74.5985 187.459 74.5264 187.588 74.3981C187.716 74.2697 187.788 74.0957 187.789 73.9142V68.055C187.788 67.8737 187.716 67.6999 187.587 67.5717C187.459 67.4434 187.285 67.3711 187.103 67.3706Z" fill="#E6E6E6"/>
<path d="M187.103 77.3599H181.234C181.053 77.3605 180.879 77.4329 180.751 77.5612C180.623 77.6895 180.551 77.8632 180.551 78.0443V83.9035C180.551 83.9932 180.568 84.0821 180.603 84.1651C180.637 84.2481 180.687 84.3235 180.75 84.3871C180.814 84.4506 180.889 84.5011 180.972 84.5355C181.055 84.57 181.144 84.5878 181.234 84.5879H187.103C187.285 84.5878 187.459 84.5156 187.588 84.3873C187.716 84.259 187.788 84.085 187.789 83.9035V78.0443C187.788 77.8629 187.716 77.6891 187.587 77.5609C187.459 77.4327 187.285 77.3604 187.103 77.3599Z" fill="#E6E6E6"/>
<path d="M187.103 87.3489H181.234C181.144 87.349 181.055 87.3668 180.972 87.4012C180.889 87.4357 180.814 87.4861 180.75 87.5497C180.687 87.6133 180.637 87.6887 180.603 87.7717C180.568 87.8546 180.551 87.9435 180.551 88.0332V93.8925C180.551 93.9822 180.568 94.0711 180.603 94.1541C180.637 94.2371 180.687 94.3125 180.75 94.376C180.814 94.4396 180.889 94.4901 180.972 94.5245C181.055 94.559 181.144 94.5768 181.234 94.5769H187.103C187.285 94.5768 187.459 94.5047 187.588 94.3763C187.716 94.248 187.788 94.074 187.789 93.8925V88.0332C187.788 87.8518 187.716 87.6777 187.588 87.5494C187.459 87.4211 187.285 87.349 187.103 87.3489Z" fill="#6C63FF"/>
<path d="M199.427 47.3923H193.558C193.376 47.393 193.203 47.4653 193.075 47.5936C192.947 47.7219 192.875 47.8956 192.875 48.0767V53.9385C192.875 54.1193 192.947 54.2927 193.075 54.4206C193.203 54.5484 193.377 54.6203 193.558 54.6203H199.427C199.608 54.6204 199.782 54.5486 199.911 54.4208C200.039 54.293 200.112 54.1196 200.112 53.9385V48.0767C200.112 47.8953 200.039 47.7216 199.911 47.5933C199.783 47.4651 199.609 47.3929 199.427 47.3923Z" fill="#6C63FF"/>
<path d="M199.427 57.3816H193.558C193.376 57.3822 193.203 57.4546 193.075 57.5829C192.947 57.7112 192.875 57.8849 192.875 58.066V63.9278C192.875 64.1086 192.947 64.282 193.075 64.4099C193.203 64.5377 193.377 64.6095 193.558 64.6096H199.427C199.608 64.6096 199.782 64.5379 199.911 64.4101C200.039 64.2823 200.112 64.1089 200.112 63.9278V58.066C200.112 57.8846 200.039 57.7108 199.911 57.5826C199.783 57.4544 199.609 57.3821 199.427 57.3816Z" fill="#6C63FF"/>
<path d="M199.427 67.3706H193.558C193.376 67.3712 193.203 67.4436 193.075 67.5719C192.947 67.7002 192.875 67.8739 192.875 68.055V73.9142C192.875 74.004 192.892 74.0929 192.926 74.1758C192.961 74.2588 193.011 74.3342 193.074 74.3978C193.138 74.4613 193.213 74.5118 193.296 74.5462C193.379 74.5807 193.468 74.5985 193.558 74.5986H199.427C199.609 74.5985 199.783 74.5264 199.911 74.3981C200.04 74.2697 200.112 74.0957 200.112 73.9142V68.055C200.112 67.8737 200.039 67.6999 199.911 67.5717C199.783 67.4434 199.609 67.3711 199.427 67.3706Z" fill="#E6E6E6"/>
<path d="M199.427 77.3599H193.558C193.376 77.3605 193.203 77.4329 193.075 77.5612C192.947 77.6895 192.875 77.8632 192.875 78.0443V83.9035C192.875 83.9932 192.892 84.0821 192.926 84.1651C192.961 84.2481 193.011 84.3235 193.074 84.3871C193.138 84.4506 193.213 84.5011 193.296 84.5355C193.379 84.57 193.468 84.5878 193.558 84.5879H199.427C199.609 84.5878 199.783 84.5157 199.911 84.3873C200.04 84.259 200.112 84.085 200.112 83.9035V78.0443C200.112 77.8629 200.039 77.6891 199.911 77.5609C199.783 77.4327 199.609 77.3604 199.427 77.3599Z" fill="#6C63FF"/>
<path d="M199.427 87.3489H193.558C193.468 87.349 193.379 87.3668 193.296 87.4012C193.213 87.4357 193.138 87.4861 193.074 87.5497C193.011 87.6133 192.961 87.6887 192.926 87.7717C192.892 87.8546 192.875 87.9435 192.875 88.0332V93.8925C192.875 93.9822 192.892 94.0711 192.926 94.1541C192.961 94.2371 193.011 94.3125 193.074 94.376C193.138 94.4396 193.213 94.4901 193.296 94.5245C193.379 94.559 193.468 94.5768 193.558 94.5769H199.427C199.609 94.5768 199.783 94.5047 199.911 94.3763C200.04 94.248 200.112 94.074 200.112 93.8925V88.0332C200.112 87.8518 200.04 87.6777 199.911 87.5494C199.783 87.4211 199.609 87.349 199.427 87.3489Z" fill="#6C63FF"/>
<path d="M211.751 47.3923H205.881C205.7 47.393 205.526 47.4653 205.398 47.5936C205.27 47.7219 205.199 47.8956 205.199 48.0767V53.9385C205.199 54.1193 205.271 54.2927 205.399 54.4206C205.527 54.5484 205.7 54.6203 205.881 54.6203H211.751C211.932 54.6204 212.106 54.5486 212.234 54.4208C212.363 54.293 212.435 54.1196 212.436 53.9385V48.0767C212.435 47.8953 212.363 47.7216 212.235 47.5933C212.106 47.4651 211.932 47.3929 211.751 47.3923Z" fill="#E6E6E6"/>
<path d="M211.751 57.3816H205.881C205.7 57.3822 205.526 57.4546 205.398 57.5829C205.27 57.7112 205.199 57.8849 205.199 58.066V63.9278C205.199 64.1086 205.271 64.282 205.399 64.4099C205.527 64.5377 205.7 64.6095 205.881 64.6096H211.751C211.932 64.6096 212.106 64.5379 212.234 64.4101C212.363 64.2823 212.435 64.1089 212.436 63.9278V58.066C212.435 57.8846 212.363 57.7108 212.235 57.5826C212.106 57.4544 211.932 57.3821 211.751 57.3816Z" fill="#6C63FF"/>
<path d="M211.751 67.3706H205.881C205.7 67.3712 205.526 67.4436 205.398 67.5719C205.27 67.7002 205.199 67.8739 205.199 68.055V73.9142C205.198 74.004 205.216 74.0929 205.25 74.1758C205.284 74.2588 205.335 74.3342 205.398 74.3978C205.461 74.4613 205.537 74.5118 205.62 74.5462C205.703 74.5807 205.792 74.5985 205.881 74.5986H211.751C211.932 74.5985 212.107 74.5264 212.235 74.3981C212.364 74.2697 212.436 74.0957 212.436 73.9142V68.055C212.435 67.8737 212.363 67.6999 212.235 67.5717C212.106 67.4434 211.932 67.3711 211.751 67.3706Z" fill="#6C63FF"/>
<path d="M211.751 77.3599H205.881C205.7 77.3605 205.526 77.4329 205.398 77.5612C205.27 77.6895 205.199 77.8632 205.199 78.0443V83.9035C205.198 83.9932 205.216 84.0821 205.25 84.1651C205.284 84.2481 205.335 84.3235 205.398 84.3871C205.461 84.4506 205.537 84.5011 205.62 84.5355C205.703 84.57 205.791 84.5878 205.881 84.5879H211.751C211.932 84.5878 212.107 84.5157 212.235 84.3873C212.364 84.259 212.436 84.085 212.436 83.9035V78.0443C212.435 77.8629 212.363 77.6891 212.235 77.5609C212.106 77.4327 211.932 77.3604 211.751 77.3599Z" fill="#6C63FF"/>
<path d="M211.751 87.3489H205.881C205.791 87.349 205.703 87.3668 205.62 87.4012C205.537 87.4357 205.461 87.4861 205.398 87.5497C205.335 87.6133 205.284 87.6887 205.25 87.7717C205.216 87.8546 205.198 87.9435 205.199 88.0332V93.8925C205.198 93.9822 205.216 94.0711 205.25 94.1541C205.284 94.2371 205.335 94.3125 205.398 94.376C205.461 94.4396 205.537 94.4901 205.62 94.5245C205.703 94.559 205.791 94.5768 205.881 94.5769H211.751C211.932 94.5768 212.107 94.5047 212.235 94.3763C212.364 94.248 212.436 94.074 212.436 93.8925V88.0332C212.436 87.8518 212.364 87.6777 212.235 87.5494C212.107 87.4211 211.932 87.349 211.751 87.3489Z" fill="#E6E6E6"/>
<path d="M224.075 47.3923H218.206C218.024 47.393 217.851 47.4653 217.723 47.5936C217.595 47.7219 217.523 47.8956 217.523 48.0767V53.9385C217.523 54.1193 217.595 54.2927 217.723 54.4206C217.851 54.5484 218.025 54.6203 218.206 54.6203H224.075C224.256 54.6204 224.43 54.5486 224.559 54.4208C224.687 54.293 224.76 54.1196 224.76 53.9385V48.0767C224.76 47.8953 224.687 47.7216 224.559 47.5933C224.431 47.4651 224.257 47.3929 224.075 47.3923Z" fill="#E6E6E6"/>
<path d="M224.075 57.3816H218.206C218.024 57.3822 217.851 57.4546 217.723 57.5829C217.595 57.7112 217.523 57.8849 217.523 58.066V63.9278C217.523 64.1086 217.595 64.282 217.723 64.4099C217.851 64.5377 218.025 64.6095 218.206 64.6096H224.075C224.256 64.6096 224.43 64.5379 224.559 64.4101C224.687 64.2823 224.76 64.1089 224.76 63.9278V58.066C224.76 57.8846 224.687 57.7108 224.559 57.5826C224.431 57.4544 224.257 57.3821 224.075 57.3816Z" fill="#E6E6E6"/>
<path d="M224.075 67.3706H218.206C218.024 67.3712 217.851 67.4436 217.723 67.5719C217.595 67.7002 217.523 67.8739 217.523 68.055V73.9142C217.523 74.004 217.54 74.0929 217.574 74.1758C217.609 74.2588 217.659 74.3342 217.722 74.3978C217.786 74.4613 217.861 74.5118 217.944 74.5462C218.027 74.5807 218.116 74.5985 218.206 74.5986H224.075C224.257 74.5985 224.431 74.5264 224.559 74.3981C224.688 74.2697 224.76 74.0957 224.76 73.9142V68.055C224.76 67.8737 224.687 67.6999 224.559 67.5717C224.431 67.4434 224.257 67.3711 224.075 67.3706Z" fill="#6C63FF"/>
<path d="M224.075 77.3599H218.206C218.024 77.3605 217.851 77.4329 217.723 77.5612C217.595 77.6895 217.523 77.8632 217.523 78.0443V83.9035C217.523 83.9932 217.54 84.0821 217.574 84.1651C217.609 84.2481 217.659 84.3235 217.722 84.3871C217.786 84.4506 217.861 84.5011 217.944 84.5355C218.027 84.57 218.116 84.5878 218.206 84.5879H224.075C224.257 84.5878 224.431 84.5157 224.559 84.3873C224.688 84.259 224.76 84.085 224.76 83.9035V78.0443C224.76 77.8629 224.687 77.6891 224.559 77.5609C224.431 77.4327 224.257 77.3604 224.075 77.3599Z" fill="#E6E6E6"/>
<path d="M224.075 87.3489H218.206C218.116 87.349 218.027 87.3668 217.944 87.4012C217.861 87.4357 217.786 87.4861 217.722 87.5497C217.659 87.6133 217.609 87.6887 217.574 87.7717C217.54 87.8546 217.523 87.9435 217.523 88.0332V93.8925C217.523 93.9822 217.54 94.0711 217.574 94.1541C217.609 94.2371 217.659 94.3125 217.722 94.376C217.786 94.4396 217.861 94.4901 217.944 94.5245C218.027 94.559 218.116 94.5768 218.206 94.5769H224.075C224.257 94.5768 224.431 94.5047 224.559 94.3763C224.688 94.248 224.76 94.074 224.76 93.8925V88.0332C224.76 87.8518 224.688 87.6777 224.559 87.5494C224.431 87.4211 224.257 87.349 224.075 87.3489Z" fill="#E6E6E6"/>
<path d="M89.1751 173.738H89.0117L89.1514 173.719L89.1751 173.738Z" fill="#2F2E41"/>
<path d="M75.1327 64.5028C85.0775 64.5028 93.1393 56.4513 93.1393 46.5192C93.1393 36.5872 85.0775 28.5356 75.1327 28.5356C65.1878 28.5356 57.126 36.5872 57.126 46.5192C57.126 56.4513 65.1878 64.5028 75.1327 64.5028Z" fill="#FFB6B6"/>
<path d="M90.9019 33.3341C90.9019 33.3341 95.6114 24.3424 85.2502 23.5249C85.2502 23.5249 76.4171 15.5225 67.4138 22.062C67.4138 22.062 62.5029 22.062 59.8174 27.6121C59.8174 27.6121 55.955 26.1491 55.1062 30.0644C55.1062 30.0644 52.28 38.2388 55.1062 45.5957C57.9325 52.9526 58.8712 53.77 58.8712 53.77C58.8712 53.77 54.2271 38.3459 65.5313 37.5284C76.8354 36.7109 89.485 29.6557 90.4271 38.6475C91.3692 47.6392 92.7868 49.8547 92.7868 49.8547C92.7868 49.8547 101.734 37.0126 90.9019 33.3341Z" fill="#2F2E41"/>
<path d="M121.712 90.8393L121.654 91.1446L121.003 94.577L116.504 118.319L116.238 119.717L115.679 122.673L114.915 126.705L113.22 135.642L112.735 138.203L112.553 139.164L112.49 139.5L111.987 142.151L111.834 142.951L110.606 152.04L109.533 159.96L113.123 163.545L110.982 165.683L109.578 173.719L109.58 173.737H52.249C49.9296 172.237 47.6437 170.69 45.3912 169.097L45.863 165.57C45.863 165.57 47.4865 159.271 46.8038 158.518C46.1239 157.765 44.6321 156.42 44.6321 156.42L46.5113 152.04L46.7722 151.432L46.3347 142.37L46.3242 142.151L46.1793 139.164L46.1608 138.779L46.1318 138.203L45.5757 126.705L45.5652 126.516L45.3965 123.031L45.2383 119.717L45.1698 118.319L44.4925 104.334L44.0339 94.8376L43.6333 86.5699L45.2436 86.025L62.4671 80.1789L69.6015 70.9163L84.4503 71.0268L91.7192 71.0821L103.848 82.3163L106.608 83.6324L106.629 83.6429L108.608 84.5878L113.626 86.9805L118.931 89.5127L121.654 90.8103L121.712 90.8393Z" fill="#CACACA"/>
<path d="M71.5207 146.758C70.4326 147.179 69.2653 147.356 68.101 147.278C66.9367 147.2 65.8038 146.867 64.782 146.304C63.7602 145.742 62.8744 144.962 62.1871 144.02C61.4997 143.078 61.0274 141.997 60.8035 140.854L32.7192 136.874L42.4821 125.845L67.6547 131.315C69.6035 131.066 71.5759 131.541 73.198 132.648C74.8201 133.755 75.9793 135.418 76.4558 137.321C76.9324 139.225 76.6932 141.237 75.7836 142.976C74.8741 144.715 73.3573 146.061 71.5207 146.758Z" fill="#FFB6B6"/>
<path d="M58.9986 126.705C58.4784 126.047 57.7419 125.593 56.9192 125.423L45.3965 123.031L44.2131 122.786C43.5254 122.643 42.8758 122.356 42.3067 121.944C41.7376 121.533 41.2619 121.006 40.9107 120.399C40.5465 119.761 40.3261 119.051 40.265 118.319C40.2101 117.654 40.2899 116.984 40.4996 116.35L44.4925 104.334L47.0832 96.5378C47.3972 95.5975 47.5825 94.6191 47.6341 93.6293C47.7784 90.8899 46.9298 88.1903 45.2436 86.0249C43.7612 84.1216 41.7051 82.745 39.3791 82.0985C37.0531 81.452 34.5805 81.5698 32.3267 82.4346C32.2608 82.4583 32.1923 82.4846 32.1264 82.5109C30.5101 83.1555 29.066 84.1666 27.9083 85.4645C26.7506 86.7623 25.911 88.3113 25.4558 89.989L22.641 100.215L16.8348 121.296C16.2536 123.408 16.1362 125.621 16.4906 127.783C16.845 129.944 17.6629 132.004 18.8883 133.821C20.1137 135.637 21.7176 137.168 23.5903 138.308C25.463 139.449 27.5603 140.171 29.7386 140.427L46.3347 142.369L54.0148 143.27C54.9028 143.376 55.7985 143.145 56.5234 142.621C57.2482 142.098 57.749 141.321 57.9259 140.445C57.9384 140.398 57.9481 140.349 57.9549 140.301L58.1394 139.163L59.7023 129.588L59.7181 129.49C59.7996 129.001 59.7776 128.501 59.6537 128.022C59.5298 127.542 59.3066 127.094 58.9986 126.705Z" fill="#CACACA"/>
<path d="M89.4092 147.065C90.5459 147.328 91.7266 147.34 92.8682 147.098C94.0098 146.857 95.0845 146.368 96.0166 145.667C96.9487 144.966 97.7155 144.069 98.2631 143.04C98.8106 142.011 99.1255 140.874 99.1857 139.71L126.427 131.815L115.205 122.271L91.0561 131.232C89.0916 131.26 87.2059 132.008 85.7563 133.332C84.3067 134.656 83.3939 136.466 83.1909 138.418C82.9879 140.369 83.5088 142.327 84.6549 143.921C85.8009 145.515 87.4926 146.633 89.4092 147.065Z" fill="#FFB6B6"/>
<path d="M139.953 114.155L126.996 84.3745C125.937 81.9295 124.044 79.9385 121.654 78.7548C120.915 78.3915 120.139 78.1091 119.34 77.9125C119.216 77.8809 119.092 77.8519 118.968 77.8282C117.273 77.4588 115.515 77.4912 113.834 77.923C112.298 78.3171 110.863 79.0302 109.621 80.0157C108.379 81.0013 107.36 82.2372 106.629 83.6427C106.621 83.6544 106.614 83.6667 106.608 83.6796C105.791 85.2575 105.357 87.0048 105.34 88.781C105.323 90.5572 105.724 92.3125 106.51 93.9056L106.671 94.2267L115.827 112.591C116.139 113.219 116.316 113.906 116.344 114.607C116.372 115.308 116.251 116.007 115.99 116.658C115.729 117.309 115.332 117.897 114.827 118.384C114.322 118.872 113.72 119.247 113.059 119.485L112.416 119.717L100.851 123.889C99.9837 124.198 99.2699 124.832 98.8604 125.656C98.4509 126.48 98.3776 127.431 98.656 128.308L98.685 128.4L101.927 138.761C101.943 138.808 101.958 138.855 101.977 138.903C102.005 138.992 102.041 139.079 102.082 139.163C102.427 139.935 103.036 140.559 103.8 140.922C104.563 141.285 105.432 141.365 106.249 141.145L112.49 139.5L113.763 139.163L129.88 134.912C132 134.353 133.975 133.342 135.668 131.95C137.361 130.557 138.733 128.815 139.689 126.844C140.646 124.873 141.165 122.718 141.21 120.528C141.256 118.338 140.827 116.164 139.953 114.155Z" fill="#CACACA"/>
<path d="M12.4282 139.164C16.1629 143.713 20.1907 148.014 24.4859 152.04H143.606C144.753 152.042 145.853 152.498 146.665 153.309C147.476 154.12 147.932 155.219 147.933 156.365L148.105 186.511C155.433 183.149 162.295 178.855 168.522 173.737C170.251 172.319 171.926 170.838 173.548 169.297C174.61 168.291 175.647 167.261 176.658 166.207C184.239 158.319 190.378 149.167 194.796 139.164H12.4282Z" fill="#3F3D56"/>
<path d="M176.658 166.207C175.649 167.262 174.612 168.292 173.548 169.297H148.191V166.207H176.658Z" fill="#E6E6E6"/>
<path d="M121.475 67.3707C121.349 67.1398 121.164 66.947 120.938 66.8126C120.712 66.6783 120.454 66.6074 120.191 66.6074H33.7868C33.3994 66.6084 33.0282 66.7627 32.7545 67.0366C32.4808 67.3104 32.327 67.6814 32.3267 68.0683V119.717H121.654V68.0683C121.655 67.8242 121.594 67.584 121.475 67.3707Z" fill="#3F3D56"/>
<path d="M32.2485 118.319V124.692C32.2485 124.956 32.3006 125.218 32.4019 125.462C32.5031 125.706 32.6515 125.928 32.8386 126.115C33.0257 126.302 33.2477 126.45 33.4922 126.551C33.7366 126.652 33.9986 126.704 34.2631 126.704H67.2332V139.282H66.7952C66.7608 139.282 66.7268 139.289 66.695 139.302C66.6633 139.315 66.6344 139.335 66.6101 139.359C66.5858 139.383 66.5666 139.412 66.5534 139.444C66.5402 139.475 66.5335 139.509 66.5335 139.544V140.419C66.5335 140.453 66.5402 140.487 66.5534 140.519C66.5665 140.55 66.5858 140.579 66.6101 140.604C66.6344 140.628 66.6633 140.647 66.695 140.66C66.7268 140.673 66.7608 140.68 66.7952 140.68H87.2626C87.2969 140.68 87.331 140.673 87.3627 140.66C87.3945 140.647 87.4233 140.628 87.4476 140.604C87.4719 140.579 87.4912 140.55 87.5044 140.519C87.5175 140.487 87.5243 140.453 87.5243 140.419V139.544C87.5243 139.509 87.5175 139.475 87.5044 139.444C87.4912 139.412 87.4719 139.383 87.4476 139.359C87.4233 139.335 87.3945 139.315 87.3627 139.302C87.331 139.289 87.2969 139.282 87.2626 139.282H86.8246V126.704H119.795C120.059 126.704 120.321 126.652 120.566 126.551C120.81 126.45 121.032 126.302 121.219 126.115C121.406 125.928 121.555 125.706 121.656 125.462C121.757 125.218 121.809 124.956 121.809 124.692V118.319H32.2485Z" fill="#3F3D56"/>
<path d="M75.9468 100.026C80.5037 100.026 84.1978 96.3364 84.1978 91.7854C84.1978 87.2343 80.5037 83.5449 75.9468 83.5449C71.3899 83.5449 67.6958 87.2343 67.6958 91.7854C67.6958 96.3364 71.3899 100.026 75.9468 100.026Z" fill="#6C63FF"/>
<path d="M96.9695 45.5367H95.6517C95.6517 35.5871 85.7921 29.0672 75.8455 29.0619C74.3987 29.0577 72.9551 29.1979 71.5363 29.4804C69.9392 29.7989 68.2814 30.1806 66.6526 30.678C60.2297 32.6443 54.2734 36.4452 54.2734 45.5367C54.272 47.3024 54.497 49.0609 54.9428 50.7695L53.6672 51.1012C53.194 49.2841 52.9549 47.4142 52.9556 45.5367C52.9556 37.5928 56.221 32.1363 61.8611 28.8829C64.8262 27.172 68.4448 26.0691 72.5905 25.5321C74.3157 25.3029 76.0598 25.25 77.7958 25.3742C89.2341 26.1954 96.9695 34.9553 96.9695 45.5367Z" fill="#6C63FF"/>
<path d="M99.1647 46.2657L98.6455 42.4332C98.5174 41.4654 98.0506 40.574 97.3277 39.9169C96.8636 39.4885 96.3081 39.1711 95.7031 38.9887C95.0981 38.8063 94.4595 38.7636 93.8356 38.864L93.0107 38.9772C92.785 39.0069 92.5674 39.081 92.3706 39.1953C92.1738 39.3096 92.0016 39.4619 91.8642 39.6431C91.7256 39.8238 91.6242 40.0301 91.5658 40.2501C91.5075 40.4701 91.4933 40.6995 91.5242 40.925L92.7234 49.7534C92.7728 50.1132 92.9343 50.4484 93.185 50.7115C93.4357 50.9746 93.7629 51.1523 94.1202 51.2195C94.2261 51.2407 94.3338 51.2513 94.4418 51.2511C94.5194 51.2511 94.5969 51.2458 94.6737 51.2353L95.5962 51.1116C96.1586 51.037 96.6998 50.8484 97.1866 50.5574C97.6733 50.2663 98.0954 49.879 98.4268 49.4191C98.4979 49.319 98.5664 49.2164 98.6297 49.1111C99.1237 48.2498 99.3122 47.2473 99.1647 46.2657Z" fill="#6C63FF"/>
<path d="M92.4783 39.1379C92.2363 39.2554 92.0258 39.4286 91.8642 39.6433C91.7256 39.824 91.6242 40.0303 91.5658 40.2503C91.5075 40.4703 91.4933 40.6997 91.5242 40.9252L92.7234 49.7535C92.7728 50.1134 92.9343 50.4486 93.185 50.7117C93.4357 50.9748 93.7629 51.1525 94.1202 51.2197L92.4783 39.1379Z" fill="#E6E6E6"/>
<path d="M99.1646 46.2658L98.6454 42.4334C98.5174 41.4655 98.0505 40.5741 97.3276 39.917L98.5216 48.7006C98.5394 48.8416 98.5758 48.9796 98.6296 49.1112C99.1236 48.2499 99.3121 47.2474 99.1646 46.2658Z" fill="#3F3D56"/>
<path d="M95.0615 49.027C95.4221 48.9782 95.6034 48.1211 95.4664 47.1128C95.3295 46.1044 94.9261 45.3266 94.5655 45.3754C94.2049 45.4243 94.0236 46.2813 94.1606 47.2897C94.2976 48.298 94.7009 49.0759 95.0615 49.027Z" fill="#3F3D56"/>
<path d="M94.2705 44.2892C94.6311 44.2404 94.8124 43.3833 94.6754 42.375C94.5384 41.3666 94.1351 40.5888 93.7745 40.6376C93.4139 40.6865 93.2326 41.5435 93.3696 42.5519C93.5066 43.5602 93.9099 44.3381 94.2705 44.2892Z" fill="#3F3D56"/>
<path d="M99.2783 46.1318C99.6389 46.0829 99.8202 45.2259 99.6832 44.2175C99.5463 43.2091 99.1429 42.4313 98.7823 42.4801C98.4217 42.529 98.2404 43.386 98.3774 44.3944C98.5144 45.4028 98.9177 46.1806 99.2783 46.1318Z" fill="#3F3D56"/>
<path d="M75.8452 29.0619C74.3984 29.0577 72.9548 29.1979 71.536 29.4804C69.9388 29.7989 68.2811 30.1806 66.6523 30.678C64.109 30.5543 62.2377 29.8963 61.8608 28.8829C64.8259 27.172 68.4445 26.0691 72.5902 25.5321C74.3154 25.3029 76.0595 25.25 77.7955 25.3742C77.9792 25.4818 78.1381 25.627 78.2617 25.8003C78.3852 25.9736 78.4707 26.1711 78.5123 26.3797C78.6362 27.2957 77.5899 28.2696 75.8452 29.0619Z" fill="#3F3D56"/>
<path d="M59.0199 54.6704L56.9905 46.2448C56.9181 45.9408 56.7574 45.665 56.5286 45.4519C56.2998 45.2388 56.013 45.098 55.7043 45.0472C55.6171 45.0336 55.529 45.0266 55.4408 45.0261C55.3165 45.0266 55.1926 45.0416 55.0718 45.0709L54.2864 45.2604C53.2752 45.5046 52.4023 46.1396 51.8593 47.0258C51.3162 47.9121 51.1475 48.9774 51.3899 49.9878L52.2992 53.7676C52.5068 54.6575 53.0013 55.4546 53.7066 56.0366C53.8209 56.1287 53.9406 56.214 54.065 56.2919C54.5068 56.5684 54.9996 56.7537 55.5143 56.8369C56.0289 56.9201 56.5551 56.8995 57.0617 56.7762L57.8444 56.5867C58.0514 56.5385 58.2461 56.4479 58.4163 56.3208C58.6695 56.1365 58.862 55.8812 58.9695 55.5873C59.0769 55.2935 59.0945 54.9743 59.0199 54.6704Z" fill="#6C63FF"/>
<path d="M54.7656 53.1027C55.1194 53.0176 55.213 52.1467 54.9746 51.1573C54.7362 50.1679 54.2561 49.4348 53.9023 49.5199C53.5485 49.6049 53.455 50.4759 53.6934 51.4652C53.9317 52.4546 54.4118 53.1877 54.7656 53.1027Z" fill="#3F3D56"/>
<path d="M52.1299 53.8924C52.4837 53.8074 52.5772 52.9365 52.3388 51.9471C52.1004 50.9577 51.6204 50.2246 51.2666 50.3097C50.9128 50.3947 50.8192 51.2657 51.0576 52.255C51.296 53.2444 51.7761 53.9775 52.1299 53.8924Z" fill="#3F3D56"/>
<path d="M59.1492 54.6389L57.1198 46.2132C57.0407 45.8844 56.8663 45.5861 56.6183 45.3557C56.3703 45.1253 56.0598 44.9732 55.7256 44.9182L58.4956 56.4261C58.7691 56.226 58.9772 55.9495 59.0935 55.6314C59.2099 55.3133 59.2292 54.9679 59.1492 54.6389Z" fill="#E6E6E6"/>
<path d="M51.8487 48.319C51.7927 48.0847 51.6876 47.8649 51.5403 47.6741C51.255 48.4119 51.2026 49.2193 51.3901 49.9878L52.2994 53.7676C52.507 54.6574 53.0014 55.4546 53.7067 56.0365L51.8487 48.319Z" fill="#3F3D56"/>
</g>
<defs>
<clipPath id="clip0_52_160">
<rect width="224.165" height="195" fill="white" transform="translate(0.595215)"/>
</clipPath>
</defs>
</svg>
