<svg width="170" height="195" viewBox="0 0 170 195" fill="none" xmlns="http://www.w3.org/2000/svg">
<g clip-path="url(#clip0_52_528)">
<path d="M108.818 144.372C109.198 144.578 109.63 144.661 110.056 144.608C110.483 144.556 110.884 144.372 111.204 144.08C111.524 143.789 111.749 143.404 111.847 142.978C111.945 142.553 111.912 142.107 111.753 141.701C111.796 141.485 111.826 141.33 111.869 141.113C112.689 140.335 113.719 139.823 114.827 139.644C115.935 139.464 117.07 139.626 118.087 140.107C119.104 140.588 119.957 141.368 120.536 142.345C121.114 143.322 121.393 144.453 121.336 145.593C121.077 152.02 121.389 158.955 117.189 164.137C136.355 148.205 145.094 121.064 139.241 96.6527C136.369 92.5816 135.029 87.1734 136.317 82.2725C137.934 83.8715 141.084 83.442 140.603 80.6738C140.344 79.5798 140.077 78.4891 139.819 77.3951C150.858 73.0131 153.74 89.7104 140.664 96.5087C141.724 101.15 142.305 105.891 142.397 110.655C143.873 106.359 146.331 102.481 149.568 99.3405C152.701 96.4702 156.845 94.7824 160.7 92.8567C165.391 90.5072 170.597 95.1651 168.75 100.138C165.628 99.7311 163.418 103.528 166.252 105.568C161.275 114.072 151.731 119.476 142.035 119.562C141.055 129.264 138.052 138.643 133.229 147.072C139.423 137.491 151.41 140.249 160.883 139.841C161.512 139.761 162.15 139.868 162.719 140.15C163.289 140.432 163.766 140.876 164.091 141.429C164.417 141.982 164.577 142.619 164.553 143.263C164.528 143.907 164.32 144.53 163.954 145.056C162.708 144.981 161.457 145.033 160.221 145.21C159.64 145.298 159.099 145.566 158.674 145.979C158.248 146.391 157.958 146.927 157.844 147.514C157.73 148.1 157.797 148.708 158.035 149.255C158.274 149.801 158.673 150.259 159.178 150.566C150.868 158.315 137.991 159.981 127.884 155.036C124.896 158.865 121.525 162.367 117.825 165.487L102.8 158.201C102.826 158.005 102.86 157.807 102.891 157.613C104.24 158.377 105.676 158.969 107.166 159.377C105.563 153.161 103.777 149.52 108.818 144.372H108.818Z" fill="#CCCCCC"/>
<path d="M82.2691 129.668C81.9944 130.004 81.6248 130.246 81.2103 130.362C80.7957 130.477 80.3563 130.46 79.9516 130.313C79.5468 130.166 79.1964 129.896 78.9476 129.539C78.6988 129.183 78.5638 128.757 78.5608 128.32C78.4411 128.136 78.3552 128.004 78.2355 127.82C77.1874 127.414 76.0438 127.335 74.9513 127.594C73.8589 127.853 72.8673 128.438 72.1038 129.274C71.3403 130.11 70.8397 131.159 70.666 132.286C70.4923 133.414 70.6535 134.568 71.129 135.602C73.7525 141.455 76.0351 147.997 81.8454 151.184C58.1877 143.784 40.0305 122.001 36.3996 97.1471C37.5499 92.2747 36.7853 86.7519 33.7753 82.7072C32.8714 84.8083 29.7943 85.6194 29.2137 82.871C29.0473 81.7587 28.8904 80.646 28.7239 79.5337C16.8756 79.7112 20.3978 96.281 35.0287 97.5596C35.7672 102.265 36.9871 106.879 38.6687 111.326C35.7088 107.914 31.9949 105.266 27.8326 103.599C23.866 102.143 19.4025 102.17 15.1182 101.866C9.90261 101.49 6.80819 107.801 10.3625 111.698C13.1038 110.123 16.5581 112.792 14.6902 115.769C22.4526 121.734 33.2949 123.077 42.3067 119.436C46.8124 128.046 53.0703 135.579 60.6633 141.535C51.374 135.038 41.2952 142.193 32.3703 145.45C31.7584 145.616 31.2072 145.96 30.7842 146.44C30.3612 146.92 30.0845 147.514 29.988 148.151C29.8915 148.788 29.9793 149.44 30.2407 150.027C30.502 150.614 30.9257 151.111 31.46 151.457C32.5866 150.91 33.7638 150.478 34.9743 150.168C35.5453 150.026 36.1455 150.067 36.6925 150.286C37.2396 150.505 37.7068 150.89 38.0301 151.389C38.3534 151.889 38.517 152.478 38.4984 153.075C38.4798 153.673 38.2799 154.25 37.9262 154.728C48.4962 158.716 61.0396 155.318 68.5658 146.86C72.7528 149.259 77.1736 151.21 81.757 152.679L92.9706 140.166C92.8742 139.995 92.7692 139.823 92.6688 139.656C91.7024 140.881 90.5922 141.98 89.3631 142.931C88.5427 136.559 88.8469 132.501 82.2696 129.667L82.2691 129.668Z" fill="#CCCCCC"/>
<path d="M85.1549 76.7927C85.5826 76.7487 85.9866 76.5721 86.3122 76.2868C86.6379 76.0014 86.8694 75.6212 86.9755 75.1975C87.0816 74.7738 87.0571 74.3272 86.9054 73.9181C86.7536 73.5091 86.4819 73.1574 86.127 72.9107C86.044 72.7071 85.9845 72.5609 85.9015 72.3574C86.1555 71.2459 86.73 70.2369 87.5513 69.4597C88.3727 68.6825 89.4035 68.1726 90.5116 67.9952C91.6197 67.8179 92.7546 67.9812 93.7709 68.4643C94.7871 68.9474 95.6384 69.7282 96.2156 70.7066C99.5228 76.1893 103.583 81.7695 102.937 88.4525C110.115 64.3561 102.494 36.8686 84.2559 19.9237C79.6405 18.1731 75.5642 14.4434 73.9473 9.64443C76.1653 10.0552 78.5453 7.91165 76.6285 5.88674C75.8144 5.12506 74.9947 4.37122 74.1808 3.60949C80.9429 -6.28922 92.487 5.93724 85.358 18.9973C88.7822 22.2483 91.863 25.8546 94.5501 29.7573C93.4212 25.3541 93.336 20.7412 94.3016 16.298C95.3299 12.1378 97.8448 8.38644 99.9895 4.60131C102.596 -0.00970829 109.471 0.904171 110.663 6.07962C107.848 7.51334 108.094 11.9186 111.565 12.0052C112.094 21.8869 107.134 31.7863 99.1317 37.357C103.635 45.9676 106.283 55.4558 106.899 65.1893C106.79 53.7221 118.252 49.2133 125.893 43.5013C126.371 43.0779 126.959 42.805 127.586 42.716C128.214 42.627 128.853 42.7256 129.426 42.9999C130 43.2742 130.482 43.7123 130.815 44.2607C131.147 44.8091 131.316 45.4442 131.3 46.0885C130.225 46.7335 129.215 47.4857 128.286 48.3338C127.851 48.7364 127.55 49.2658 127.422 49.8496C127.295 50.4333 127.348 51.0428 127.575 51.5945C127.802 52.1462 128.191 52.6131 128.688 52.9312C129.186 53.2493 129.768 53.403 130.355 53.3713C127.704 64.5182 117.927 73.2047 106.827 74.8316C106.445 79.7048 105.566 84.5245 104.205 89.2129L87.7387 91.6866C87.6526 91.5093 87.5716 91.3251 87.4915 91.147C89.0298 91.0155 90.5465 90.6929 92.0077 90.1864C87.2702 85.9353 83.7919 83.9259 85.1545 76.793L85.1549 76.7927Z" fill="#CCCCCC"/>
<path d="M101.716 71.4218C94.2197 71.4218 90.1535 70.4899 88.7335 68.5007C87.4805 66.7456 88.3205 64.4298 89.2932 61.7484C89.9923 59.8211 90.7846 57.6367 90.7846 55.4748C90.7846 44.9597 96.0258 39.6279 106.362 39.6279C111.505 39.6279 117.027 42.4071 121.134 47.0624C124.867 51.2945 126.727 56.3596 126.236 60.9588C125.834 64.7307 124.108 67.2112 120.805 68.7655L120.612 68.8564L120.557 68.6473C120.272 67.5647 119.789 66.5463 119.134 65.6452C119.07 67.0597 118.719 68.4455 118.104 69.7156L118.069 69.788L117.993 69.8102C114.254 70.8935 109.817 71.187 106.369 71.3215C104.691 71.388 103.14 71.4215 101.716 71.4218Z" fill="#2F2E41"/>
<path d="M103.759 86.0724C103.472 85.2133 102.988 84.4362 102.346 83.8057C101.704 83.1751 100.924 82.7094 100.07 82.4471C99.2159 82.1847 98.3126 82.1334 97.4352 82.2972C96.5577 82.4611 95.7313 82.8355 95.0245 83.3893L70.3663 98.3864L62.6504 79.2343C63.3022 78.2615 63.6344 77.1038 63.5994 75.9271C63.5644 74.7504 63.164 73.6152 62.4556 72.6843C61.7472 71.7534 60.7672 71.0746 59.6561 70.7453C58.545 70.4161 57.36 70.4532 56.2709 70.8515C55.1819 71.2497 54.2448 71.9885 53.5941 72.962C52.9433 73.9355 52.6124 75.0937 52.6487 76.2703C52.685 77.447 53.0867 78.5817 53.7961 79.5118C54.5056 80.4419 55.4864 81.1195 56.5978 81.4475C57.0734 86.9704 59.7163 111.655 68.9108 110.758C76.6391 110.004 95.8318 97.0011 101.793 92.4927C102.747 91.7721 103.451 90.7622 103.804 89.6084C104.158 88.4546 104.142 87.2165 103.759 86.0724Z" fill="#FFB6B6"/>
<path d="M122.341 195H100.88L97.2806 176.898L96.1132 195H76.1772C76.1849 180.784 76.9128 166.579 78.3581 152.439L78.6052 151.583L78.9956 150.214L79.2427 149.354L83.3681 134.942L83.694 133.798H108.536C109.966 135.164 111.284 136.646 112.479 138.228C112.883 138.753 113.306 139.321 113.739 139.933C114.04 140.367 114.352 140.822 114.663 141.299C117.431 145.491 119.5 150.119 120.787 154.997V155C121.005 155.835 121.199 156.688 121.367 157.561V157.565C121.518 158.341 121.65 159.128 121.754 159.933C121.833 160.519 121.901 161.113 121.951 161.714C122.249 165.044 122.145 168.399 121.639 171.703L122.341 195Z" fill="#2F2E41"/>
<path d="M8.55222 29.4791C9.94598 28.9303 10.7716 27.6858 10.3963 26.6995C10.021 25.7132 8.58682 25.3585 7.19306 25.9074C5.7993 26.4562 4.97369 27.7007 5.34901 28.687C5.72433 29.6733 7.15845 30.028 8.55222 29.4791Z" fill="#E6E6E6"/>
<path d="M26.1006 27.1891C27.4943 26.6403 28.3199 25.3958 27.9446 24.4094C27.5693 23.4231 26.1352 23.0685 24.7414 23.6173C23.3476 24.1662 22.522 25.4107 22.8974 26.397C23.2727 27.3833 24.7068 27.7379 26.1006 27.1891Z" fill="#3F3D56"/>
<path d="M7.03026 44.7096C8.42402 44.1608 9.24963 42.9163 8.87431 41.9299C8.49899 40.9436 7.06486 40.589 5.6711 41.1378C4.27733 41.6867 3.45172 42.9312 3.82704 43.9175C4.20236 44.9038 5.63649 45.2585 7.03026 44.7096Z" fill="#FF6584"/>
<path d="M1.95341 51.4279C2.59283 51.2739 2.93482 50.3911 2.71726 49.4561C2.4997 48.521 1.80498 47.8878 1.16557 48.0418C0.526158 48.1957 0.184178 49.0786 0.401734 50.0136C0.619291 50.9486 1.314 51.5818 1.95341 51.4279Z" fill="#E6E6E6"/>
<path d="M1.84892 62.8021C2.48833 62.6482 2.83031 61.7654 2.61276 60.8303C2.3952 59.8953 1.70049 59.2621 1.06108 59.4161C0.421665 59.57 0.0796853 60.4528 0.297242 61.3879C0.514798 62.3229 1.20951 62.9561 1.84892 62.8021Z" fill="#3F3D56"/>
<path d="M17.2513 39.2433C17.8907 39.0893 18.2327 38.2065 18.0151 37.2715C17.7975 36.3364 17.1028 35.7033 16.4634 35.8572C15.824 36.0112 15.482 36.894 15.6996 37.829C15.9171 38.764 16.6118 39.3972 17.2513 39.2433Z" fill="#E6E6E6"/>
<path d="M8.00859 36.9603C8.648 36.8064 8.98998 35.9236 8.77243 34.9885C8.55487 34.0535 7.86016 33.4203 7.22075 33.5743C6.58133 33.7282 6.23935 34.611 6.45691 35.5461C6.67447 36.4811 7.36918 37.1143 8.00859 36.9603Z" fill="#FF6584"/>
<path d="M17.805 26.4864C18.4444 26.3325 18.7864 25.4497 18.5688 24.5146C18.3513 23.5796 17.6565 22.9464 17.0171 23.1004C16.3777 23.2543 16.0357 24.1371 16.2533 25.0722C16.4709 26.0072 17.1656 26.6404 17.805 26.4864Z" fill="#3F3D56"/>
<path d="M22.3611 105.21C23.035 104.404 22.6587 102.953 21.5206 101.967C20.3825 100.982 18.9136 100.836 18.2397 101.641C17.5658 102.446 17.9421 103.898 19.0802 104.884C20.2183 105.869 21.6872 106.015 22.3611 105.21Z" fill="#E6E6E6"/>
<path d="M12.0256 90.6019C12.6995 89.7965 12.3232 88.3447 11.1852 87.3593C10.0471 86.3738 8.57819 86.2278 7.90429 87.0332C7.23039 87.8386 7.60668 89.2903 8.74475 90.2758C9.88283 91.2613 11.3517 91.4073 12.0256 90.6019Z" fill="#3F3D56"/>
<path d="M36.2512 99.3194C36.9251 98.514 36.5488 97.0623 35.4108 96.0768C34.2727 95.0913 32.8038 94.9453 32.1299 95.7507C31.456 96.5561 31.8323 98.0079 32.9703 98.9933C34.1084 99.9788 35.5773 100.125 36.2512 99.3194Z" fill="#FF6584"/>
<path d="M43.1519 99.4806C43.8566 98.8408 44.0732 97.9179 43.6356 97.4192C43.1981 96.9205 42.2721 97.0349 41.5675 97.6747C40.8628 98.3146 40.6462 99.2375 41.0837 99.7362C41.5213 100.235 42.4472 100.12 43.1519 99.4806Z" fill="#E6E6E6"/>
<path d="M53.0342 94.1581C53.7389 93.5183 53.9555 92.5953 53.518 92.0967C53.0804 91.598 52.1545 91.7124 51.4498 92.3522C50.7451 92.9921 50.5285 93.915 50.9661 94.4137C51.4036 94.9124 52.3296 94.798 53.0342 94.1581Z" fill="#3F3D56"/>
<path d="M25.3355 91.5978C26.0402 90.958 26.2568 90.035 25.8192 89.5364C25.3817 89.0377 24.4557 89.1521 23.751 89.7919C23.0464 90.4318 22.8298 91.3547 23.2673 91.8534C23.7049 92.3521 24.6308 92.2376 25.3355 91.5978Z" fill="#E6E6E6"/>
<path d="M27.7628 100.953C28.4675 100.313 28.684 99.39 28.2465 98.8913C27.8089 98.3927 26.883 98.5071 26.1783 99.1469C25.4736 99.7867 25.257 100.71 25.6946 101.208C26.1321 101.707 27.0581 101.593 27.7628 100.953Z" fill="#FF6584"/>
<path d="M14.044 97.1764C14.7487 96.5366 14.9653 95.6137 14.5277 95.115C14.0902 94.6163 13.1642 94.7307 12.4595 95.3705C11.7549 96.0104 11.5383 96.9333 11.9758 97.432C12.4134 97.9307 13.3393 97.8163 14.044 97.1764Z" fill="#3F3D56"/>
<path d="M91.7936 11.5202C92.7266 11.0535 92.9482 9.56911 92.2886 8.20481C91.6291 6.84051 90.338 6.11291 89.4051 6.57967C88.4721 7.04643 88.2505 8.53079 88.9101 9.89508C89.5696 11.2594 90.8606 11.987 91.7936 11.5202Z" fill="#E6E6E6"/>
<path d="M95.5734 29.1025C96.5063 28.6358 96.728 27.1514 96.0684 25.7871C95.4088 24.4228 94.1178 23.6952 93.1849 24.1619C92.2519 24.6287 92.0303 26.1131 92.6899 27.4774C93.3494 28.8417 94.6404 29.5693 95.5734 29.1025Z" fill="#3F3D56"/>
<path d="M76.7458 11.3122C77.6787 10.8455 77.9003 9.36111 77.2408 7.99681C76.5812 6.63251 75.2902 5.9049 74.3573 6.37165C73.4243 6.83841 73.2027 8.32278 73.8622 9.68708C74.5218 11.0514 75.8128 11.779 76.7458 11.3122Z" fill="#FF6584"/>
<path d="M68.8366 5.73251C69.7331 5.43012 70.2923 4.67065 70.0855 4.03618C69.8787 3.40172 68.9843 3.13251 68.0877 3.4349C67.1912 3.73729 66.632 4.49676 66.8388 5.13123C67.0456 5.7657 67.94 6.0349 68.8366 5.73251Z" fill="#E6E6E6"/>
<path d="M57.6891 6.62338C58.5856 6.32099 59.1448 5.56152 58.938 4.92705C58.7312 4.29258 57.8368 4.02338 56.9402 4.32577C56.0437 4.62816 55.4845 5.38763 55.6913 6.02209C55.8981 6.65656 56.7925 6.92577 57.6891 6.62338Z" fill="#3F3D56"/>
<path d="M82.1085 20.1668C83.0051 19.8644 83.5643 19.105 83.3575 18.4705C83.1507 17.836 82.2563 17.5668 81.3597 17.8692C80.4631 18.1716 79.904 18.9311 80.1107 19.5656C80.3175 20.2 81.212 20.4692 82.1085 20.1668Z" fill="#E6E6E6"/>
<path d="M83.5343 10.6009C84.4309 10.2985 84.99 9.53905 84.7833 8.90458C84.5765 8.27011 83.682 8.00091 82.7855 8.3033C81.8889 8.60569 81.3297 9.36517 81.5365 9.99963C81.7433 10.6341 82.6378 10.9033 83.5343 10.6009Z" fill="#FF6584"/>
<path d="M94.6491 19.6104C95.5456 19.308 96.1048 18.5486 95.898 17.9141C95.6912 17.2796 94.7968 17.0104 93.9002 17.3128C93.0037 17.6152 92.4445 18.3747 92.6513 19.0092C92.8581 19.6436 93.7525 19.9128 94.6491 19.6104Z" fill="#3F3D56"/>
<path d="M98.0908 74.3491L109.914 73.7295L115.406 82.5568C115.406 82.5568 125.738 84.3141 125.022 96.7002C124.306 109.086 112.45 119.955 112.45 119.955L112.957 126.405L112.077 128.964L112.19 130.4L113.391 131.921L113.514 133.495L112.45 135.984L113.897 138.368L83.4814 135.37L82.3692 131.248L83.9917 129.035L83.0854 126.148L84.4479 123.371L85.1583 114.551C85.1583 114.551 77.3858 102.673 86.3084 93.7258L89.8895 87.5328L93.8964 82.5597L98.0908 74.3491Z" fill="#6C63FF"/>
<path d="M103.968 71.8564C110.887 71.8564 116.496 66.1505 116.496 59.1118C116.496 52.0731 110.887 46.3672 103.968 46.3672C97.049 46.3672 91.4399 52.0731 91.4399 59.1118C91.4399 66.1505 97.049 71.8564 103.968 71.8564Z" fill="#FFB6B6"/>
<path d="M102.291 58.3396C101.211 58.3396 100.132 58.3086 99.0538 58.2467L98.8612 58.2357L98.8865 58.0411C99.0454 56.8246 98.956 55.5878 98.6239 54.4081C98.0599 55.7514 97.2208 56.9569 96.1626 57.9443L96.1028 58L96.0224 57.9911C93.0935 57.6652 90.1913 57.1267 87.338 56.3799L87.2287 56.3514L87.2069 56.239C86.9938 55.1744 86.8834 54.0912 86.8774 53.0048C86.8774 49.611 88.0869 46.7547 90.2833 44.9618C92.6738 43.0103 96.1007 42.4101 99.9359 43.2709H112.199C113.548 43.2724 114.84 43.818 115.793 44.7878C116.747 45.7576 117.283 47.0725 117.285 48.444V56.3441L117.151 56.3797C112.3 57.6765 107.306 58.3351 102.291 58.3396Z" fill="#2F2E41"/>
<path d="M16.8056 44.1631C16.2566 44.3674 15.8097 44.7848 15.5628 45.3239C15.316 45.8629 15.2895 46.4795 15.489 47.0385L28.7188 83.9667C28.9195 84.5252 29.3299 84.9798 29.8598 85.2309C30.3896 85.482 30.9958 85.509 31.5452 85.3061L82.8921 66.2698C83.4411 66.0655 83.888 65.6481 84.1348 65.109C84.3816 64.57 84.4082 63.9533 84.2086 63.3944L70.9789 26.4662C70.7781 25.9077 70.3678 25.453 69.8379 25.2019C69.308 24.9508 68.7019 24.9238 68.1524 25.1268L16.8056 44.1631Z" fill="#CCCCCC"/>
<path d="M63.7816 71.3188L32.352 82.971C31.7607 83.1895 31.1083 83.1604 30.538 82.8902C29.9677 82.6199 29.526 82.1306 29.31 81.5295L17.3107 48.0359C17.0959 47.4343 17.1245 46.7707 17.3901 46.1905C17.6557 45.6103 18.1368 45.1611 18.7276 44.9412L67.173 26.9806C67.7644 26.7621 68.4168 26.7912 68.9871 27.0615C69.5574 27.3317 69.9991 27.821 70.2151 28.4221L76.0131 44.6059C77.8669 49.7986 77.6202 55.5273 75.3271 60.5352C73.0341 65.5431 68.8819 69.4213 63.7816 71.3188Z" fill="#E6E6E6"/>
<path d="M41.1665 47.1226L33.6978 49.8915C33.6041 49.9262 33.5046 49.9418 33.405 49.9375C33.3054 49.9331 33.2077 49.9088 33.1173 49.866C33.0269 49.8231 32.9457 49.7626 32.8784 49.6879C32.811 49.6132 32.7587 49.5257 32.7246 49.4304C32.6905 49.3351 32.6751 49.2339 32.6794 49.1326C32.6837 49.0313 32.7076 48.9318 32.7497 48.8399C32.7918 48.748 32.8513 48.6654 32.9247 48.5968C32.9982 48.5283 33.0842 48.4751 33.1779 48.4404L40.6466 45.6714C40.8358 45.6013 41.0446 45.6105 41.2271 45.697C41.4096 45.7835 41.5509 45.9401 41.6198 46.1326C41.6887 46.325 41.6797 46.5374 41.5947 46.7231C41.5097 46.9087 41.3557 47.0524 41.1665 47.1226Z" fill="#6C63FF"/>
<path d="M58.9718 43.883L34.7606 52.8591C34.667 52.894 34.5674 52.9097 34.4677 52.9054C34.3681 52.9011 34.2702 52.8769 34.1797 52.8341C34.0893 52.7913 34.008 52.7308 33.9405 52.656C33.8731 52.5812 33.8208 52.4936 33.7866 52.3983C33.7524 52.3029 33.7371 52.2017 33.7414 52.1003C33.7458 51.9989 33.7697 51.8993 33.8119 51.8074C33.8541 51.7154 33.9137 51.6328 33.9873 51.5642C34.0609 51.4957 34.147 51.4426 34.2408 51.408L58.452 42.4319C58.5456 42.3972 58.6451 42.3816 58.7447 42.386C58.8443 42.3904 58.9421 42.4147 59.0324 42.4575C59.1228 42.5003 59.204 42.5608 59.2714 42.6355C59.3387 42.7103 59.391 42.7978 59.4251 42.8931C59.4593 42.9883 59.4746 43.0895 59.4703 43.1909C59.466 43.2922 59.4421 43.3916 59.4 43.4836C59.3579 43.5755 59.2985 43.6581 59.225 43.7266C59.1515 43.7952 59.0655 43.8483 58.9718 43.883Z" fill="#6C63FF"/>
<path d="M60.1921 47.2895L35.981 56.2655C35.8873 56.3002 35.7878 56.3158 35.6882 56.3115C35.5886 56.3071 35.4909 56.2828 35.4005 56.24C35.3101 56.1972 35.2289 56.1366 35.1616 56.0619C35.0942 55.9872 35.0419 55.8997 35.0078 55.8044C34.9737 55.7091 34.9583 55.6079 34.9626 55.5066C34.9669 55.4053 34.9908 55.3058 35.0329 55.2139C35.075 55.122 35.1345 55.0394 35.2079 54.9708C35.2814 54.9023 35.3674 54.8491 35.4611 54.8144L59.6723 45.8384C59.8614 45.7685 60.07 45.7779 60.2523 45.8644C60.4346 45.9509 60.5757 46.1075 60.6446 46.2998C60.7135 46.4921 60.7045 46.7043 60.6197 46.8899C60.5348 47.0754 60.3811 47.2191 60.1921 47.2895Z" fill="#6C63FF"/>
<path d="M61.4127 50.6958L37.2016 59.6718C37.1079 59.7067 37.0083 59.7225 36.9087 59.7182C36.809 59.7139 36.7111 59.6896 36.6207 59.6468C36.5302 59.604 36.4489 59.5435 36.3814 59.4687C36.314 59.394 36.2617 59.3064 36.2275 59.211C36.1934 59.1157 36.178 59.0144 36.1824 58.913C36.1867 58.8116 36.2106 58.7121 36.2528 58.6201C36.295 58.5281 36.3546 58.4455 36.4282 58.377C36.5018 58.3085 36.5879 58.2554 36.6817 58.2207L60.8929 49.2447C60.9865 49.21 61.086 49.1943 61.1856 49.1987C61.2852 49.2031 61.383 49.2274 61.4733 49.2702C61.5637 49.313 61.6449 49.3735 61.7123 49.4483C61.7797 49.523 61.8319 49.6105 61.866 49.7058C61.9002 49.8011 61.9155 49.9023 61.9112 50.0036C61.9069 50.1049 61.883 50.2044 61.841 50.2963C61.7989 50.3882 61.7394 50.4708 61.6659 50.5394C61.5924 50.6079 61.5064 50.6611 61.4127 50.6958Z" fill="#6C63FF"/>
<path d="M62.6331 54.102L38.4219 63.0781C38.2327 63.1482 38.0239 63.139 37.8414 63.0525C37.6589 62.9661 37.5177 62.8094 37.4487 62.617C37.3798 62.4245 37.3888 62.2121 37.4738 62.0265C37.5588 61.8408 37.7129 61.6971 37.902 61.627L62.1132 52.6509C62.2069 52.6162 62.3063 52.6006 62.4059 52.605C62.5055 52.6094 62.6033 52.6336 62.6937 52.6765C62.784 52.7193 62.8652 52.7798 62.9326 52.8545C63 52.9293 63.0522 53.0168 63.0864 53.1121C63.1205 53.2073 63.1359 53.3085 63.1316 53.4098C63.1273 53.5112 63.1034 53.6106 63.0613 53.7026C63.0192 53.7945 62.9597 53.8771 62.8862 53.9456C62.8128 54.0142 62.7267 54.0673 62.6331 54.102Z" fill="#6C63FF"/>
<path d="M139.455 63.5622L126.199 95.8315C125.634 97.1969 124.563 98.2814 123.218 98.8509C121.874 99.4204 120.363 99.4293 119.012 98.8756C118.313 98.5891 117.678 98.1609 117.148 97.6169C116.617 97.073 116.2 96.4248 115.924 95.7117C115.647 94.9987 115.516 94.2359 115.539 93.4697C115.561 92.7035 115.737 91.95 116.055 91.2552L130.835 58.1647L138.983 37.6726C138.279 36.9583 137.808 36.0408 137.634 35.0448C137.461 34.0488 137.593 33.0226 138.012 32.1056C138.432 31.1885 139.119 30.4252 139.98 29.9192C140.841 29.4132 141.834 29.1891 142.825 29.2773C143.815 29.3656 144.755 29.7619 145.517 30.4125C146.278 31.063 146.824 31.9362 147.081 32.9135C147.337 33.8908 147.292 34.9247 146.951 35.8748C146.61 36.825 145.989 37.6452 145.174 38.2242L139.455 63.5622Z" fill="#FFB6B6"/>
</g>
<defs>
<clipPath id="clip0_52_528">
<rect width="168.9" height="195" fill="white" transform="translate(0.231934)"/>
</clipPath>
</defs>
</svg>
