<svg width="277" height="195" viewBox="0 0 277 195" fill="none" xmlns="http://www.w3.org/2000/svg">
<g clip-path="url(#clip0_52_313)">
<path d="M61.8419 19.5334H44.2219C42.528 19.5349 40.9038 20.2095 39.706 21.4092C38.5082 22.6089 37.8346 24.2356 37.833 25.9322V45.0648C37.6078 45.0513 37.3825 45.0311 37.1605 45.0042C32.9862 44.5643 29.0176 42.9652 25.7021 40.3873C22.3866 37.8093 19.8561 34.3549 18.396 30.4136C16.9358 26.4723 16.604 22.2008 17.438 18.0807C18.2719 13.9607 20.2385 10.1559 23.116 7.09533C25.9935 4.03478 29.6674 1.8402 33.7236 0.759019C37.7797 -0.322166 42.0568 -0.246958 46.0726 0.976168C50.0884 2.19929 53.6831 4.5217 56.4515 7.68152C59.22 10.8414 61.052 14.7129 61.7411 18.8598C61.778 19.0821 61.8117 19.3077 61.8419 19.5334Z" fill="#CCCCCC"/>
<path d="M269.852 18.8599H44.2221C42.3499 18.8619 40.555 19.6077 39.2312 20.9336C37.9073 22.2595 37.1627 24.0572 37.1606 25.9323V145.153C37.1627 147.028 37.9073 148.826 39.2312 150.152C40.555 151.478 42.3499 152.223 44.2221 152.226H269.852C271.724 152.223 273.519 151.478 274.843 150.152C276.167 148.826 276.911 147.028 276.913 145.153V25.9323C276.911 24.0572 276.167 22.2595 274.843 20.9336C273.519 19.6077 271.724 18.8619 269.852 18.8599ZM276.241 145.153C276.239 146.85 275.566 148.476 274.368 149.676C273.17 150.876 271.546 151.55 269.852 151.552H44.2221C42.5281 151.55 40.904 150.876 39.7061 149.676C38.5083 148.476 37.8347 146.85 37.8332 145.153V25.9323C37.8347 24.2357 38.5083 22.609 39.7061 21.4093C40.904 20.2096 42.5281 19.535 44.2221 19.5334H269.852C271.546 19.535 273.17 20.2096 274.368 21.4093C275.566 22.609 276.239 24.2357 276.241 25.9323V145.153Z" fill="#3F3D56"/>
<path d="M258.755 38.1809H55.3187C55.2295 38.1809 55.144 38.1454 55.0809 38.0823C55.0179 38.0191 54.9824 37.9334 54.9824 37.8441C54.9824 37.7548 55.0179 37.6691 55.0809 37.606C55.144 37.5428 55.2295 37.5073 55.3187 37.5073H258.755C258.845 37.5073 258.93 37.5428 258.993 37.606C259.056 37.6691 259.092 37.7548 259.092 37.8441C259.092 37.9334 259.056 38.0191 258.993 38.0823C258.93 38.1454 258.845 38.1809 258.755 38.1809Z" fill="#3F3D56"/>
<path d="M112.819 137.744C112.729 137.744 112.644 137.708 112.581 137.645C112.518 137.582 112.482 137.496 112.482 137.407V26.6058C112.482 26.5165 112.518 26.4308 112.581 26.3677C112.644 26.3045 112.729 26.269 112.819 26.269C112.908 26.269 112.993 26.3045 113.056 26.3677C113.12 26.4308 113.155 26.5165 113.155 26.6058V137.407C113.155 137.496 113.12 137.582 113.056 137.645C112.993 137.708 112.908 137.744 112.819 137.744Z" fill="#3F3D56"/>
<path d="M163.594 137.744C163.505 137.744 163.419 137.708 163.356 137.645C163.293 137.582 163.258 137.496 163.258 137.407V26.6058C163.258 26.5165 163.293 26.4308 163.356 26.3677C163.419 26.3045 163.505 26.269 163.594 26.269C163.683 26.269 163.769 26.3045 163.832 26.3677C163.895 26.4308 163.93 26.5165 163.93 26.6058V137.407C163.93 137.496 163.895 137.582 163.832 137.645C163.769 137.708 163.683 137.744 163.594 137.744Z" fill="#3F3D56"/>
<path d="M214.369 137.744C214.28 137.744 214.194 137.708 214.131 137.645C214.068 137.582 214.033 137.496 214.033 137.407V26.6058C214.033 26.5165 214.068 26.4308 214.131 26.3677C214.194 26.3045 214.28 26.269 214.369 26.269C214.458 26.269 214.544 26.3045 214.607 26.3677C214.67 26.4308 214.705 26.5165 214.705 26.6058V137.407C214.705 137.496 214.67 137.582 214.607 137.645C214.544 137.708 214.458 137.744 214.369 137.744Z" fill="#3F3D56"/>
<path d="M80.1731 72.9428H67.8862C67.485 72.9424 67.1004 72.7826 66.8167 72.4985C66.5331 72.2143 66.3735 71.8291 66.373 71.4273V56.9054C66.3735 56.5036 66.5331 56.1184 66.8167 55.8343C67.1004 55.5501 67.485 55.3903 67.8862 55.3899H80.1731C80.5743 55.3903 80.9589 55.5501 81.2426 55.8343C81.5263 56.1184 81.6858 56.5036 81.6863 56.9054V71.4273C81.6858 71.8291 81.5263 72.2143 81.2426 72.4985C80.9589 72.7826 80.5743 72.9424 80.1731 72.9428Z" fill="#6C63FF"/>
<path d="M97.659 114.367H85.3721C84.9709 114.366 84.5863 114.207 84.3026 113.923C84.0189 113.638 83.8593 113.253 83.8589 112.851V98.3295C83.8593 97.9277 84.0189 97.5425 84.3026 97.2583C84.5863 96.9742 84.9709 96.8144 85.3721 96.814H97.659C98.0601 96.8144 98.4448 96.9742 98.7284 97.2583C99.0121 97.5425 99.1717 97.9277 99.1721 98.3295V112.851C99.1717 113.253 99.0121 113.638 98.7284 113.923C98.4448 114.207 98.0601 114.366 97.659 114.367Z" fill="#6C63FF"/>
<path d="M137.338 81.6992H125.051C124.65 81.6987 124.265 81.5389 123.981 81.2548C123.698 80.9707 123.538 80.5855 123.538 80.1837V65.6618C123.538 65.26 123.698 64.8747 123.981 64.5906C124.265 64.3065 124.65 64.1467 125.051 64.1462H137.338C137.739 64.1467 138.123 64.3065 138.407 64.5906C138.691 64.8747 138.85 65.26 138.851 65.6618V80.1837C138.85 80.5855 138.691 80.9707 138.407 81.2548C138.123 81.5389 137.739 81.6987 137.338 81.6992Z" fill="#6C63FF"/>
<path d="M188.785 65.8703H176.498C176.097 65.8699 175.712 65.7101 175.429 65.4259C175.145 65.1418 174.985 64.7566 174.985 64.3548V49.8329C174.985 49.4311 175.145 49.0459 175.429 48.7618C175.712 48.4776 176.097 48.3178 176.498 48.3174H188.785C189.186 48.3178 189.571 48.4776 189.854 48.7618C190.138 49.0459 190.298 49.4311 190.298 49.8329V64.3548C190.298 64.7566 190.138 65.1418 189.854 65.4259C189.571 65.7101 189.186 65.8699 188.785 65.8703Z" fill="#6C63FF"/>
<path d="M236.198 65.8703H223.911C223.509 65.8699 223.125 65.7101 222.841 65.4259C222.557 65.1418 222.398 64.7566 222.397 64.3548V49.8329C222.398 49.4311 222.557 49.0459 222.841 48.7618C223.125 48.4776 223.509 48.3178 223.911 48.3174H236.198C236.599 48.3178 236.983 48.4776 237.267 48.7618C237.551 49.0459 237.71 49.4311 237.711 49.8329V64.3548C237.71 64.7566 237.551 65.1418 237.267 65.4259C236.983 65.7101 236.599 65.8699 236.198 65.8703Z" fill="#6C63FF"/>
<path d="M258.054 69.9116H245.768C245.366 69.9111 244.982 69.7513 244.698 69.4672C244.414 69.1831 244.255 68.7979 244.254 68.3961V53.8742C244.255 53.4724 244.414 53.0871 244.698 52.803C244.982 52.5189 245.366 52.3591 245.768 52.3586H258.054C258.456 52.3591 258.84 52.5189 259.124 52.803C259.408 53.0871 259.567 53.4724 259.568 53.8742V68.3961C259.567 68.7979 259.408 69.1831 259.124 69.4672C258.84 69.7513 258.456 69.9111 258.054 69.9116Z" fill="#E6E6E6"/>
<path d="M248.303 95.844H236.016C235.615 95.8435 235.23 95.6837 234.947 95.3996C234.663 95.1155 234.503 94.7302 234.503 94.3284V79.8065C234.503 79.4047 234.663 79.0195 234.947 78.7354C235.23 78.4513 235.615 78.2915 236.016 78.291H248.303C248.704 78.2915 249.089 78.4513 249.372 78.7354C249.656 79.0195 249.816 79.4047 249.816 79.8065V94.3284C249.816 94.7303 249.656 95.1155 249.372 95.3996C249.089 95.6837 248.704 95.8435 248.303 95.844Z" fill="#E6E6E6"/>
<path d="M206.607 90.4553H194.32C193.919 90.4548 193.534 90.295 193.25 90.0109C192.967 89.7268 192.807 89.3416 192.807 88.9398V74.4179C192.807 74.0161 192.967 73.6308 193.25 73.3467C193.534 73.0626 193.919 72.9028 194.32 72.9023H206.607C207.008 72.9028 207.392 73.0626 207.676 73.3467C207.96 73.6308 208.119 74.0161 208.12 74.4179V88.9398C208.119 89.3416 207.96 89.7268 207.676 90.0109C207.392 90.295 207.008 90.4548 206.607 90.4553Z" fill="#FF6584"/>
<path d="M182.732 95.844H170.445C170.044 95.8435 169.659 95.6837 169.376 95.3996C169.092 95.1155 168.933 94.7302 168.932 94.3284V79.8065C168.933 79.4047 169.092 79.0195 169.376 78.7354C169.659 78.4513 170.044 78.2915 170.445 78.291H182.732C183.133 78.2915 183.518 78.4513 183.802 78.7354C184.085 79.0195 184.245 79.4047 184.245 79.8065V94.3284C184.245 94.7303 184.085 95.1155 183.802 95.3996C183.518 95.6837 183.133 95.8435 182.732 95.844Z" fill="#E6E6E6"/>
<path d="M131.285 118.745H118.998C118.597 118.745 118.212 118.585 117.929 118.301C117.645 118.017 117.485 117.631 117.485 117.23V102.708C117.485 102.306 117.645 101.921 117.929 101.637C118.212 101.352 118.597 101.193 118.998 101.192H131.285C131.686 101.193 132.071 101.352 132.354 101.637C132.638 101.921 132.798 102.306 132.798 102.708V117.23C132.798 117.631 132.638 118.017 132.354 118.301C132.071 118.585 131.686 118.745 131.285 118.745Z" fill="#E6E6E6"/>
<path d="M69.0769 99.5485H56.79C56.3888 99.5481 56.0042 99.3883 55.7205 99.1042C55.4369 98.82 55.2773 98.4348 55.2769 98.033V83.5111C55.2773 83.1093 55.4369 82.7241 55.7205 82.44C56.0042 82.1559 56.3888 81.9961 56.79 81.9956H69.0769C69.4781 81.9961 69.8627 82.1559 70.1464 82.44C70.4301 82.7241 70.5896 83.1093 70.5901 83.5111V98.033C70.5896 98.4348 70.4301 98.8201 70.1464 99.1042C69.8627 99.3883 69.4781 99.5481 69.0769 99.5485Z" fill="#FF6584"/>
<path d="M103.712 72.9428H91.4248C91.0236 72.9424 90.639 72.7826 90.3553 72.4985C90.0716 72.2143 89.9121 71.8291 89.9116 71.4273V56.9054C89.9121 56.5036 90.0716 56.1184 90.3553 55.8343C90.639 55.5501 91.0236 55.3903 91.4248 55.3899H103.712C104.113 55.3903 104.497 55.5501 104.781 55.8343C105.065 56.1184 105.224 56.5036 105.225 56.9054V71.4273C105.224 71.8291 105.065 72.2143 104.781 72.4985C104.497 72.7826 104.113 72.9424 103.712 72.9428Z" fill="#E6E6E6"/>
<path d="M93.6519 32.6679H74.4852C74.1284 32.6679 73.7863 32.526 73.5341 32.2733C73.2818 32.0207 73.1401 31.678 73.1401 31.3208C73.1401 30.9635 73.2818 30.6208 73.5341 30.3682C73.7863 30.1156 74.1284 29.9736 74.4852 29.9736H93.6519C94.0087 29.9736 94.3508 30.1156 94.603 30.3682C94.8553 30.6208 94.997 30.9635 94.997 31.3208C94.997 31.678 94.8553 32.0207 94.603 32.2733C94.3508 32.526 94.0087 32.6679 93.6519 32.6679Z" fill="#CCCCCC"/>
<path d="M147.79 32.6679H128.623C128.266 32.6679 127.924 32.526 127.672 32.2733C127.42 32.0207 127.278 31.678 127.278 31.3208C127.278 30.9635 127.42 30.6208 127.672 30.3682C127.924 30.1156 128.266 29.9736 128.623 29.9736H147.79C148.146 29.9736 148.488 30.1156 148.741 30.3682C148.993 30.6208 149.135 30.9635 149.135 31.3208C149.135 31.678 148.993 32.0207 148.741 32.2733C148.488 32.526 148.146 32.6679 147.79 32.6679Z" fill="#CCCCCC"/>
<path d="M198.565 32.6679H179.398C179.042 32.6679 178.699 32.526 178.447 32.2733C178.195 32.0207 178.053 31.678 178.053 31.3208C178.053 30.9635 178.195 30.6208 178.447 30.3682C178.699 30.1156 179.042 29.9736 179.398 29.9736H198.565C198.922 29.9736 199.264 30.1156 199.516 30.3682C199.768 30.6208 199.91 30.9635 199.91 31.3208C199.91 31.678 199.768 32.0207 199.516 32.2733C199.264 32.526 198.922 32.6679 198.565 32.6679Z" fill="#CCCCCC"/>
<path d="M245.978 32.6679H226.811C226.454 32.6679 226.112 32.526 225.86 32.2733C225.608 32.0207 225.466 31.678 225.466 31.3208C225.466 30.9635 225.608 30.6208 225.86 30.3682C226.112 30.1156 226.454 29.9736 226.811 29.9736H245.978C246.334 29.9736 246.676 30.1156 246.929 30.3682C247.181 30.6208 247.323 30.9635 247.323 31.3208C247.323 31.678 247.181 32.0207 246.929 32.2733C246.676 32.526 246.334 32.6679 245.978 32.6679Z" fill="#CCCCCC"/>
<path d="M50.723 131.308C50.231 131.26 49.7556 131.104 49.3302 130.852C48.9048 130.6 48.5398 130.258 48.2609 129.849C47.9819 129.44 47.7959 128.975 47.7159 128.486C47.6358 127.998 47.6637 127.498 47.7975 127.021L39.1782 118.985L43.7355 117.827L52.2111 124.712C52.9956 124.991 53.651 125.547 54.053 126.277C54.455 127.007 54.5757 127.859 54.3923 128.672C54.2089 129.485 53.734 130.203 53.0577 130.689C52.3815 131.175 51.5507 131.395 50.723 131.308Z" fill="#FFB8B8"/>
<path d="M62.6247 190.704H66.7472L68.7083 174.778H62.624L62.6247 190.704Z" fill="#FFB8B8"/>
<path d="M74.6977 194.537L61.7415 194.538L61.7412 189.524L69.6917 189.524C71.0193 189.524 72.2926 190.052 73.2314 190.992C74.1702 191.932 74.6977 193.208 74.6977 194.537Z" fill="#2F2E41"/>
<path d="M34.3589 187.723L38.3429 188.785L44.3286 173.9L38.4491 172.333L34.3589 187.723Z" fill="#FFB8B8"/>
<path d="M45.0415 194.539L32.5212 191.201L33.8088 186.356L41.4917 188.404C42.7747 188.746 43.8694 189.585 44.5351 190.735C45.2009 191.885 45.383 193.254 45.0415 194.539Z" fill="#2F2E41"/>
<path d="M67.8556 187.688H61.5651C61.1678 187.69 60.7843 187.542 60.4902 187.275C60.1961 187.007 60.0126 186.639 59.976 186.243L56.1572 146.525C56.1293 146.234 56.0011 145.962 55.7946 145.754C55.5881 145.547 55.3162 145.419 55.0253 145.39C54.7345 145.362 54.4428 145.435 54.2002 145.599C53.9576 145.762 53.7792 146.004 53.6955 146.285L42.6079 183.398C42.4906 183.792 42.2258 184.126 41.8687 184.33C41.5116 184.534 41.0898 184.591 40.6912 184.491L34.8393 183.025C34.635 182.974 34.4429 182.883 34.2739 182.758C34.105 182.632 33.9625 182.474 33.8548 182.293C33.747 182.111 33.6761 181.911 33.6462 181.702C33.6162 181.493 33.6277 181.281 33.6801 181.076C33.7756 180.703 43.2334 143.684 43.316 143.304C45.4589 127.486 48.0227 123.247 49.3999 120.97C49.514 120.782 49.6187 120.608 49.7131 120.445C49.8311 120.24 50.5579 118.207 51.0189 116.887C51.0788 116.672 51.1825 116.472 51.3234 116.299C51.4644 116.127 51.6395 115.985 51.8377 115.884C57.625 112.92 64.3961 114.972 66.3336 115.671C66.6548 115.784 66.9306 115.999 67.1198 116.282C72.9319 125.063 70.0796 176.058 69.4488 186.192C69.4225 186.597 69.2433 186.978 68.9474 187.256C68.6516 187.533 68.2612 187.688 67.8556 187.688Z" fill="#2F2E41"/>
<path d="M51.6221 87.0869C56.1834 87.0869 59.881 83.3835 59.881 78.8152C59.881 74.2468 56.1834 70.5435 51.6221 70.5435C47.0609 70.5435 43.3633 74.2468 43.3633 78.8152C43.3633 83.3835 47.0609 87.0869 51.6221 87.0869Z" fill="#FFB8B8"/>
<path d="M50.7473 118.493L50.688 118.435C50.5767 118.327 39.5727 107.53 40.9968 97.5463C41.6059 93.2761 45.0556 90.5476 50.9728 89.6553C53.1467 89.332 55.3641 89.8053 57.2174 90.9884C59.0707 92.1715 60.4353 93.9848 61.0605 96.095L66.9114 116.128L50.7473 118.493Z" fill="#CCCCCC"/>
<path d="M45.1153 126.172L37.2743 118.369C36.7382 117.832 36.3489 117.166 36.144 116.435C35.9391 115.704 35.9254 114.933 36.1042 114.195L39.9001 98.7306C40.0138 98.2672 40.2212 97.8321 40.5096 97.4522C40.798 97.0724 41.1611 96.7558 41.5766 96.5222C41.992 96.2886 42.4509 96.1428 42.9249 96.094C43.3988 96.0452 43.8777 96.0943 44.332 96.2383C45.1977 96.5178 45.9209 97.1239 46.3483 97.9281C46.7757 98.7324 46.8737 99.6717 46.6216 100.547L42.6253 114.152L49.0876 121.102L45.1153 126.172Z" fill="#CCCCCC"/>
<path d="M87.1716 99.54C86.9642 99.9894 86.6611 100.388 86.2833 100.707C85.9056 101.027 85.4626 101.259 84.9854 101.389C84.5083 101.518 84.0086 101.541 83.5216 101.456C83.0346 101.371 82.5721 101.18 82.1668 100.897L71.6992 106.331L72.1619 101.715L81.4416 95.9629C81.962 95.3124 82.7026 94.8757 83.523 94.7355C84.3434 94.5953 85.1867 94.7615 85.893 95.2024C86.5992 95.6433 87.1195 96.3284 87.3552 97.1279C87.5908 97.9273 87.5255 98.7855 87.1716 99.54Z" fill="#FFB8B8"/>
<path d="M81.0238 102.976L70.8196 107.392C70.1404 107.684 69.3977 107.796 68.6629 107.717C67.9282 107.638 67.226 107.371 66.6241 106.942L53.6482 97.6299C53.2609 97.352 52.9347 96.9974 52.6898 96.5882C52.4448 96.1789 52.2863 95.7236 52.2241 95.2505C52.1619 94.7774 52.1973 94.2966 52.3281 93.8378C52.4589 93.3789 52.6824 92.9518 52.9846 92.583C53.5653 91.8817 54.3959 91.4343 55.3003 91.3358C56.2046 91.2372 57.1118 91.4951 57.8296 92.0549L68.9559 100.825L77.7996 97.3986L81.0238 102.976Z" fill="#CCCCCC"/>
<path d="M52.9917 81.4658C54.0106 80.1873 55.9141 80.1185 57.3136 79.2751C59.1468 78.1704 59.9047 75.7016 59.314 73.6421C58.7232 71.5826 56.981 69.9776 54.9835 69.21C52.986 68.4424 50.7636 68.4329 48.6565 68.8039C45.5191 69.3564 42.4303 70.823 40.5168 73.3737C38.6033 75.9244 38.1164 79.66 39.8505 82.3363C40.6475 83.5663 41.8779 84.5817 42.1961 86.013C42.6138 87.8921 41.2978 89.7044 39.8879 91.0128C38.2817 92.5035 36.4389 93.752 35.0317 95.4324C33.6245 97.1128 32.6861 99.4085 33.3282 101.505C33.8662 103.262 35.4318 104.556 37.1486 105.205C38.8654 105.853 40.7352 105.946 42.5695 105.982C44.3507 106.017 46.2427 105.974 47.7432 105.012C49.3496 103.982 50.2072 102.029 50.2706 100.119C50.334 98.2103 49.697 96.3399 48.8433 94.6318C48.3345 93.6136 47.7428 92.6271 47.4047 91.54C47.0666 90.453 47.008 89.2195 47.5495 88.2184C48.1187 87.1661 49.2702 86.5315 50.4427 86.3007C50.5036 86.2887 50.5681 86.278 50.6355 86.2685C50.9691 86.2252 51.2905 86.1145 51.5802 85.9432C51.8699 85.7719 52.1219 85.5436 52.321 85.272C52.52 85.0004 52.662 84.6911 52.7384 84.363C52.8147 84.0349 52.8238 83.6946 52.7651 83.3629C52.6316 82.6171 52.6431 81.9033 52.9917 81.4658Z" fill="#2F2E41"/>
<path d="M163.107 191.056H158.985L157.023 175.131L163.108 175.131L163.107 191.056Z" fill="#A0616A"/>
<path d="M156.04 189.877H163.99V194.89H151.034C151.034 194.232 151.164 193.58 151.415 192.972C151.667 192.363 152.036 191.811 152.5 191.345C152.965 190.88 153.517 190.51 154.124 190.258C154.732 190.006 155.383 189.877 156.04 189.877Z" fill="#2F2E41"/>
<path d="M193.019 186.379L189.269 188.095L180.878 174.425L186.413 171.893L193.019 186.379Z" fill="#A0616A"/>
<path d="M186.102 188.247L193.334 184.939L195.413 189.499L183.628 194.891C183.355 194.292 183.202 193.645 183.179 192.987C183.155 192.329 183.261 191.673 183.491 191.056C183.721 190.439 184.07 189.873 184.518 189.391C184.965 188.909 185.504 188.521 186.102 188.247Z" fill="#2F2E41"/>
<path d="M181.014 137.359C181.409 137.061 181.734 136.68 181.966 136.243C182.198 135.806 182.332 135.323 182.357 134.829C182.383 134.334 182.3 133.84 182.114 133.381C181.929 132.923 181.645 132.51 181.283 132.173L186.129 121.16L179.973 122.205L176.315 132.503C175.789 133.149 175.519 133.967 175.555 134.799C175.592 135.632 175.931 136.423 176.511 137.021C177.09 137.62 177.868 137.985 178.698 138.047C179.528 138.109 180.352 137.864 181.014 137.359Z" fill="#A0616A"/>
<path d="M162.845 186.857H158.906C158.525 186.856 158.157 186.711 157.877 186.45C157.598 186.19 157.426 185.833 157.397 185.452L155.25 128.011C155.234 127.79 155.266 127.569 155.344 127.363C155.422 127.157 155.544 126.97 155.702 126.816C155.86 126.662 156.049 126.544 156.257 126.471C156.465 126.398 156.686 126.371 156.906 126.392L179.682 128.815C180.051 128.851 180.394 129.022 180.646 129.295C180.898 129.567 181.041 129.923 181.048 130.295L181.525 155.633C181.528 155.77 181.555 155.906 181.604 156.035L190.947 180.301C191.019 180.488 191.054 180.688 191.048 180.889C191.042 181.09 190.997 181.287 190.914 181.47C190.831 181.654 190.713 181.818 190.566 181.955C190.419 182.092 190.247 182.198 190.058 182.268L186.068 183.74C185.721 183.868 185.34 183.865 184.995 183.73C184.651 183.596 184.368 183.341 184.199 183.012L172.721 160.66C172.659 160.538 172.613 160.409 172.585 160.275L170.625 150.813C170.568 150.539 170.415 150.294 170.194 150.122C169.974 149.95 169.699 149.863 169.419 149.875C169.14 149.888 168.874 150 168.669 150.191C168.465 150.382 168.335 150.64 168.303 150.919L164.348 185.514C164.306 185.884 164.129 186.225 163.852 186.473C163.575 186.72 163.216 186.857 162.845 186.857Z" fill="#2F2E41"/>
<path d="M164.806 83.0971C169.367 83.0971 173.065 79.3938 173.065 74.8254C173.065 70.2571 169.367 66.5537 164.806 66.5537C160.244 66.5537 156.547 70.2571 156.547 74.8254C156.547 79.3938 160.244 83.0971 164.806 83.0971Z" fill="#A0616A"/>
<path d="M170.469 133.263C164.869 133.201 159.401 131.542 154.708 128.481L154.627 128.426L154.636 128.328L157.795 91.4787C157.904 90.2286 158.461 89.0602 159.363 88.1896C160.266 87.319 161.452 86.8052 162.704 86.743C166.798 86.5546 172.298 86.7922 175.242 88.9882C179.691 92.307 181.835 97.3047 181.125 102.699C179.652 113.887 181.32 128.978 181.515 130.662L181.529 130.784L181.419 130.835C177.989 132.433 174.252 133.261 170.469 133.263Z" fill="#6C63FF"/>
<path d="M181.477 130.724C181.245 130.724 181.014 130.675 180.801 130.581C180.588 130.487 180.397 130.35 180.24 130.178L178.433 128.204C178.238 127.99 178.101 127.728 178.036 127.446C177.971 127.163 177.979 126.868 178.06 126.589L182.18 112.625L175.912 99.4422C175.619 98.8251 175.547 98.1259 175.709 97.4621C175.851 96.8794 176.166 96.3536 176.613 95.9541C177.06 95.5545 177.617 95.2999 178.211 95.2239C178.805 95.1479 179.408 95.254 179.941 95.5283C180.473 95.8026 180.91 96.2321 181.194 96.7603L189.7 110.582C190.045 111.143 190.248 111.78 190.29 112.438C190.333 113.095 190.213 113.753 189.942 114.354L183.012 129.733C182.898 129.987 182.722 130.209 182.501 130.378C182.28 130.548 182.02 130.659 181.745 130.703C181.657 130.717 181.567 130.724 181.477 130.724Z" fill="#6C63FF"/>
<path d="M123.263 104.05C123.66 104.345 124.117 104.55 124.601 104.65C125.085 104.749 125.585 104.741 126.066 104.627C126.547 104.512 126.997 104.293 127.384 103.985C127.771 103.677 128.086 103.288 128.307 102.845L140.223 104.393L137.485 98.7724L126.588 98.1642C125.821 97.8421 124.962 97.8131 124.174 98.0829C123.387 98.3527 122.726 98.9023 122.316 99.6278C121.906 100.353 121.776 101.204 121.951 102.019C122.125 102.834 122.592 103.557 123.263 104.05Z" fill="#A0616A"/>
<path d="M149.529 107.119C149.322 107.119 149.114 107.105 148.909 107.076L130.162 104.472C129.856 104.43 129.565 104.312 129.315 104.129C129.066 103.946 128.866 103.704 128.733 103.424C128.69 103.334 128.654 103.241 128.626 103.145C128.553 102.897 128.533 102.636 128.566 102.379C128.6 102.122 128.686 101.875 128.819 101.653L130.371 99.0766C130.537 98.8013 130.772 98.5736 131.052 98.4152C131.332 98.2568 131.648 98.1731 131.97 98.1721H131.972L148.313 98.1908L160.517 87.2396C161.085 86.7313 161.81 86.4341 162.571 86.3978C163.239 86.3668 163.9 86.5393 164.468 86.8926C165.036 87.2458 165.484 87.7632 165.753 88.3765C166.021 88.9898 166.098 89.6702 165.972 90.328C165.847 90.9857 165.525 91.59 165.05 92.061L152.872 105.626C152.451 106.096 151.935 106.472 151.359 106.729C150.783 106.986 150.16 107.119 149.529 107.119Z" fill="#6C63FF"/>
<path d="M165.744 82.1841C166.499 80.4347 167.138 78.1048 165.69 76.868C164.85 76.1505 163.641 76.149 162.541 76.0598C159.442 75.8083 156.251 74.38 154.736 71.6602C153.221 68.9404 154.067 64.8962 156.925 63.6691C158.852 62.8419 161.06 63.4054 163.077 63.9781L169.132 65.6977C170.931 66.2086 172.819 66.7721 174.115 68.123C176.18 70.2775 176.026 73.9196 174.385 76.4139C172.745 78.9083 170.274 81.5097 167.445 82.4567L165.744 82.1841Z" fill="#2F2E41"/>
<path d="M249.276 195H1.01775C0.965074 195 0.912888 194.99 0.864177 194.97C0.815467 194.95 0.771195 194.92 0.733893 194.883C0.696592 194.846 0.666995 194.801 0.646801 194.753C0.626608 194.704 0.616211 194.652 0.616211 194.599C0.616211 194.546 0.626608 194.494 0.646801 194.445C0.666995 194.397 0.696592 194.352 0.733893 194.315C0.771195 194.278 0.815467 194.248 0.864177 194.228C0.912888 194.208 0.965074 194.198 1.01775 194.198H249.276C249.328 194.198 249.381 194.208 249.429 194.228C249.478 194.248 249.522 194.278 249.56 194.315C249.597 194.352 249.626 194.397 249.647 194.445C249.667 194.494 249.677 194.546 249.677 194.599C249.677 194.652 249.667 194.704 249.647 194.753C249.626 194.801 249.597 194.846 249.56 194.883C249.522 194.92 249.478 194.95 249.429 194.97C249.381 194.99 249.328 195 249.276 195Z" fill="#3F3D56"/>
</g>
<defs>
<clipPath id="clip0_52_313">
<rect width="276.296" height="195" fill="white" transform="translate(0.617188)"/>
</clipPath>
</defs>
</svg>
