<svg width="294" height="195" viewBox="0 0 294 195" fill="none" xmlns="http://www.w3.org/2000/svg">
<g clip-path="url(#clip0_52_34)">
<path d="M145.837 33.1502C150.742 33.1502 154.718 29.105 154.718 24.1151C154.718 19.1252 150.742 15.0801 145.837 15.0801C140.932 15.0801 136.956 19.1252 136.956 24.1151C136.956 29.105 140.932 33.1502 145.837 33.1502Z" fill="#FD6584"/>
<path d="M165.713 19.8368C165.463 19.0013 164.978 18.2586 164.318 17.7001C163.658 17.1415 162.851 16.7916 161.998 16.6933C161.978 16.6916 161.958 16.6916 161.938 16.6933C161.914 16.6857 161.89 16.68 161.865 16.6764C158.892 16.2838 155.585 17.2381 153.36 19.3157C152.534 20.0748 151.874 21.0016 151.421 22.0363C151.009 21.4631 150.465 21.0008 149.837 20.6895C149.21 20.3782 148.517 20.2272 147.819 20.2497C146.919 20.3102 146.059 20.6517 145.357 21.2276C144.654 21.8035 144.144 22.5857 143.894 23.4677C143.867 23.5754 143.874 23.6893 143.916 23.7923C143.957 23.8954 144.03 23.9821 144.124 24.0395C144.391 24.2723 144.709 24.437 145.052 24.52C145.787 24.6791 146.528 24.8246 147.27 24.9566C148.72 25.2137 150.178 25.4224 151.644 25.5826C152.612 25.6875 153.582 25.7709 154.554 25.833C156.563 25.9615 158.582 25.992 160.595 25.9277C161.592 25.8939 162.55 25.86 163.462 25.4134C164.126 25.0811 164.693 24.5784 165.108 23.9549C165.499 23.3552 165.755 22.6757 165.86 21.9642C165.964 21.2527 165.914 20.5266 165.713 19.8368Z" fill="#E6E6E6"/>
<path d="M147.443 32.9999C147.426 32.6213 147.364 32.2463 147.257 31.8832C147.005 31.0478 146.519 30.3053 145.859 29.7469C145.198 29.1884 144.392 28.8384 143.538 28.7397C143.519 28.738 143.501 28.738 143.482 28.7397C143.457 28.7324 143.431 28.7268 143.405 28.7227C141.759 28.5176 140.089 28.6923 138.519 29.2337C136.104 30.056 133.986 31.714 132.965 34.0827C132.552 33.5091 132.007 33.0467 131.379 32.7353C130.751 32.424 130.057 32.2732 129.359 32.296C128.459 32.3566 127.599 32.6981 126.897 33.274C126.194 33.8498 125.684 34.6321 125.434 35.5141C125.408 35.6218 125.417 35.7352 125.458 35.8379C125.499 35.9406 125.571 36.0274 125.664 36.0859C125.932 36.318 126.25 36.4827 126.592 36.5664C127.33 36.7255 128.068 36.871 128.814 37.0029C130.264 37.2601 131.721 37.4688 133.184 37.6289C136.157 37.9537 139.149 38.069 142.138 37.9741C143.132 37.9402 144.094 37.9064 145.005 37.4598C145.668 37.1274 146.235 36.6246 146.648 36.0013C147.231 35.1174 147.511 34.0622 147.443 32.9999Z" fill="#E6E6E6"/>
<path d="M263.109 142.632C263.236 148.792 262.401 154.934 260.633 160.828C260.571 161.042 260.497 161.256 260.423 161.47H223.983C224.504 158.86 225.331 156.324 226.447 153.915C229.479 147.367 234.43 141.763 239.319 136.197C246.052 128.529 252.625 120.923 253.665 110.95C256.334 115.089 258.464 119.563 260.002 124.26C258.119 124.97 256.391 126.048 254.915 127.433C254.506 127.823 254.073 128.39 254.284 128.932C254.482 129.385 255.026 129.536 255.509 129.637C256.672 129.863 257.836 130.09 258.999 130.304C259.915 130.493 260.844 130.669 261.772 130.846C262.588 134.722 263.035 138.669 263.109 142.632Z" fill="#CCCCCC"/>
<path d="M293.718 138.552C287.876 142.166 284.163 147.757 281.13 154.015C278.492 154.627 276.055 155.929 274.063 157.793C273.642 158.183 273.209 158.75 273.432 159.291C273.617 159.745 274.174 159.896 274.657 159.996C275.808 160.223 276.984 160.45 278.135 160.664C278.024 160.928 277.912 161.205 277.801 161.47H239.183C240.936 159.064 242.877 156.807 244.988 154.72C245.446 154.254 245.916 153.814 246.399 153.36C251.322 148.834 256.975 145.205 263.109 142.632C272.772 138.522 283.34 137.113 293.718 138.552Z" fill="#CCCCCC"/>
<path d="M245.619 161.47H211.234C211.047 158.669 211.063 155.857 211.284 153.058C212.658 135.769 221.904 119.299 235.853 109.325C234.071 115.785 234.987 122.207 236.843 128.654C236.584 128.743 236.324 128.818 236.088 128.919C234.205 129.629 232.477 130.707 231.001 132.092C230.593 132.483 230.16 133.049 230.37 133.591C230.556 134.044 231.113 134.195 231.595 134.296C232.759 134.522 233.922 134.749 235.073 134.963C236.002 135.152 236.93 135.328 237.858 135.517C238.292 135.593 238.725 135.681 239.158 135.769C239.22 135.92 239.257 136.059 239.319 136.197C241.497 142.304 243.874 148.462 244.988 154.72C245.264 156.291 245.454 157.876 245.557 159.468C245.594 160.135 245.619 160.802 245.619 161.47Z" fill="#CCCCCC"/>
<path d="M58.2195 142.632C58.3471 148.792 57.5116 154.934 55.744 160.828C55.6821 161.042 55.6078 161.256 55.5336 161.47H19.0942C19.6151 158.86 20.4421 156.324 21.5574 153.915C24.5898 147.367 29.5408 141.763 34.43 136.197C41.1633 128.529 47.7358 120.923 48.7755 110.95C51.4445 115.089 53.5747 119.563 55.1128 124.26C53.2297 124.97 51.5014 126.048 50.0257 127.433C49.6172 127.823 49.1839 128.39 49.3944 128.932C49.5924 129.385 50.137 129.536 50.6197 129.637C51.7832 129.863 52.9467 130.09 54.1102 130.304C55.0261 130.493 55.9544 130.669 56.8827 130.846C57.6987 134.722 58.1463 138.669 58.2195 142.632Z" fill="#CCCCCC"/>
<path d="M88.8292 138.552C82.9869 142.166 79.2737 147.757 76.2413 154.015C73.6024 154.627 71.1662 155.929 69.1737 157.793C68.7528 158.183 68.3196 158.75 68.5424 159.291C68.7281 159.745 69.2851 159.896 69.7678 159.996C70.9189 160.223 72.0948 160.45 73.2459 160.664C73.1345 160.928 73.0231 161.205 72.9117 161.47H34.2939C36.047 159.064 37.9883 156.807 40.099 154.72C40.557 154.254 41.0273 153.814 41.51 153.36C46.4328 148.834 52.0854 145.205 58.2197 142.632C67.8833 138.522 78.4509 137.113 88.8292 138.552Z" fill="#CCCCCC"/>
<path d="M40.7304 161.47H6.34573C6.15796 158.669 6.17453 155.857 6.39529 153.058C7.76918 135.769 17.0151 119.299 30.9646 109.325C29.1822 115.785 30.0981 122.207 31.9548 128.654C31.6949 128.743 31.4349 128.818 31.1998 128.919C29.3167 129.629 27.5884 130.707 26.1126 132.092C25.7042 132.483 25.271 133.049 25.4814 133.591C25.667 134.044 26.224 134.195 26.7067 134.296C27.8702 134.522 29.0337 134.749 30.1848 134.963C31.1131 135.152 32.0414 135.328 32.9697 135.517C33.4029 135.593 33.8362 135.681 34.2693 135.769C34.3312 135.92 34.3684 136.059 34.4303 136.197C36.6087 142.304 38.9852 148.462 40.0992 154.72C40.3749 156.291 40.565 157.876 40.6686 159.468C40.7057 160.135 40.7304 160.802 40.7304 161.47Z" fill="#CCCCCC"/>
<path d="M168.739 146.783L199.463 149.558L199.792 149.588V16.2186C199.682 16.1408 199.572 16.063 199.463 15.9852C193.06 11.4287 186.133 7.68557 178.837 4.83887L177.267 26.8675L177.124 28.8843L175.571 50.7302L175.092 57.4505L168.796 146.005L168.739 146.783Z" fill="#E6E6E6"/>
<path d="M92.7606 13.7348C92.5411 13.877 92.3216 14.0191 92.1021 14.168V149.588L92.7606 149.527L123.151 146.783L123.095 146.005L116.798 57.4504L116.32 50.7301L114.766 28.8842L114.623 26.8674L112.977 3.76611C105.877 6.26992 99.0912 9.61588 92.7606 13.7348Z" fill="#E6E6E6"/>
<path d="M92.1022 14.168C91.6598 14.459 91.2175 14.7568 90.7817 15.0579V151.436C90.7817 154.843 92.7674 157.699 95.4217 158.427C95.8554 158.546 96.3028 158.607 96.7521 158.606H195.471C195.92 158.607 196.366 158.547 196.799 158.427C197.785 158.148 198.679 157.604 199.386 156.85C200.734 155.384 201.471 153.443 201.442 151.436V17.43C200.896 17.0205 200.347 16.6145 199.792 16.2186C199.682 16.1408 199.573 16.0629 199.463 15.9851V151.436C199.463 151.875 199.412 152.312 199.31 152.739C198.841 154.752 197.294 156.227 195.471 156.227H96.7521C94.5502 156.227 92.7608 154.079 92.7608 151.436V13.7349C92.5412 13.877 92.3217 14.0191 92.1022 14.168Z" fill="#E6E6E6"/>
<path d="M200.452 26.8689H91.77V28.8853H200.452V26.8689Z" fill="#E6E6E6"/>
<path d="M167.166 1.14714C166.507 0.981337 165.849 0.82568 165.184 0.680176V55.4337H167.166V1.14714Z" fill="#E6E6E6"/>
<path d="M127.039 0C126.378 0.125201 125.716 0.253788 125.057 0.392524V55.4337H127.039V0Z" fill="#E6E6E6"/>
<path d="M70.4624 155.077C70.4619 156.234 70.6799 157.38 71.1043 158.454C71.2674 158.87 71.462 159.273 71.6864 159.659C71.9763 160.161 72.3126 160.635 72.6909 161.073C73.5265 162.042 74.5557 162.818 75.7098 163.349C76.8639 163.881 78.1162 164.156 79.3831 164.156H209.538C211.903 164.156 214.172 163.2 215.845 161.498C217.518 159.796 218.458 157.487 218.458 155.08C218.458 152.673 217.518 150.365 215.845 148.663C214.172 146.961 211.903 146.005 209.538 146.005H79.3831C77.0184 146.007 74.7513 146.964 73.079 148.664C71.4066 150.365 70.4656 152.671 70.4624 155.077Z" fill="#E6E6E6"/>
<path d="M91.7704 57.4512L199.792 57.4512V50.7298L91.7704 50.7298V57.4512Z" fill="#E6E6E6"/>
<path d="M150.406 52.4102H141.156C141.156 51.4297 141.539 50.4894 142.221 49.7962C142.902 49.1029 143.826 48.7134 144.79 48.7134H146.772C147.249 48.7134 147.722 48.809 148.163 48.9948C148.603 49.1806 149.004 49.4529 149.341 49.7962C149.679 50.1394 149.947 50.547 150.129 50.9955C150.312 51.444 150.406 51.9247 150.406 52.4102Z" fill="#E6E6E6"/>
<path d="M0.966309 160.261C3.85579 163.744 6.9811 167.017 10.3194 170.057H278.598C281.936 167.017 285.061 163.744 287.951 160.261H0.966309Z" fill="#3F3D56"/>
<path d="M132.91 127.502V162.207H156.808V127.502C156.809 127.253 156.73 127.009 156.585 126.808C156.439 126.607 156.234 126.459 156 126.386C155.89 126.348 155.774 126.33 155.658 126.331H134.064C133.913 126.331 133.763 126.361 133.623 126.42C133.483 126.479 133.356 126.565 133.249 126.673C133.142 126.782 133.056 126.911 132.998 127.054C132.94 127.196 132.91 127.348 132.91 127.502ZM142.237 139.427C142.243 138.743 142.514 138.089 142.992 137.607C143.47 137.126 144.115 136.856 144.788 136.856C145.46 136.856 146.105 137.126 146.583 137.607C147.061 138.089 147.333 138.743 147.339 139.427V143.453C147.335 144.14 147.065 144.796 146.587 145.28C146.109 145.764 145.462 146.036 144.788 146.036C144.113 146.036 143.466 145.764 142.988 145.28C142.51 144.796 142.24 144.14 142.237 143.453V139.427Z" fill="#2F2E41"/>
<path d="M132.837 161.097V164.443C132.837 164.617 132.905 164.783 133.025 164.906C133.146 165.029 133.308 165.098 133.479 165.1H156.239C156.41 165.099 156.573 165.029 156.694 164.906C156.814 164.783 156.881 164.617 156.881 164.443V161.097H132.837Z" fill="#3F3D56"/>
<path d="M95.3149 75.2154V138.581C95.3156 139.388 95.6312 140.163 96.1924 140.734C96.7537 141.304 97.5147 141.626 98.3085 141.626H190.608C191.402 141.626 192.163 141.304 192.724 140.734C193.286 140.163 193.601 139.388 193.602 138.581V75.2154C193.6 74.4086 193.284 73.6354 192.723 73.0653C192.162 72.4951 191.401 72.1744 190.608 72.1733H98.3085C97.5154 72.1744 96.7551 72.4951 96.194 73.0653C95.6329 73.6354 95.3168 74.4086 95.3149 75.2154Z" fill="#3F3D56"/>
<path d="M97.4805 76.0038V137.799C97.4812 138.231 97.65 138.644 97.9499 138.949C98.2497 139.254 98.6562 139.426 99.0803 139.427H189.84C190.264 139.426 190.671 139.254 190.971 138.949C191.271 138.644 191.439 138.231 191.44 137.799V76.0038C191.44 75.5718 191.272 75.1575 190.972 74.8518C190.672 74.546 190.265 74.3737 189.84 74.3728H99.0803C98.6557 74.3737 98.2488 74.546 97.9489 74.8518C97.649 75.1575 97.4805 75.5718 97.4805 76.0038Z" fill="#6C63FF"/>
<path d="M115.987 165.888C116.079 166.006 116.197 166.101 116.331 166.166C116.464 166.231 116.611 166.265 116.759 166.264H170.755C170.903 166.264 171.048 166.23 171.182 166.165C171.315 166.101 171.432 166.007 171.525 165.89C171.618 165.773 171.685 165.637 171.719 165.491C171.754 165.345 171.757 165.193 171.726 165.046L170.888 160.995C170.853 160.83 170.778 160.676 170.67 160.548C170.562 160.42 170.425 160.321 170.269 160.261C170.157 160.216 170.037 160.193 169.917 160.193H117.594C117.473 160.193 117.353 160.216 117.241 160.261C117.086 160.321 116.948 160.42 116.84 160.548C116.732 160.676 116.657 160.83 116.622 160.995L115.784 165.046C115.754 165.193 115.757 165.345 115.792 165.49C115.827 165.636 115.894 165.772 115.987 165.888Z" fill="#2F2E41"/>
<path d="M168.033 161.938H169.371C169.46 161.938 169.533 161.864 169.533 161.773V161.088C169.533 160.997 169.46 160.923 169.371 160.923H168.033C167.943 160.923 167.87 160.997 167.87 161.088V161.773C167.87 161.864 167.943 161.938 168.033 161.938Z" fill="#3F3D56"/>
<path d="M164.706 161.938H166.045C166.134 161.938 166.207 161.864 166.207 161.773V161.088C166.207 160.997 166.134 160.923 166.045 160.923H164.706C164.617 160.923 164.544 160.997 164.544 161.088V161.773C164.544 161.864 164.617 161.938 164.706 161.938Z" fill="#3F3D56"/>
<path d="M161.38 161.938H162.718C162.808 161.938 162.881 161.864 162.881 161.773V161.088C162.881 160.997 162.808 160.923 162.718 160.923H161.38C161.29 160.923 161.218 160.997 161.218 161.088V161.773C161.218 161.864 161.29 161.938 161.38 161.938Z" fill="#3F3D56"/>
<path d="M158.054 161.938H159.392C159.482 161.938 159.555 161.864 159.555 161.773V161.088C159.555 160.997 159.482 160.923 159.392 160.923H158.054C157.964 160.923 157.892 160.997 157.892 161.088V161.773C157.892 161.864 157.964 161.938 158.054 161.938Z" fill="#3F3D56"/>
<path d="M154.728 161.938H156.066C156.156 161.938 156.229 161.864 156.229 161.773V161.088C156.229 160.997 156.156 160.923 156.066 160.923H154.728C154.638 160.923 154.565 160.997 154.565 161.088V161.773C154.565 161.864 154.638 161.938 154.728 161.938Z" fill="#3F3D56"/>
<path d="M151.402 161.938H152.74C152.83 161.938 152.902 161.864 152.902 161.773V161.088C152.902 160.997 152.83 160.923 152.74 160.923H151.402C151.312 160.923 151.239 160.997 151.239 161.088V161.773C151.239 161.864 151.312 161.938 151.402 161.938Z" fill="#3F3D56"/>
<path d="M148.075 161.938H149.414C149.503 161.938 149.576 161.864 149.576 161.773V161.088C149.576 160.997 149.503 160.923 149.414 160.923H148.075C147.986 160.923 147.913 160.997 147.913 161.088V161.773C147.913 161.864 147.986 161.938 148.075 161.938Z" fill="#3F3D56"/>
<path d="M144.75 161.938H146.088C146.178 161.938 146.25 161.864 146.25 161.773V161.088C146.25 160.997 146.178 160.923 146.088 160.923H144.75C144.66 160.923 144.587 160.997 144.587 161.088V161.773C144.587 161.864 144.66 161.938 144.75 161.938Z" fill="#3F3D56"/>
<path d="M141.424 161.938H142.762C142.852 161.938 142.924 161.864 142.924 161.773V161.088C142.924 160.997 142.852 160.923 142.762 160.923H141.424C141.334 160.923 141.261 160.997 141.261 161.088V161.773C141.261 161.864 141.334 161.938 141.424 161.938Z" fill="#3F3D56"/>
<path d="M138.097 161.938H139.436C139.525 161.938 139.598 161.864 139.598 161.773V161.088C139.598 160.997 139.525 160.923 139.436 160.923H138.097C138.008 160.923 137.935 160.997 137.935 161.088V161.773C137.935 161.864 138.008 161.938 138.097 161.938Z" fill="#3F3D56"/>
<path d="M134.771 161.938H136.11C136.199 161.938 136.272 161.864 136.272 161.773V161.088C136.272 160.997 136.199 160.923 136.11 160.923H134.771C134.682 160.923 134.609 160.997 134.609 161.088V161.773C134.609 161.864 134.682 161.938 134.771 161.938Z" fill="#3F3D56"/>
<path d="M131.445 161.938H132.783C132.873 161.938 132.946 161.864 132.946 161.773V161.088C132.946 160.997 132.873 160.923 132.783 160.923H131.445C131.355 160.923 131.283 160.997 131.283 161.088V161.773C131.283 161.864 131.355 161.938 131.445 161.938Z" fill="#3F3D56"/>
<path d="M128.119 161.938H129.457C129.547 161.938 129.62 161.864 129.62 161.773V161.088C129.62 160.997 129.547 160.923 129.457 160.923H128.119C128.029 160.923 127.957 160.997 127.957 161.088V161.773C127.957 161.864 128.029 161.938 128.119 161.938Z" fill="#3F3D56"/>
<path d="M124.793 161.938H126.131C126.221 161.938 126.293 161.864 126.293 161.773V161.088C126.293 160.997 126.221 160.923 126.131 160.923H124.793C124.703 160.923 124.63 160.997 124.63 161.088V161.773C124.63 161.864 124.703 161.938 124.793 161.938Z" fill="#3F3D56"/>
<path d="M121.467 161.938H122.805C122.895 161.938 122.967 161.864 122.967 161.773V161.088C122.967 160.997 122.895 160.923 122.805 160.923H121.467C121.377 160.923 121.304 160.997 121.304 161.088V161.773C121.304 161.864 121.377 161.938 121.467 161.938Z" fill="#3F3D56"/>
<path d="M118.14 161.938H119.479C119.568 161.938 119.641 161.864 119.641 161.773V161.088C119.641 160.997 119.568 160.923 119.479 160.923H118.14C118.051 160.923 117.978 160.997 117.978 161.088V161.773C117.978 161.864 118.051 161.938 118.14 161.938Z" fill="#3F3D56"/>
<path d="M168.072 163.63H169.41C169.5 163.63 169.572 163.556 169.572 163.465V162.78C169.572 162.689 169.5 162.615 169.41 162.615H168.072C167.982 162.615 167.909 162.689 167.909 162.78V163.465C167.909 163.556 167.982 163.63 168.072 163.63Z" fill="#3F3D56"/>
<path d="M164.745 163.63H166.084C166.173 163.63 166.246 163.556 166.246 163.465V162.78C166.246 162.689 166.173 162.615 166.084 162.615H164.745C164.656 162.615 164.583 162.689 164.583 162.78V163.465C164.583 163.556 164.656 163.63 164.745 163.63Z" fill="#3F3D56"/>
<path d="M161.42 163.63H162.758C162.848 163.63 162.92 163.556 162.92 163.465V162.78C162.92 162.689 162.848 162.615 162.758 162.615H161.42C161.33 162.615 161.257 162.689 161.257 162.78V163.465C161.257 163.556 161.33 163.63 161.42 163.63Z" fill="#3F3D56"/>
<path d="M158.094 163.63H159.432C159.522 163.63 159.594 163.556 159.594 163.465V162.78C159.594 162.689 159.522 162.615 159.432 162.615H158.094C158.004 162.615 157.931 162.689 157.931 162.78V163.465C157.931 163.556 158.004 163.63 158.094 163.63Z" fill="#3F3D56"/>
<path d="M154.767 163.63H156.106C156.195 163.63 156.268 163.556 156.268 163.465V162.78C156.268 162.689 156.195 162.615 156.106 162.615H154.767C154.678 162.615 154.605 162.689 154.605 162.78V163.465C154.605 163.556 154.678 163.63 154.767 163.63Z" fill="#3F3D56"/>
<path d="M151.441 163.63H152.78C152.869 163.63 152.942 163.556 152.942 163.465V162.78C152.942 162.689 152.869 162.615 152.78 162.615H151.441C151.352 162.615 151.279 162.689 151.279 162.78V163.465C151.279 163.556 151.352 163.63 151.441 163.63Z" fill="#3F3D56"/>
<path d="M148.115 163.63H149.453C149.543 163.63 149.616 163.556 149.616 163.465V162.78C149.616 162.689 149.543 162.615 149.453 162.615H148.115C148.025 162.615 147.953 162.689 147.953 162.78V163.465C147.953 163.556 148.025 163.63 148.115 163.63Z" fill="#3F3D56"/>
<path d="M144.789 163.63H146.127C146.217 163.63 146.29 163.556 146.29 163.465V162.78C146.29 162.689 146.217 162.615 146.127 162.615H144.789C144.699 162.615 144.626 162.689 144.626 162.78V163.465C144.626 163.556 144.699 163.63 144.789 163.63Z" fill="#3F3D56"/>
<path d="M141.463 163.63H142.801C142.891 163.63 142.963 163.556 142.963 163.465V162.78C142.963 162.689 142.891 162.615 142.801 162.615H141.463C141.373 162.615 141.3 162.689 141.3 162.78V163.465C141.3 163.556 141.373 163.63 141.463 163.63Z" fill="#3F3D56"/>
<path d="M138.137 163.63H139.475C139.564 163.63 139.637 163.556 139.637 163.465V162.78C139.637 162.689 139.564 162.615 139.475 162.615H138.137C138.047 162.615 137.974 162.689 137.974 162.78V163.465C137.974 163.556 138.047 163.63 138.137 163.63Z" fill="#3F3D56"/>
<path d="M134.81 163.63H136.149C136.238 163.63 136.311 163.556 136.311 163.465V162.78C136.311 162.689 136.238 162.615 136.149 162.615H134.81C134.721 162.615 134.648 162.689 134.648 162.78V163.465C134.648 163.556 134.721 163.63 134.81 163.63Z" fill="#3F3D56"/>
<path d="M131.484 163.63H132.822C132.912 163.63 132.985 163.556 132.985 163.465V162.78C132.985 162.689 132.912 162.615 132.822 162.615H131.484C131.394 162.615 131.322 162.689 131.322 162.78V163.465C131.322 163.556 131.394 163.63 131.484 163.63Z" fill="#3F3D56"/>
<path d="M128.158 163.63H129.497C129.586 163.63 129.659 163.556 129.659 163.465V162.78C129.659 162.689 129.586 162.615 129.497 162.615H128.158C128.069 162.615 127.996 162.689 127.996 162.78V163.465C127.996 163.556 128.069 163.63 128.158 163.63Z" fill="#3F3D56"/>
<path d="M124.832 163.63H126.171C126.26 163.63 126.333 163.556 126.333 163.465V162.78C126.333 162.689 126.26 162.615 126.171 162.615H124.832C124.743 162.615 124.67 162.689 124.67 162.78V163.465C124.67 163.556 124.743 163.63 124.832 163.63Z" fill="#3F3D56"/>
<path d="M121.506 163.63H122.844C122.934 163.63 123.007 163.556 123.007 163.465V162.78C123.007 162.689 122.934 162.615 122.844 162.615H121.506C121.416 162.615 121.344 162.689 121.344 162.78V163.465C121.344 163.556 121.416 163.63 121.506 163.63Z" fill="#3F3D56"/>
<path d="M118.18 163.63H119.518C119.608 163.63 119.681 163.556 119.681 163.465V162.78C119.681 162.689 119.608 162.615 119.518 162.615H118.18C118.09 162.615 118.018 162.689 118.018 162.78V163.465C118.018 163.556 118.09 163.63 118.18 163.63Z" fill="#3F3D56"/>
<path d="M140.465 165.66H153.445C153.534 165.66 153.607 165.586 153.607 165.495V164.81C153.607 164.719 153.534 164.645 153.445 164.645H140.465C140.375 164.645 140.302 164.719 140.302 164.81V165.495C140.302 165.586 140.375 165.66 140.465 165.66Z" fill="#3F3D56"/>
<path d="M103.641 82.8854H188.565C188.653 82.8834 188.737 82.8464 188.799 82.7821C188.86 82.7179 188.895 82.6317 188.895 82.5418C188.895 82.452 188.86 82.3657 188.799 82.3015C188.737 82.2373 188.653 82.2002 188.565 82.1982H103.641C103.553 82.2002 103.469 82.2373 103.407 82.3015C103.345 82.3657 103.311 82.452 103.311 82.5418C103.311 82.6317 103.345 82.7179 103.407 82.7821C103.469 82.8464 103.553 82.8834 103.641 82.8854Z" fill="#3F3D56"/>
<path d="M182.784 80.4442C183.877 80.4442 184.763 79.5226 184.763 78.3858C184.763 77.249 183.877 76.3274 182.784 76.3274C181.691 76.3274 180.805 77.249 180.805 78.3858C180.805 79.5226 181.691 80.4442 182.784 80.4442Z" fill="#3F3D56"/>
<path d="M175.946 80.4442C177.04 80.4442 177.926 79.5226 177.926 78.3858C177.926 77.249 177.04 76.3274 175.946 76.3274C174.853 76.3274 173.967 77.249 173.967 78.3858C173.967 79.5226 174.853 80.4442 175.946 80.4442Z" fill="#3F3D56"/>
<path d="M169.11 80.4442C170.203 80.4442 171.089 79.5226 171.089 78.3858C171.089 77.249 170.203 76.3274 169.11 76.3274C168.016 76.3274 167.13 77.249 167.13 78.3858C167.13 79.5226 168.016 80.4442 169.11 80.4442Z" fill="#3F3D56"/>
<path d="M107.396 77.212C107.395 77.2607 107.404 77.3089 107.423 77.354C107.441 77.399 107.467 77.44 107.501 77.4746C107.535 77.5091 107.575 77.5366 107.619 77.5554C107.663 77.5742 107.71 77.584 107.758 77.5843H112.614C112.71 77.582 112.802 77.5416 112.869 77.4717C112.936 77.4018 112.973 77.308 112.973 77.2103C112.973 77.1127 112.936 77.0188 112.869 76.949C112.802 76.8791 112.71 76.8387 112.614 76.8364H107.758C107.661 76.8376 107.569 76.8778 107.501 76.9482C107.433 77.0185 107.395 77.1134 107.396 77.212Z" fill="#3F3D56"/>
<path d="M107.396 78.6163C107.395 78.665 107.404 78.7132 107.423 78.7583C107.441 78.8033 107.467 78.8443 107.501 78.8788C107.535 78.9134 107.575 78.9409 107.619 78.9597C107.663 78.9785 107.71 78.9883 107.758 78.9885H112.614C112.71 78.9864 112.802 78.946 112.869 78.8761C112.936 78.8063 112.974 78.7124 112.974 78.6146C112.974 78.5169 112.936 78.423 112.869 78.3531C112.802 78.2832 112.71 78.2429 112.614 78.2407H107.758C107.661 78.2419 107.569 78.2821 107.501 78.3525C107.433 78.4228 107.395 78.5177 107.396 78.6163Z" fill="#3F3D56"/>
<path d="M107.396 80.0172C107.395 80.1159 107.433 80.2107 107.501 80.2811C107.569 80.3515 107.661 80.3916 107.758 80.3928H112.614C112.71 80.3906 112.802 80.3502 112.869 80.2803C112.936 80.2104 112.973 80.1166 112.973 80.0189C112.973 79.9212 112.936 79.8274 112.869 79.7576C112.802 79.6877 112.71 79.6473 112.614 79.645H107.758C107.71 79.6452 107.663 79.655 107.619 79.6739C107.575 79.6927 107.535 79.7202 107.501 79.7547C107.467 79.7893 107.441 79.8303 107.423 79.8753C107.404 79.9203 107.395 79.9686 107.396 80.0172Z" fill="#3F3D56"/>
<path d="M108.896 90.8701H107.151C106.622 90.8701 106.193 91.3064 106.193 91.8446C106.193 92.3829 106.622 92.8192 107.151 92.8192H108.896C109.425 92.8192 109.854 92.3829 109.854 91.8446C109.854 91.3064 109.425 90.8701 108.896 90.8701Z" fill="#E6E6E6"/>
<path d="M128.853 90.8701H127.108C126.579 90.8701 126.15 91.3064 126.15 91.8446C126.15 92.3829 126.579 92.8192 127.108 92.8192H128.853C129.382 92.8192 129.811 92.3829 129.811 91.8446C129.811 91.3064 129.382 90.8701 128.853 90.8701Z" fill="#E6E6E6"/>
<path d="M134.508 90.8701H132.763C132.234 90.8701 131.805 91.3064 131.805 91.8446C131.805 92.3829 132.234 92.8192 132.763 92.8192H134.508C135.037 92.8192 135.465 92.3829 135.465 91.8446C135.465 91.3064 135.037 90.8701 134.508 90.8701Z" fill="#E6E6E6"/>
<path d="M123.425 90.7078H112.579C112.05 90.7078 111.622 91.1441 111.622 91.6823C111.622 92.2205 112.05 92.6568 112.579 92.6568H123.425C123.954 92.6568 124.382 92.2205 124.382 91.6823C124.382 91.1441 123.954 90.7078 123.425 90.7078Z" fill="#E6E6E6"/>
<path d="M150.033 90.7078H139.188C138.659 90.7078 138.23 91.1441 138.23 91.6823C138.23 92.2205 138.659 92.6568 139.188 92.6568H150.033C150.562 92.6568 150.991 92.2205 150.991 91.6823C150.991 91.1441 150.562 90.7078 150.033 90.7078Z" fill="#E6E6E6"/>
<path d="M114.218 95.269H112.473C111.944 95.269 111.515 95.7053 111.515 96.2436C111.515 96.7818 111.944 97.2181 112.473 97.2181H114.218C114.747 97.2181 115.176 96.7818 115.176 96.2436C115.176 95.7053 114.747 95.269 114.218 95.269Z" fill="#E6E6E6"/>
<path d="M134.175 95.269H132.43C131.901 95.269 131.472 95.7053 131.472 96.2436C131.472 96.7818 131.901 97.2181 132.43 97.2181H134.175C134.704 97.2181 135.133 96.7818 135.133 96.2436C135.133 95.7053 134.704 95.269 134.175 95.269Z" fill="#E6E6E6"/>
<path d="M139.829 95.269H138.084C137.555 95.269 137.126 95.7053 137.126 96.2436C137.126 96.7818 137.555 97.2181 138.084 97.2181H139.829C140.358 97.2181 140.787 96.7818 140.787 96.2436C140.787 95.7053 140.358 95.269 139.829 95.269Z" fill="#E6E6E6"/>
<path d="M128.746 95.1067H117.901C117.372 95.1067 116.943 95.543 116.943 96.0812C116.943 96.6194 117.372 97.0557 117.901 97.0557H128.746C129.275 97.0557 129.704 96.6194 129.704 96.0812C129.704 95.543 129.275 95.1067 128.746 95.1067Z" fill="#E6E6E6"/>
<path d="M155.356 95.1067H144.511C143.982 95.1067 143.553 95.543 143.553 96.0812C143.553 96.6194 143.982 97.0557 144.511 97.0557H155.356C155.885 97.0557 156.314 96.6194 156.314 96.0812C156.314 95.543 155.885 95.1067 155.356 95.1067Z" fill="#E6E6E6"/>
<path d="M119.54 99.668H117.795C117.266 99.668 116.837 100.104 116.837 100.642C116.837 101.181 117.266 101.617 117.795 101.617H119.54C120.069 101.617 120.498 101.181 120.498 100.642C120.498 100.104 120.069 99.668 119.54 99.668Z" fill="#E6E6E6"/>
<path d="M139.497 99.668H137.752C137.223 99.668 136.794 100.104 136.794 100.642C136.794 101.181 137.223 101.617 137.752 101.617H139.497C140.026 101.617 140.455 101.181 140.455 100.642C140.455 100.104 140.026 99.668 139.497 99.668Z" fill="#E6E6E6"/>
<path d="M145.151 99.668H143.406C142.877 99.668 142.448 100.104 142.448 100.642C142.448 101.181 142.877 101.617 143.406 101.617H145.151C145.68 101.617 146.109 101.181 146.109 100.642C146.109 100.104 145.68 99.668 145.151 99.668Z" fill="#E6E6E6"/>
<path d="M134.068 99.5056H123.223C122.694 99.5056 122.265 99.9419 122.265 100.48C122.265 101.018 122.694 101.455 123.223 101.455H134.068C134.597 101.455 135.026 101.018 135.026 100.48C135.026 99.9419 134.597 99.5056 134.068 99.5056Z" fill="#E6E6E6"/>
<path d="M160.677 99.5056H149.832C149.303 99.5056 148.875 99.9419 148.875 100.48C148.875 101.018 149.303 101.455 149.832 101.455H160.677C161.207 101.455 161.635 101.018 161.635 100.48C161.635 99.9419 161.207 99.5056 160.677 99.5056Z" fill="#E6E6E6"/>
<path d="M124.862 104.067H123.117C122.588 104.067 122.159 104.503 122.159 105.042C122.159 105.58 122.588 106.016 123.117 106.016H124.862C125.391 106.016 125.819 105.58 125.819 105.042C125.819 104.503 125.391 104.067 124.862 104.067Z" fill="#E6E6E6"/>
<path d="M144.819 104.067H143.074C142.545 104.067 142.116 104.503 142.116 105.042C142.116 105.58 142.545 106.016 143.074 106.016H144.819C145.348 106.016 145.776 105.58 145.776 105.042C145.776 104.503 145.348 104.067 144.819 104.067Z" fill="#E6E6E6"/>
<path d="M150.473 104.067H148.728C148.199 104.067 147.77 104.503 147.77 105.042C147.77 105.58 148.199 106.016 148.728 106.016H150.473C151.002 106.016 151.431 105.58 151.431 105.042C151.431 104.503 151.002 104.067 150.473 104.067Z" fill="#E6E6E6"/>
<path d="M139.39 103.905H128.545C128.016 103.905 127.587 104.341 127.587 104.879C127.587 105.417 128.016 105.854 128.545 105.854H139.39C139.919 105.854 140.348 105.417 140.348 104.879C140.348 104.341 139.919 103.905 139.39 103.905Z" fill="#E6E6E6"/>
<path d="M128.853 121.559H127.108C126.579 121.559 126.15 121.995 126.15 122.534C126.15 123.072 126.579 123.508 127.108 123.508H128.853C129.382 123.508 129.811 123.072 129.811 122.534C129.811 121.995 129.382 121.559 128.853 121.559Z" fill="#E6E6E6"/>
<path d="M134.508 121.559H132.763C132.234 121.559 131.805 121.995 131.805 122.534C131.805 123.072 132.234 123.508 132.763 123.508H134.508C135.037 123.508 135.465 123.072 135.465 122.534C135.465 121.995 135.037 121.559 134.508 121.559Z" fill="#E6E6E6"/>
<path d="M150.033 121.722H139.188C138.659 121.722 138.23 122.158 138.23 122.696C138.23 123.234 138.659 123.671 139.188 123.671H150.033C150.562 123.671 150.991 123.234 150.991 122.696C150.991 122.158 150.562 121.722 150.033 121.722Z" fill="#E6E6E6"/>
<path d="M108.896 121.559H107.151C106.622 121.559 106.193 121.995 106.193 122.534C106.193 123.072 106.622 123.508 107.151 123.508H108.896C109.425 123.508 109.854 123.072 109.854 122.534C109.854 121.995 109.425 121.559 108.896 121.559Z" fill="#E6E6E6"/>
<path d="M123.425 121.722H112.579C112.05 121.722 111.622 122.158 111.622 122.696C111.622 123.234 112.05 123.671 112.579 123.671H123.425C123.954 123.671 124.382 123.234 124.382 122.696C124.382 122.158 123.954 121.722 123.425 121.722Z" fill="#E6E6E6"/>
<path d="M114.218 117.16H112.473C111.944 117.16 111.515 117.596 111.515 118.135C111.515 118.673 111.944 119.109 112.473 119.109H114.218C114.747 119.109 115.176 118.673 115.176 118.135C115.176 117.596 114.747 117.16 114.218 117.16Z" fill="#E6E6E6"/>
<path d="M134.175 117.16H132.43C131.901 117.16 131.472 117.596 131.472 118.135C131.472 118.673 131.901 119.109 132.43 119.109H134.175C134.704 119.109 135.133 118.673 135.133 118.135C135.133 117.596 134.704 117.16 134.175 117.16Z" fill="#E6E6E6"/>
<path d="M139.829 117.16H138.084C137.555 117.16 137.126 117.596 137.126 118.135C137.126 118.673 137.555 119.109 138.084 119.109H139.829C140.358 119.109 140.787 118.673 140.787 118.135C140.787 117.596 140.358 117.16 139.829 117.16Z" fill="#E6E6E6"/>
<path d="M128.746 117.323H117.901C117.372 117.323 116.943 117.759 116.943 118.297C116.943 118.836 117.372 119.272 117.901 119.272H128.746C129.275 119.272 129.704 118.836 129.704 118.297C129.704 117.759 129.275 117.323 128.746 117.323Z" fill="#E6E6E6"/>
<path d="M119.54 112.761H117.795C117.266 112.761 116.837 113.198 116.837 113.736C116.837 114.274 117.266 114.71 117.795 114.71H119.54C120.069 114.71 120.498 114.274 120.498 113.736C120.498 113.198 120.069 112.761 119.54 112.761Z" fill="#E6E6E6"/>
<path d="M139.497 112.761H137.752C137.223 112.761 136.794 113.198 136.794 113.736C136.794 114.274 137.223 114.71 137.752 114.71H139.497C140.026 114.71 140.455 114.274 140.455 113.736C140.455 113.198 140.026 112.761 139.497 112.761Z" fill="#E6E6E6"/>
<path d="M145.151 112.761H143.406C142.877 112.761 142.448 113.198 142.448 113.736C142.448 114.274 142.877 114.71 143.406 114.71H145.151C145.68 114.71 146.109 114.274 146.109 113.736C146.109 113.198 145.68 112.761 145.151 112.761Z" fill="#E6E6E6"/>
<path d="M134.068 112.924H123.223C122.694 112.924 122.265 113.36 122.265 113.898C122.265 114.437 122.694 114.873 123.223 114.873H134.068C134.597 114.873 135.026 114.437 135.026 113.898C135.026 113.36 134.597 112.924 134.068 112.924Z" fill="#E6E6E6"/>
<path d="M124.862 108.362H123.117C122.588 108.362 122.159 108.799 122.159 109.337C122.159 109.875 122.588 110.311 123.117 110.311H124.862C125.391 110.311 125.819 109.875 125.819 109.337C125.819 108.799 125.391 108.362 124.862 108.362Z" fill="#E6E6E6"/>
<path d="M144.819 108.362H143.074C142.545 108.362 142.116 108.799 142.116 109.337C142.116 109.875 142.545 110.311 143.074 110.311H144.819C145.348 110.311 145.776 109.875 145.776 109.337C145.776 108.799 145.348 108.362 144.819 108.362Z" fill="#E6E6E6"/>
<path d="M150.473 108.362H148.728C148.199 108.362 147.77 108.799 147.77 109.337C147.77 109.875 148.199 110.311 148.728 110.311H150.473C151.002 110.311 151.431 109.875 151.431 109.337C151.431 108.799 151.002 108.362 150.473 108.362Z" fill="#E6E6E6"/>
<path d="M139.39 108.525H128.545C128.016 108.525 127.587 108.961 127.587 109.499C127.587 110.038 128.016 110.474 128.545 110.474H139.39C139.919 110.474 140.348 110.038 140.348 109.499C140.348 108.961 139.919 108.525 139.39 108.525Z" fill="#E6E6E6"/>
<path d="M117.351 184.74C117.278 184.777 117.205 184.815 117.132 184.848C116.669 185.082 116.204 185.312 115.735 185.539C114.331 186.219 112.91 186.865 111.471 187.478C107.684 189.089 103.799 190.449 99.8391 191.548C99.1739 187.329 98.5286 177.377 97.9099 170.058C97.7935 168.681 97.6771 167.398 97.5607 166.265C97.4501 164.776 97.2401 163.298 96.9321 161.839C96.9019 161.724 96.8584 161.614 96.8023 161.51C96.8655 162.096 96.9321 163.842 96.9953 166.265C97.0285 167.398 97.0585 168.681 97.0917 170.058C97.248 177.103 97.411 186.689 97.574 192.147C97.1117 192.262 96.646 192.377 96.1804 192.486C95.8877 192.557 95.5916 192.624 95.2956 192.689C94.9364 192.77 94.5772 192.851 94.2179 192.926C93.8421 193.007 93.4662 193.085 93.0904 193.159C86.9484 194.387 80.7036 195.003 74.4442 195C74.0284 195 73.616 194.997 73.2002 194.993C73.0738 194.993 72.9474 194.99 72.8177 194.986C72.4518 194.98 72.0726 194.973 71.6868 194.963C64.2898 194.755 56.9413 193.677 49.7876 191.751L50.077 170.058L50.1269 166.265L50.1468 164.826C49.9821 165.289 49.8835 165.773 49.8541 166.265C49.7377 167.188 49.618 168.498 49.4983 170.058C49.0426 176.067 48.5736 185.762 48.088 191.278C42.3371 189.613 38.1329 188.094 32.8776 185.42C32.6747 185.319 32.4685 185.214 32.2656 185.109C32.3022 184.848 32.3421 184.588 32.3787 184.321C32.9741 180.111 32.2723 174.633 32.9309 170.058C33.4331 166.528 33.952 163.138 34.4742 160.262C35.1061 156.8 35.7481 154.079 36.3834 152.756C37.1151 151.23 37.8469 149.728 38.5553 148.29C38.8613 147.67 39.1618 147.063 39.4567 146.466C39.6164 146.144 39.776 145.826 39.9323 145.515C40.6441 144.097 41.316 142.788 41.9313 141.627C42.3637 140.811 42.7629 140.074 43.1287 139.427C43.5578 138.666 43.937 138.037 44.2496 137.56C46.559 133.998 49.9951 131.347 53.9885 130.044L54.0883 130.017L54.1848 130.058L54.2945 130.108L60.6341 127.75L63.4646 120.816L78.0031 119.906L80.3513 121.723L81.5521 122.654L82.8326 123.645L85.1875 125.469L85.8561 125.679L86.8506 125.99L93.6525 128.115L93.7223 128.085L93.8221 128.112C97.4561 129.295 100.637 131.602 102.922 134.71C103.149 135.008 103.358 135.316 103.561 135.627C104.113 136.46 104.858 137.776 105.736 139.427C106.099 140.108 106.481 140.845 106.884 141.627C107.127 142.097 109.222 148.75 111.261 155.545C113.167 161.906 115.023 168.393 115.266 170.058C115.309 170.366 115.355 170.677 115.399 170.985C115.675 172.91 115.947 174.849 116.21 176.741C116.599 179.546 116.979 182.253 117.341 184.672C117.344 184.696 117.348 184.717 117.351 184.74Z" fill="#3F3D56"/>
<path opacity="0.2" d="M101.944 160.246L99.1177 149.15L96.6221 158.725L101.944 160.246Z" fill="#121213"/>
<path d="M6.23154 160.117C6.37808 160.552 6.65606 160.927 7.02555 161.191C7.39505 161.454 7.83706 161.591 8.28812 161.583L17.0996 161.352C17.554 161.343 17.9933 161.185 18.3518 160.901C18.7104 160.617 18.969 160.222 19.0889 159.776L20.3358 146.212C20.7782 146.416 21.2598 146.516 21.7454 146.506C22.5974 146.485 23.406 146.119 23.9934 145.491C24.5807 144.863 24.8986 144.023 24.8773 143.156C24.8559 142.289 24.4969 141.467 23.8793 140.869C23.2617 140.272 22.4361 139.948 21.5841 139.97C21.3901 139.969 21.1965 139.99 21.0067 140.031C20.8003 139.804 20.5494 139.623 20.2702 139.501C19.9909 139.378 19.6896 139.316 19.3855 139.319L5.83139 139.676C5.71895 139.68 5.60709 139.694 5.49705 139.718C5.19981 139.774 4.91789 139.895 4.67026 140.071C4.42263 140.248 4.21504 140.476 4.06146 140.741C3.90789 141.006 3.81189 141.301 3.77993 141.607C3.74796 141.913 3.78079 142.222 3.87617 142.514L6.23154 160.117ZM20.5916 145.291L21.4788 142.058C21.5798 141.685 21.5821 141.291 21.4856 140.916C21.5287 140.916 21.5666 140.895 21.6097 140.895C22.2181 140.883 22.8066 141.116 23.2463 141.544C23.686 141.972 23.9409 142.56 23.9551 143.178C23.9694 143.797 23.7418 144.397 23.3223 144.845C22.9028 145.294 22.3256 145.555 21.7173 145.571C21.324 145.583 20.9348 145.486 20.5916 145.291Z" fill="#2F2E41"/>
<path d="M5.49707 139.718C5.78584 141.397 9.03243 142.578 12.9362 142.373C16.526 142.205 19.4612 140.922 19.999 139.403C19.8 139.343 19.593 139.315 19.3855 139.319L5.83141 139.675C5.71897 139.68 5.60711 139.694 5.49707 139.718Z" fill="#3F3D56"/>
<path d="M13.6517 152.664C13.6695 152.659 13.6865 152.651 13.7019 152.641L15.6154 151.367C15.6386 151.351 15.6576 151.331 15.6707 151.306C15.6839 151.281 15.6908 151.253 15.6908 151.225C15.6908 151.197 15.6839 151.17 15.6708 151.145C15.6577 151.12 15.6387 151.099 15.6155 151.084L13.6266 149.759C13.6083 149.746 13.5879 149.738 13.5664 149.734C13.5449 149.729 13.5228 149.729 13.5014 149.734C13.4799 149.738 13.4596 149.747 13.4415 149.76C13.4234 149.772 13.4079 149.788 13.3959 149.807C13.3839 149.825 13.3756 149.846 13.3715 149.868C13.3675 149.89 13.3677 149.913 13.3722 149.934C13.3767 149.956 13.3854 149.977 13.3978 149.995C13.4102 150.014 13.426 150.029 13.4443 150.041L15.2208 151.225L13.5198 152.358C13.4869 152.38 13.4627 152.413 13.4514 152.451C13.4402 152.49 13.4427 152.531 13.4586 152.568C13.4744 152.604 13.5025 152.634 13.5378 152.652C13.5732 152.669 13.6135 152.673 13.6517 152.664Z" fill="#6C63FF"/>
<path d="M10.6293 152.805C10.6614 152.797 10.6903 152.779 10.7124 152.754C10.7345 152.729 10.7487 152.698 10.7532 152.664C10.7577 152.631 10.7523 152.597 10.7377 152.567C10.7231 152.536 10.6999 152.511 10.6712 152.494L8.90734 151.466L10.6122 150.177C10.6297 150.164 10.6445 150.147 10.6557 150.128C10.6669 150.109 10.6743 150.088 10.6775 150.066C10.6807 150.044 10.6795 150.022 10.6742 150C10.6689 149.979 10.6595 149.959 10.6464 149.941C10.6334 149.923 10.6171 149.908 10.5984 149.897C10.5796 149.885 10.5589 149.878 10.5373 149.874C10.5157 149.871 10.4937 149.872 10.4725 149.878C10.4514 149.883 10.4315 149.893 10.4139 149.906L8.5052 151.348C8.48302 151.365 8.46529 151.387 8.45361 151.413C8.44192 151.438 8.43665 151.466 8.43828 151.494C8.4399 151.522 8.44836 151.549 8.46291 151.573C8.47745 151.597 8.49761 151.617 8.52156 151.631L10.5057 152.788C10.5431 152.81 10.5874 152.816 10.6293 152.805Z" fill="#6C63FF"/>
<path d="M13.4609 153.78C13.477 153.776 13.4924 153.769 13.5065 153.761C13.5252 153.749 13.5414 153.734 13.5543 153.716C13.5673 153.698 13.5766 153.678 13.5817 153.656C13.5869 153.634 13.5879 153.612 13.5845 153.59C13.5812 153.568 13.5736 153.547 13.5622 153.528L10.8496 148.991C10.8265 148.953 10.7896 148.926 10.7468 148.915C10.704 148.905 10.6589 148.912 10.6213 148.935C10.5837 148.958 10.5568 148.996 10.5463 149.039C10.5358 149.083 10.5427 149.129 10.5654 149.167L13.278 153.704C13.2965 153.735 13.3243 153.759 13.3572 153.773C13.3901 153.786 13.4265 153.789 13.4609 153.78Z" fill="#6C63FF"/>
<path d="M262.116 185.108C261.913 185.213 261.707 185.318 261.504 185.42C256.249 188.093 252.045 189.612 246.294 191.277C245.808 185.761 245.339 176.067 244.884 170.057C244.764 168.497 244.644 167.188 244.528 166.264C244.498 165.773 244.4 165.288 244.235 164.826L244.255 166.264L244.305 170.057L244.594 191.751C237.441 193.676 230.092 194.754 222.695 194.962C222.309 194.972 221.93 194.979 221.564 194.986C221.434 194.989 221.308 194.992 221.182 194.992C220.766 194.996 220.353 194.999 219.938 194.999C212.143 195.005 204.376 194.047 196.808 192.147C196.971 186.689 197.134 177.102 197.29 170.057C197.323 168.68 197.353 167.397 197.387 166.264C197.45 163.841 197.516 162.095 197.58 161.51C197.524 161.613 197.48 161.723 197.45 161.838C197.142 163.297 196.932 164.776 196.821 166.264C196.705 167.397 196.588 168.68 196.472 170.057C195.853 177.376 195.208 187.328 194.543 191.548C190.583 190.448 186.698 189.088 182.911 187.477C180.916 186.631 178.955 185.719 177.031 184.739C177.397 182.303 177.779 179.572 178.172 176.74C178.478 174.544 178.794 172.287 179.116 170.057C179.615 166.612 196.565 129.414 200.56 128.111L200.66 128.084L200.729 128.115L207.531 125.99L208.526 125.678L209.194 125.469L211.549 123.645L212.83 122.653L214.031 121.723L216.379 119.906L230.917 120.816L233.748 127.749L240.087 130.108L240.197 130.057L240.294 130.016L240.393 130.043C244.387 131.346 247.823 133.998 250.132 137.559C250.445 138.036 250.824 138.665 251.253 139.427C251.619 140.073 252.018 140.811 252.451 141.626C253.066 142.787 253.738 144.096 254.45 145.514C254.606 145.826 254.766 146.144 254.925 146.465C255.221 147.061 255.522 147.669 255.827 148.289C256.535 149.727 257.267 151.23 257.999 152.756C258.634 154.079 259.276 156.799 259.908 160.261C260.43 163.137 260.949 166.528 261.451 170.057C262.11 174.632 261.408 180.11 262.003 184.32C262.04 184.587 262.08 184.848 262.116 185.108Z" fill="#3F3D56"/>
<path d="M219.477 117.417C228.816 117.417 236.386 109.715 236.386 100.215C236.386 90.7141 228.816 83.0125 219.477 83.0125C210.139 83.0125 202.568 90.7141 202.568 100.215C202.568 109.715 210.139 117.417 219.477 117.417Z" fill="#FFB6B6"/>
<path opacity="0.2" d="M192.438 160.246L195.264 149.15L197.759 158.725L192.438 160.246Z" fill="#121213"/>
<path d="M267.644 153.016C266.633 167.188 267.681 173.427 262.1 185.112C257.022 187.64 251.732 189.704 246.294 191.277C245.729 191.439 245.162 191.597 244.594 191.751C237.441 193.676 230.092 194.754 222.695 194.962C222.309 194.972 221.93 194.979 221.564 194.986C221.435 194.989 221.308 194.992 221.182 194.992C220.766 194.996 220.354 194.999 219.938 194.999C212.143 195.005 204.376 194.047 196.808 192.147C196.05 191.957 195.295 191.758 194.543 191.548C190.583 190.448 186.698 189.088 182.912 187.477C180.916 186.631 178.956 185.719 177.031 184.74C176.595 184.516 176.159 184.293 175.73 184.063C173.525 180.117 172.271 175.319 172.245 169.553C173.771 159.618 264.272 144.448 267.644 153.016Z" fill="#2F2E41"/>
<path opacity="0.2" d="M267.642 155.443C267.693 154.566 267.751 153.66 267.818 152.716C264.446 144.148 173.945 159.318 172.418 169.253C172.423 170.164 172.461 171.047 172.525 171.91C176.223 162.105 262.199 147.687 267.642 155.443Z" fill="#121213"/>
<path d="M172.855 163.61L180.284 159.831L174.093 142.827L172.462 134.252C172.25 133.138 171.754 132.1 171.025 131.242C170.295 130.383 169.356 129.735 168.303 129.361C167.25 128.988 166.119 128.902 165.023 129.113C163.927 129.323 162.904 129.822 162.057 130.561C160.802 131.655 160.014 133.203 159.86 134.877C159.705 136.551 160.196 138.221 161.228 139.534L167.284 147.235L172.855 163.61Z" fill="#FFB6B6"/>
<path d="M177.422 146.757L167.518 151.795L175.034 175.756C175.574 177.476 176.541 179.026 177.843 180.254C179.145 181.482 180.736 182.347 182.463 182.766C184.593 183.282 186.828 183.094 188.846 182.23C190.864 181.366 192.558 179.871 193.685 177.962L213.616 143.205C215.029 140.81 215.465 137.948 214.831 135.231C214.198 132.513 212.545 130.155 210.225 128.661C208.978 127.857 207.578 127.33 206.117 127.113C204.656 126.896 203.166 126.994 201.745 127.402C200.324 127.809 199.003 128.516 197.868 129.478C196.734 130.439 195.811 131.632 195.159 132.98L182.994 159.353L177.422 146.757Z" fill="#3F3D56"/>
<path d="M70.6511 116.23C80.9261 116.23 89.2557 107.755 89.2557 97.3021C89.2557 86.8488 80.9261 78.3748 70.6511 78.3748C60.376 78.3748 52.0464 86.8488 52.0464 97.3021C52.0464 107.755 60.376 116.23 70.6511 116.23Z" fill="#A0616A"/>
<path d="M52.27 84.2591C53.7827 82.1848 55.957 80.7101 57.62 78.7587C58.5325 77.688 59.2902 76.4748 60.3161 75.5162C62.222 73.7353 64.8876 73.0055 67.474 72.9148C70.3085 72.8407 73.1203 73.4465 75.6819 74.6833C78.2436 75.9201 80.483 77.753 82.219 80.0338C83.5709 79.2274 84.9229 78.421 86.2748 77.6146C86.8089 79.0448 87.343 80.4749 87.8771 81.9051C88.3154 81.5175 88.8745 81.3003 89.4552 81.292C90.0359 81.2837 90.6008 81.4849 91.0496 81.8598C91.4985 82.2347 91.8024 82.7592 91.9074 83.3403C92.0125 83.9214 91.9119 84.5216 91.6235 85.0345C91.9452 84.0231 93.4193 83.8085 94.232 84.4766C95.0447 85.1448 95.2623 86.3337 95.1298 87.3881C94.9634 88.5449 94.4606 89.6247 93.6863 90.4885C92.9119 91.3524 91.9013 91.9609 90.7843 92.2358C89.0201 92.6356 86.9667 92.2156 85.5547 93.3634C84.4227 94.2837 84.0809 95.9594 82.9257 96.8492C81.5021 97.9457 79.49 97.4386 77.7204 97.6809C74.6244 98.1049 72.173 101.326 72.545 104.482C72.265 103.486 71.9706 102.462 71.3348 101.653C70.699 100.844 69.6283 100.297 68.6532 100.594C67.0414 101.086 66.7777 103.321 67.1683 104.986C68.2043 109.402 72.1307 116.54 72.1307 116.54C67.0325 118.586 60.9587 116.651 57.0251 112.769C53.0915 108.886 51.0428 103.389 50.1504 97.8881C49.3937 93.2232 49.5009 88.0562 52.27 84.2591Z" fill="#2F2E41"/>
<path d="M240.667 109.697C244.207 101.442 242.201 93.8443 237.886 89.8141V89.8107C236.19 85.943 233.935 82.9585 231.354 82.258C230.107 81.4425 228.896 80.4849 227.552 79.9976C226.926 79.7592 226.259 79.6522 225.592 79.6831C224.924 79.7139 224.269 79.8819 223.667 80.177L222.982 79.9909C222.4 78.4783 221.718 78.4478 220.96 79.4427C218.039 78.0587 215.408 77.4395 213.067 77.4395C205.43 77.4395 200.913 84.0176 199.716 91.9696L206.099 93.6987L208.317 90.1017L207.293 94.0235L210.815 94.9744C216.177 102.077 209.761 118.461 201.628 127.577C203.564 127.033 205.492 126.572 207.412 126.197L214.391 115.788L210.067 125.263C212.312 124.928 215.176 125.249 218.306 125.896C219.36 124.495 219.915 122.627 219.37 120.962C220.262 122.718 220.877 124.605 221.193 126.556C227.798 128.197 236.809 129.039 241.665 129.662C245.588 128.359 245.599 113.643 240.667 109.697Z" fill="#2F2E41"/>
<path d="M242.97 81.6144C245.563 87.5203 240.332 90.0606 235.539 89.9888C231.209 89.924 227.529 86.829 227.308 82.4289C227.201 80.3159 227.925 78.2465 229.318 76.676C230.712 75.1055 232.662 74.1625 234.739 74.0545C239.064 73.8296 241.204 77.5915 242.97 81.6144Z" fill="#2F2E41"/>
<path d="M114.145 183.573L109.874 176.326L124.074 165.367L129.977 159.025C130.745 158.201 131.711 157.597 132.779 157.272C133.848 156.947 134.982 156.913 136.067 157.173C137.153 157.434 138.153 157.979 138.966 158.756C139.779 159.532 140.378 160.512 140.703 161.598C141.183 163.207 141.031 164.943 140.277 166.44C139.524 167.936 138.228 169.077 136.664 169.62L127.49 172.806L114.145 183.573Z" fill="#A0616A"/>
<path d="M125.783 177.516L119.134 183.153L117.341 184.673L117.132 184.849C116.669 185.082 116.204 185.312 115.735 185.539C114.331 186.219 112.91 186.865 111.47 187.478C107.684 189.089 103.799 190.449 99.8391 191.548C99.0874 191.758 98.3323 191.958 97.574 192.147C97.1116 192.262 96.646 192.378 96.1803 192.486C95.8876 192.557 95.5916 192.625 95.2956 192.689C94.9364 192.77 94.5771 192.851 94.2179 192.926C93.8421 193.007 93.4662 193.085 93.0904 193.159C92.079 192.18 91.2738 191.002 90.7238 189.697C90.1737 188.392 89.8903 186.986 89.8906 185.566C89.8906 185.475 89.8906 185.38 89.894 185.285L90.9616 157.426L91.434 145.079C91.5067 142.286 92.65 139.634 94.6196 137.687C96.5891 135.741 99.2288 134.656 101.974 134.663C102.294 134.663 102.61 134.68 102.922 134.711C103.149 135.008 103.358 135.316 103.561 135.628C104.113 136.46 104.858 137.776 105.736 139.428C106.099 140.108 106.481 140.845 106.884 141.627C107.127 142.097 109.222 148.75 111.261 155.545L110.363 162.641L108.74 175.431L115.399 170.985L120.088 167.852L120.644 168.796L122.091 171.252L124.885 175.99L125.783 177.516Z" fill="#3F3D56"/>
<path d="M122.138 169.554C122.134 170.129 122.121 170.694 122.091 171.252C122.022 172.793 121.846 174.326 121.566 175.841C121.106 178.385 120.287 180.848 119.134 183.153C118.981 183.461 118.818 183.766 118.652 184.064C118.223 184.294 117.787 184.517 117.351 184.74C117.278 184.778 117.205 184.815 117.132 184.849C115.279 185.786 113.392 186.662 111.471 187.478C107.684 189.089 103.799 190.449 99.8393 191.549C99.0876 191.758 98.3326 191.958 97.5742 192.147C96.0941 192.52 94.5995 192.857 93.0906 193.159C86.9486 194.387 80.7037 195.003 74.4443 195C74.0286 195 73.6161 194.997 73.2004 194.993C73.074 194.993 72.9476 194.99 72.8179 194.986C72.452 194.98 72.0728 194.973 71.687 194.963C64.29 194.755 56.9415 193.677 49.7878 191.752C49.219 191.599 48.6525 191.441 48.0882 191.278C42.6501 189.704 37.3606 187.641 32.2824 185.112C26.7012 173.428 27.7489 167.188 26.7378 153.017C28.8133 147.742 63.9272 151.467 90.9619 157.426C98.2993 159.044 105.038 160.827 110.363 162.641C115.865 164.512 119.853 166.414 121.416 168.2C121.781 168.57 122.032 169.041 122.138 169.554Z" fill="#2F2E41"/>
<path opacity="0.2" d="M26.7397 155.443C26.6881 154.566 26.6303 153.66 26.563 152.716C29.9357 144.148 120.436 159.318 121.963 169.253C121.959 170.164 121.92 171.047 121.856 171.91C118.159 162.105 32.1821 147.687 26.7397 155.443Z" fill="#121213"/>
</g>
<defs>
<clipPath id="clip0_52_34">
<rect width="292.752" height="195" fill="white" transform="translate(0.966309)"/>
</clipPath>
</defs>
</svg>
