<svg width="72" height="72" viewBox="0 0 72 72" fill="none" xmlns="http://www.w3.org/2000/svg">
<circle cx="36" cy="36" r="36" fill="#6C63FF" fill-opacity="0.1"/>
<path d="M28.3082 46.5V42.9545L36.5923 35.2841C37.2969 34.6023 37.8878 33.9886 38.3651 33.4432C38.8499 32.8977 39.2173 32.3636 39.4673 31.8409C39.7173 31.3106 39.8423 30.7386 39.8423 30.125C39.8423 29.4432 39.687 28.8561 39.3764 28.3636C39.0658 27.8636 38.6416 27.4811 38.1037 27.2159C37.5658 26.9432 36.956 26.8068 36.2741 26.8068C35.562 26.8068 34.9408 26.9508 34.4105 27.2386C33.8802 27.5265 33.4711 27.9394 33.1832 28.4773C32.8954 29.0152 32.7514 29.6553 32.7514 30.3977H28.081C28.081 28.875 28.4257 27.553 29.1151 26.4318C29.8045 25.3106 30.7704 24.4432 32.0128 23.8295C33.2552 23.2159 34.687 22.9091 36.3082 22.9091C37.9749 22.9091 39.4257 23.2045 40.6605 23.7955C41.9029 24.3788 42.8688 25.1894 43.5582 26.2273C44.2476 27.2652 44.5923 28.4545 44.5923 29.7955C44.5923 30.6742 44.4181 31.5417 44.0696 32.3977C43.7287 33.2538 43.1188 34.2045 42.2401 35.25C41.3613 36.2879 40.1226 37.5341 38.5241 38.9886L35.1264 42.3182V42.4773H44.8991V46.5H28.3082Z" fill="#6C63FF"/>
</svg>
