<svg width="300" height="195" viewBox="0 0 300 195" fill="none" xmlns="http://www.w3.org/2000/svg">
<g clip-path="url(#clip0_52_243)">
<path d="M69.8181 170.495L61.041 167.425C60.0747 162.633 60.2914 157.677 61.6722 152.988C65.0019 161.014 75.3871 163.258 81.1533 169.754C82.9362 171.793 84.2378 174.209 84.9616 176.821C85.6854 179.432 85.8129 182.174 85.3346 184.842L87.0152 191.225C82.6731 190.727 78.4906 189.292 74.7558 187.019C71.021 184.746 67.8228 181.69 65.3814 178.061C64.0319 176.011 62.9456 173.8 62.1482 171.478C65.9369 171.209 69.8181 170.495 69.8181 170.495Z" fill="#CCCCCC"/>
<path d="M171.733 113.437H125.773C125.123 113.438 124.5 113.697 124.041 114.158C123.582 114.619 123.324 115.244 123.325 115.895V188.582H174.188V115.895C174.188 115.572 174.125 115.252 174.001 114.954C173.878 114.656 173.697 114.385 173.469 114.156C173.241 113.928 172.97 113.747 172.673 113.624C172.375 113.5 172.055 113.437 171.733 113.437ZM148.908 154.737C147.47 154.73 146.094 154.156 145.078 153.138C144.061 152.121 143.487 150.743 143.481 149.304V140.92C143.481 139.479 144.052 138.097 145.07 137.078C146.088 136.059 147.468 135.487 148.908 135.487C150.347 135.487 151.727 136.059 152.745 137.078C153.763 138.097 154.335 139.479 154.335 140.92V149.304C154.328 150.743 153.754 152.121 152.738 153.138C151.722 154.156 150.345 154.73 148.908 154.737Z" fill="#E6E6E6"/>
<path d="M123.167 186.257V193.27C123.168 193.634 123.312 193.982 123.569 194.239C123.826 194.496 124.173 194.64 124.536 194.641H172.976C173.339 194.639 173.686 194.494 173.943 194.238C174.199 193.981 174.344 193.633 174.346 193.27V186.257H123.167Z" fill="#CCCCCC"/>
<path d="M247.838 0H51.3781C49.6902 0.00268839 48.0722 0.675176 46.8787 1.87009C45.6852 3.065 45.0134 4.68488 45.0107 6.37475V139.101C45.0124 140.792 45.6837 142.412 46.8775 143.607C48.0713 144.802 49.6899 145.474 51.3781 145.476H247.838C249.526 145.474 251.145 144.802 252.339 143.607C253.533 142.412 254.204 140.792 254.206 139.101V6.37475C254.203 4.68488 253.531 3.065 252.338 1.87009C251.144 0.675176 249.526 0.00268839 247.838 0Z" fill="#E6E6E6"/>
<path d="M246.198 4.60254H53.0202C52.1161 4.60469 51.2499 4.96572 50.6114 5.60645C49.9729 6.24718 49.6143 7.11529 49.6143 8.02037V137.456C49.6153 138.36 49.9744 139.227 50.6129 139.866C51.2515 140.505 52.1172 140.865 53.0202 140.866H246.198C247.101 140.865 247.966 140.505 248.605 139.866C249.243 139.227 249.602 138.36 249.604 137.456V8.02037C249.603 7.11529 249.245 6.24718 248.606 5.60645C247.968 4.96572 247.102 4.60468 246.198 4.60254Z" fill="#E6E6E6"/>
<path d="M250.765 7.53087V120.192C235.901 124.53 220.031 123.901 205.556 118.4C191.081 112.9 178.791 102.828 170.545 89.7091C162.299 76.5901 158.547 61.1386 159.857 45.6938C161.167 30.2491 167.468 15.6522 177.805 4.11304H247.359C248.263 4.11518 249.13 4.47622 249.768 5.11695C250.407 5.75768 250.765 6.6258 250.765 7.53087Z" fill="#6C63FF"/>
<path d="M236.488 22.4378H55.731C55.543 22.4338 55.3641 22.3562 55.2325 22.2217C55.101 22.0872 55.0273 21.9064 55.0273 21.7182C55.0273 21.5299 55.101 21.3492 55.2325 21.2146C55.3641 21.0801 55.543 21.0025 55.731 20.9985H236.488C236.676 21.0025 236.855 21.0801 236.986 21.2146C237.118 21.3492 237.191 21.5299 237.191 21.7182C237.191 21.9064 237.118 22.0872 236.986 22.2217C236.855 22.3562 236.676 22.4338 236.488 22.4378Z" fill="#CACACA"/>
<path d="M68.0354 17.3242C70.3619 17.3242 72.248 15.3939 72.248 13.0127C72.248 10.6315 70.3619 8.70117 68.0354 8.70117C65.7088 8.70117 63.8228 10.6315 63.8228 13.0127C63.8228 15.3939 65.7088 17.3242 68.0354 17.3242Z" fill="#3F3D56"/>
<path d="M82.5881 17.3242C84.9147 17.3242 86.8007 15.3939 86.8007 13.0127C86.8007 10.6315 84.9147 8.70117 82.5881 8.70117C80.2615 8.70117 78.3755 10.6315 78.3755 13.0127C78.3755 15.3939 80.2615 17.3242 82.5881 17.3242Z" fill="#3F3D56"/>
<path d="M97.1408 17.3242C99.4674 17.3242 101.353 15.3939 101.353 13.0127C101.353 10.6315 99.4674 8.70117 97.1408 8.70117C94.8143 8.70117 92.9282 10.6315 92.9282 13.0127C92.9282 15.3939 94.8143 17.3242 97.1408 17.3242Z" fill="#3F3D56"/>
<path d="M227.726 9.76978H217.388C217.183 9.77386 216.988 9.85822 216.845 10.0047C216.701 10.1513 216.621 10.3482 216.621 10.5534C216.621 10.7586 216.701 10.9556 216.845 11.1021C216.988 11.2486 217.183 11.333 217.388 11.3371H227.726C227.931 11.333 228.126 11.2486 228.269 11.1021C228.413 10.9556 228.493 10.7586 228.493 10.5534C228.493 10.3482 228.413 10.1513 228.269 10.0047C228.126 9.85822 227.931 9.77386 227.726 9.76978Z" fill="#3F3D56"/>
<path d="M227.726 12.7114H217.388C217.183 12.7155 216.988 12.7999 216.845 12.9464C216.701 13.0929 216.621 13.2899 216.621 13.4951C216.621 13.7002 216.701 13.8972 216.845 14.0438C216.988 14.1903 217.183 14.2746 217.388 14.2787H227.726C227.931 14.2746 228.126 14.1903 228.269 14.0438C228.413 13.8972 228.493 13.7002 228.493 13.4951C228.493 13.2899 228.413 13.0929 228.269 12.9464C228.126 12.7999 227.931 12.7155 227.726 12.7114Z" fill="#3F3D56"/>
<path d="M227.726 15.6489H217.388C217.183 15.653 216.988 15.7374 216.845 15.8839C216.701 16.0304 216.621 16.2274 216.621 16.4326C216.621 16.6377 216.701 16.8347 216.845 16.9813C216.988 17.1278 217.183 17.2121 217.388 17.2162H227.726C227.931 17.2121 228.126 17.1278 228.269 16.9813C228.413 16.8347 228.493 16.6377 228.493 16.4326C228.493 16.2274 228.413 16.0304 228.269 15.8839C228.126 15.7374 227.931 15.653 227.726 15.6489Z" fill="#3F3D56"/>
<path d="M101.333 101.293C101.599 101.003 101.798 100.659 101.917 100.283C102.035 99.9081 102.07 99.5113 102.019 99.121C101.968 98.7306 101.832 98.3563 101.621 98.0243C101.409 97.6923 101.128 97.4107 100.796 97.1993L103.001 87.8879L98.3352 89.5944L96.9572 98.175C96.6395 98.7565 96.5459 99.4345 96.6941 100.08C96.8424 100.726 97.2221 101.295 97.7615 101.68C98.3008 102.064 98.9622 102.237 99.6204 102.166C100.279 102.095 100.888 101.784 101.333 101.293Z" fill="#9E616A"/>
<path d="M112.551 62.274L110.679 67.0942C110.679 67.0942 111.481 71.9143 110.144 72.9855C108.807 74.0566 109.342 74.0567 109.342 74.86C109.296 75.4362 109.129 75.9963 108.852 76.5038C108.576 77.0113 108.196 77.4549 107.737 77.8057C106.667 78.609 101.852 94.944 101.852 94.944H97.0378C97.1934 93.6992 97.1934 92.4398 97.0378 91.195C96.7704 89.3205 97.8403 84.5003 98.3752 83.697C98.9102 82.8936 98.3752 81.8224 98.3752 80.2157C98.3752 78.609 99.4451 77.8057 99.4451 75.1278C99.4451 72.4499 102.655 51.5626 102.387 49.1525C102.12 46.7424 105.062 44.6001 105.062 44.6001H107.737L112.551 62.274Z" fill="#E6E6E6"/>
<path d="M129.921 187.838H133.628L135.392 173.525H129.921V187.838Z" fill="#9E616A"/>
<path d="M128.712 185.296L134.633 184.943V187.483L140.263 191.375C140.541 191.567 140.75 191.843 140.86 192.163C140.971 192.483 140.976 192.83 140.875 193.153C140.775 193.476 140.574 193.758 140.301 193.959C140.029 194.159 139.7 194.267 139.362 194.267H132.313L131.098 191.755L130.623 194.267H127.965L128.712 185.296Z" fill="#2F2E41"/>
<path d="M83.4688 184.685L86.9124 186.058L93.8384 173.413L88.7563 171.388L83.4688 184.685Z" fill="#9E616A"/>
<path d="M83.2839 181.876L88.9161 183.74L87.9778 186.1L91.7702 191.801C91.9576 192.082 92.0501 192.416 92.0344 192.754C92.0186 193.092 91.8953 193.416 91.6826 193.679C91.4699 193.942 91.1788 194.13 90.8518 194.215C90.5249 194.301 90.1792 194.279 89.8652 194.154L83.3156 191.544L83.1147 188.76L81.7458 190.918L79.2764 189.934L83.2839 181.876Z" fill="#2F2E41"/>
<path d="M122.451 145.249L116.27 116.374L106.619 148.457L91.3376 178.88L91.2566 179.041L86.4159 176.432C85.7327 164.079 87.3552 152.503 93.2896 142.381L96.0997 114.598C96.1858 113.648 98.282 91.3613 104.919 87.409L106.863 82.9716L126.196 78.1912L126.267 78.2705C128.126 80.3625 129.354 82.9396 129.808 85.7025L135.585 120.74L135.588 120.76L134.039 145.202L136.158 181.263H128.492C123.749 172.329 121.735 160.324 122.451 145.249Z" fill="#2F2E41"/>
<path d="M140.732 49.0844L152.452 44.9793C152.815 44.8535 153.214 44.877 153.56 45.0446C153.906 45.2123 154.171 45.5104 154.298 45.8738C154.425 46.2371 154.403 46.636 154.237 46.9831C154.071 47.3302 153.774 47.5972 153.411 47.7256L141.691 51.8306C141.328 51.9565 140.93 51.933 140.583 51.7654C140.237 51.5977 139.972 51.2996 139.845 50.9362C139.718 50.5729 139.74 50.174 139.906 49.8269C140.072 49.4798 140.369 49.2128 140.732 49.0844Z" fill="#2F2E41"/>
<path d="M153.324 47.3518C153.554 48.1464 154.543 48.5324 155.342 48.3205C156.132 48.0495 156.789 47.4868 157.179 46.7472C157.608 46.0404 157.902 45.2576 158.344 44.5584C159.191 43.2299 160.517 42.2786 162.045 41.9015C160.683 41.7219 159.299 41.9843 158.097 42.6502C157.674 42.9409 157.207 43.1614 156.714 43.303C156.188 43.3309 155.66 43.324 155.135 43.2823C154.671 43.306 154.224 43.4619 153.845 43.7317C153.467 44.0016 153.174 44.374 153 44.8052C152.826 45.2364 152.779 45.7084 152.864 46.1655C152.949 46.6227 153.163 47.0459 153.481 47.3853" fill="#6C63FF"/>
<path d="M151.792 48.6157C151.743 49.0063 151.608 49.3813 151.399 49.7143C151.189 50.0473 150.909 50.3302 150.578 50.5431C150.247 50.756 149.874 50.8938 149.484 50.9466C149.095 50.9994 148.698 50.9661 148.323 50.8489L142.644 58.5458L140.933 53.8772L146.588 47.2838C146.827 46.6655 147.284 46.1562 147.872 45.8525C148.46 45.5488 149.14 45.4717 149.781 45.6359C150.422 45.8001 150.981 46.1941 151.352 46.7433C151.723 47.2925 151.879 47.9587 151.792 48.6157Z" fill="#9E616A"/>
<path d="M101.165 92.3724C100.644 92.3724 100.349 92.2702 100.234 92.051C100.066 91.7292 100.358 91.309 100.695 90.8221C100.931 90.4829 101.619 89.8084 101.28 89.767C96.1518 89.14 98.6136 57.4833 100.836 53.2988C101.288 52.4486 100.81 51.1441 101.319 49.7013C102.708 45.7609 104.604 44.5498 108.381 42.1376C108.688 41.9417 109.007 41.7372 109.339 41.5239C109.769 41.2476 109.745 40.3316 109.719 39.3615C109.691 38.2834 109.662 37.1684 110.19 36.4716L110.224 36.4261L110.28 36.4133C111.556 36.1179 115.847 35.5697 118.389 36.4172L118.424 36.4292L118.45 36.4553C119.054 37.0598 119.109 38.2306 119.162 39.3627C119.206 40.2923 119.247 41.1699 119.589 41.5512C122.2 44.4654 125.162 44.4086 125.192 44.408L125.338 44.4037L125.353 44.5498C127.184 48.0386 125.75 60.9956 127.023 69.044C128.316 77.2208 139.357 84.1813 129.903 85.4171C129.923 85.4485 129.934 85.4849 129.936 85.5224C129.937 85.5598 129.928 85.5969 129.909 85.6295C129.338 86.6981 103.127 92.3724 101.165 92.3724Z" fill="#E6E6E6"/>
<path d="M131.094 68.559L125.988 65.6839C117.086 59.5058 114.893 54.5996 114.618 51.5703C114.326 48.3381 116.046 46.5702 116.119 46.4968L116.159 46.4677L120.761 44.1134C121.346 43.8144 121.987 43.6432 122.643 43.6112C123.299 43.5792 123.954 43.6871 124.565 43.9277C125.176 44.1684 125.728 44.5363 126.186 45.007C126.645 45.4778 126.997 46.0407 127.222 46.6583L131.479 58.3798L136.199 54.8946L138.211 54.1005L139.836 51.9261L144.296 49.3213L147.61 52.3074L143.443 60.6518L141.127 61.2421L140.636 62.5084L140.593 62.5364L131.094 68.559Z" fill="#E6E6E6"/>
<path d="M121.956 31.0569C121.008 32.7917 119.499 34.1516 117.676 34.9128C115.853 35.674 113.826 35.791 111.928 35.2446C110.03 34.6981 108.374 33.5208 107.234 31.9066C106.093 30.2923 105.536 28.3373 105.654 26.3636C105.771 24.3899 106.557 22.5151 107.881 21.048C109.205 19.5809 110.988 18.609 112.938 18.2923C114.887 17.9756 116.886 18.333 118.606 19.3057C120.325 20.2784 121.662 21.8084 122.397 23.6436C122.437 23.7432 122.473 23.8428 122.509 23.9464C122.924 25.1033 123.09 26.3353 122.994 27.5611C122.899 28.7868 122.545 29.9783 121.956 31.0569Z" fill="#9E616A"/>
<path d="M123.205 23.9466C122.831 22.8989 122.994 23.4446 122.616 22.401C122.738 22.9151 122.7 23.4542 122.509 23.9466H112.16V17.9235C115.192 16.7205 118.156 15.6967 119.946 17.9235C121.542 17.9236 123.072 18.5582 124.2 19.6877C125.328 20.8172 125.962 22.3492 125.962 23.9466H123.205Z" fill="#2F2E41"/>
<path d="M119.536 40.6891C119.528 40.5776 119.517 40.462 119.501 40.3505C119.362 39.5322 119.136 38.731 118.828 37.9604C118.53 37.1199 118.227 36.2754 117.925 35.4349C118.314 36.9606 118.196 38.5719 117.587 40.0238C115.84 38.6615 116.942 35.5464 114.658 35.5464C109.168 35.5464 103.518 31.0889 103.518 25.5877C103.518 20.0904 105.873 15.9795 111.364 15.9795C116.859 15.9795 121.315 18.497 121.422 23.9943C114.658 25.5877 120.814 40.1314 119.536 40.6891Z" fill="#2F2E41"/>
<path d="M104.204 24.745C107.72 24.745 110.57 21.8914 110.57 18.3714C110.57 14.8514 107.72 11.9978 104.204 11.9978C100.688 11.9978 97.8374 14.8514 97.8374 18.3714C97.8374 21.8914 100.688 24.745 104.204 24.745Z" fill="#2F2E41"/>
<path d="M106.338 18.6191C105.248 19.8898 103.541 20.3838 102.002 21.045C99.2839 22.2386 96.8982 24.0779 95.0511 26.4033C93.2041 28.7287 91.9514 31.4701 91.4019 34.3897C90.9761 36.7679 91.0318 39.2297 90.3594 41.5481C89.691 43.8665 88.0357 46.141 85.6604 46.5434C84.0529 46.8182 82.4415 46.1968 80.9295 45.5833C80.0979 45.2487 79.2663 44.9128 78.4348 44.5755C79.3022 42.3965 80.1682 40.2176 81.033 38.0386C79.6432 40.095 78.0269 41.9884 76.2146 43.6832C73.2344 42.4802 70.2516 41.2772 67.2661 40.0742C74.6111 40.102 73.3577 32.9636 75.001 25.8013C75.9042 21.8656 83.5953 19.2007 85.1033 15.4562C85.9182 13.4252 87.2971 11.6704 89.077 10.3996C90.8569 9.12873 92.9632 8.39498 95.1466 8.28518C97.33 8.17538 99.4991 8.69412 101.397 9.78002C103.295 10.8659 104.843 12.4735 105.857 14.4125C107.365 15.014 107.409 17.3643 106.338 18.6191Z" fill="#2F2E41"/>
<path d="M298.676 194.878L0.759397 195C0.633749 195 0.513249 194.95 0.424403 194.861C0.335557 194.772 0.285645 194.651 0.285645 194.526C0.285645 194.4 0.335557 194.279 0.424403 194.19C0.513249 194.101 0.633749 194.051 0.759397 194.051L298.676 193.929C298.802 193.929 298.922 193.979 299.011 194.068C299.1 194.157 299.15 194.277 299.15 194.403C299.15 194.529 299.1 194.65 299.011 194.739C298.922 194.828 298.802 194.878 298.676 194.878Z" fill="#CACACA"/>
</g>
<defs>
<clipPath id="clip0_52_243">
<rect width="298.864" height="195" fill="white" transform="translate(0.285645)"/>
</clipPath>
</defs>
</svg>
