<svg width="281" height="195" viewBox="0 0 281 195" fill="none" xmlns="http://www.w3.org/2000/svg">
<g clip-path="url(#clip0_52_411)">
<path d="M74.858 18.9804L82.0116 25.7384L78.7293 30.3722L71.4198 22.9575C71.1029 22.9359 70.7837 22.8686 70.4714 22.7495C68.7728 22.1018 67.9198 20.1969 68.5661 18.4947C69.2124 16.7925 71.1133 15.9377 72.8119 16.5854C73.8952 16.9984 74.6321 17.9233 74.858 18.9804Z" fill="#FFB6B6"/>
<path d="M51.4093 189L56.5699 188.999L59.0249 169.052L51.4082 169.052L51.4093 189Z" fill="#FFB6B6"/>
<path d="M51.2278 194.395L67.0976 194.394V194.193C67.0973 190.774 64.3319 188.003 60.9206 188.003L58.0214 185.799L52.6129 188.003L51.2275 188.003L51.2278 194.395Z" fill="#2F2E41"/>
<path d="M63.4385 183.539L68.2755 185.341L77.5161 167.503L70.3771 164.842L63.4385 183.539Z" fill="#FFB6B6"/>
<path d="M61.3911 188.532L76.2655 194.075L76.3354 193.887C77.5245 190.683 75.8967 187.119 72.6994 185.927L70.7488 182.849L64.9128 183.025L63.6144 182.541L61.3911 188.532Z" fill="#2F2E41"/>
<path d="M73.212 85.7427L83.6855 145.436L73.8666 182.499L64.7023 178.891L66.0115 175.939L64.0477 172.003L66.9934 152.324L66.9979 139.747L58.811 114.606L56.5199 155.932L60.1201 176.595L59.4424 182.499L48.6648 183.811L49.974 179.547L43.1007 158.884L44.4099 154.948L35.2456 106.734L37.5367 91.3185L73.212 85.7427Z" fill="#2F2E41"/>
<path d="M42.2829 26.8689H55.331L59.3023 33.4286L63.5572 32.4447L65.7129 33.4286L75.3399 35.3966L72.3942 52.7799L71.7396 72.7871L72.0669 81.3148C75.508 83.8344 74.6198 87.3068 73.8566 91.1793C73.8566 91.1793 40.9737 100.191 35.737 97.3126V93.5937L38.8463 68.6873L27.3909 40.4804C26.8883 36.6188 30.9594 35.5756 34.7551 34.7406L38.6826 33.4286L42.2829 26.8689Z" fill="#6C63FF"/>
<path d="M72.3939 37.6925L75.3396 35.3966L82.0414 37.6925L79.5944 33.7566V31.8597L75.6669 30.8048L75.3396 27.8529L72.3939 25.5376L77.2176 19.9592L80.74 22.9344L82.8674 22.9331L85.795 25.8669L96.2908 40.2277C98.5223 43.2809 97.8804 47.6539 94.7434 49.7611C93.5372 50.5715 92.0877 51.14 90.3952 51.14H71.8359L72.3939 37.6925Z" fill="#6C63FF"/>
<path d="M50.041 24.8172C55.4567 24.8172 59.8471 20.4176 59.8471 14.9904C59.8471 9.56318 55.4567 5.16357 50.041 5.16357C44.6252 5.16357 40.2349 9.56318 40.2349 14.9904C40.2349 20.4176 44.6252 24.8172 50.041 24.8172Z" fill="#FFB6B6"/>
<path d="M31.192 102.895L30.9593 93.0461L36.5553 92.1279L36.4316 102.55C36.6391 102.791 36.8156 103.066 36.9507 103.372C37.6851 105.038 36.9328 106.985 35.2705 107.721C33.6081 108.457 31.6651 107.703 30.9306 106.037C30.4623 104.975 30.6006 103.799 31.192 102.895Z" fill="#FFB6B6"/>
<path d="M31.0266 37.3331C28.8189 37.2063 27.034 39.1111 27.2989 41.3111L21.9435 71.2142L21.0918 73.0111L22.0685 74.0219L22.2739 76.3391L30.4279 97.9199L40.6175 98.2977L36.8215 53.1499L34.1828 39.735C33.7161 38.3656 32.4682 37.416 31.0266 37.3331Z" fill="#6C63FF"/>
<path d="M41.3665 98.0034C41.4644 105.094 38.4208 106.609 33.5114 105.125C29.3579 103.87 25.6562 102.351 25.6562 98.0034C25.6562 93.656 28.1811 87.2267 33.5114 89.382C38.2805 86.7581 43.759 92.9763 41.3665 98.0034Z" fill="#FF6584"/>
<path d="M33.2285 89.5586C32.6017 88.4153 32.5586 87.0186 33.1409 85.848C33.6597 84.8053 34.6868 84.0289 35.819 83.7847C36.4351 83.6518 36.6984 84.6001 36.08 84.7335C35.2004 84.9232 34.6856 88.5495 34.2638 89.3506C33.81 90.2124 33.6124 88.2157 34.0763 89.062C34.3808 89.6173 33.5332 90.1143 33.2285 89.5586Z" fill="#3F3D56"/>
<path d="M80.6423 12.3986C80.6423 16.746 77.6966 21.0043 72.7872 19.5206C68.6337 18.2653 63.3405 18.7857 67.4555 11.4547C61.9688 8.70554 67.4569 1.62183 72.7872 3.77717C77.5564 1.15327 80.6423 8.05113 80.6423 12.3986Z" fill="#FF6584"/>
<path d="M72.5041 3.95388C70.5938 4.40184 71.5757 4.59466 72.4166 2.07603C72.7855 0.971106 73.9625 0.256952 75.0946 0.012733C75.7108 -0.120173 75.9741 0.828151 75.3557 0.961548C74.4761 1.15127 73.7204 1.70468 73.2986 2.50581C72.8449 3.36766 72.888 2.61099 73.352 3.45725C73.6564 4.01256 72.8088 4.50961 72.5041 3.95388Z" fill="#3F3D56"/>
<path d="M25.7713 187.058C24.8267 187.118 24.3047 185.942 25.0193 185.256L25.0904 184.973C25.081 184.95 25.0716 184.927 25.0621 184.905C24.1069 182.622 20.8694 182.638 19.9223 184.924C19.0817 186.953 18.0114 188.985 17.7479 191.131C17.6297 192.078 17.6829 193.042 17.8926 193.972C15.9228 189.66 14.8863 184.951 14.8863 180.216C14.8863 179.027 14.9512 177.837 15.0841 176.65C15.1934 175.68 15.344 174.715 15.5389 173.759C16.5932 168.592 18.876 163.671 22.1687 159.56C23.7516 158.693 25.0716 157.337 25.869 155.713C26.1554 155.127 26.3799 154.496 26.4862 153.854C26.3061 153.878 25.807 151.129 25.9428 150.96C25.6918 150.578 25.2425 150.389 24.9683 150.016C23.6047 148.163 21.726 148.487 20.7453 151.004C18.6502 152.064 18.6299 153.821 19.9155 155.512C20.7333 156.587 20.8457 158.042 21.5633 159.193C21.4895 159.288 21.4127 159.379 21.3389 159.474C19.985 161.214 18.814 163.085 17.8269 165.05C18.1059 162.866 17.694 160.235 16.9918 158.539C16.1925 156.607 14.6943 154.979 13.375 153.309C11.7903 151.302 8.54063 152.178 8.26143 154.722C8.25873 154.746 8.2561 154.771 8.25351 154.795C8.44948 154.906 8.64146 155.024 8.82899 155.148C9.89866 155.857 9.52898 157.519 8.26155 157.715L8.23285 157.719C8.30373 158.427 8.42481 159.128 8.60198 159.817C6.90944 166.377 10.5635 168.766 15.781 168.873C15.8962 168.932 16.0085 168.991 16.1236 169.048C15.595 170.539 15.1727 172.069 14.8597 173.62C14.5791 174.99 14.3842 176.375 14.275 177.766C14.1391 179.521 14.1509 181.285 14.2986 183.037L14.2897 182.975C13.9147 181.045 12.8693 179.243 11.3513 177.994C9.0901 176.132 5.89539 175.447 3.45591 173.951C2.28161 173.231 0.776835 174.161 0.981781 175.526L0.991757 175.591C1.35499 175.739 1.70935 175.911 2.05192 176.103C2.24789 176.214 2.43987 176.331 2.6274 176.456C3.69707 177.165 3.32739 178.826 2.05996 179.022L2.03123 179.027C2.01057 179.03 1.99284 179.033 1.9722 179.036C2.59531 180.518 3.46352 181.894 4.55027 183.081C5.60857 188.807 10.154 189.35 15.0162 187.683H15.0192C15.5507 190.003 16.3274 192.27 17.3256 194.43H25.5648C25.5944 194.339 25.6209 194.244 25.6475 194.152C24.8856 194.199 24.1178 194.155 23.3677 194.016C23.979 193.264 24.5903 192.507 25.2016 191.755C25.2163 191.74 25.2282 191.725 25.24 191.711C25.55 191.326 25.8631 190.944 26.1732 190.559L26.1733 190.559C26.1927 189.378 26.0512 188.201 25.7713 187.058Z" fill="#CCCCCC"/>
<path d="M117.925 194.455C117.925 194.757 117.683 195 117.381 195H1.57095C1.2692 195 1.02686 194.757 1.02686 194.455C1.02686 194.152 1.2692 193.909 1.57095 193.909H117.381C117.683 193.909 117.925 194.152 117.925 194.455Z" fill="#CCCCCC"/>
<path d="M233.656 18.2323C233.656 17.7269 233.246 17.3159 232.741 17.3159H218.567C218.063 17.3159 217.653 17.7269 217.653 18.2323C217.653 18.7377 218.063 19.1487 218.567 19.1487H232.741C233.246 19.1487 233.656 18.7377 233.656 18.2323Z" fill="#CCCCCC"/>
<path d="M256.974 18.3275C256.974 17.8221 256.564 17.4111 256.06 17.4111H241.886C241.381 17.4111 240.971 17.8221 240.971 18.3275C240.971 18.8329 241.381 19.2439 241.886 19.2439H256.06C256.564 19.2439 256.974 18.8329 256.974 18.3275Z" fill="#CCCCCC"/>
<path d="M280.292 18.4227C280.292 17.9173 279.882 17.5063 279.378 17.5063H265.204C264.7 17.5063 264.29 17.9173 264.29 18.4227C264.29 18.9281 264.7 19.3391 265.204 19.3391H279.378C279.882 19.3391 280.292 18.9281 280.292 18.4227Z" fill="#CCCCCC"/>
<path d="M256.974 38.9459C256.974 38.4405 256.564 38.0295 256.06 38.0295H241.886C241.381 38.0295 240.971 38.4405 240.971 38.9459C240.971 39.4513 241.381 39.8623 241.886 39.8623H256.06C256.564 39.8623 256.974 39.4513 256.974 38.9459Z" fill="#CCCCCC"/>
<path d="M210.337 38.9459C210.337 38.4405 209.927 38.0295 209.423 38.0295H195.249C194.745 38.0295 194.334 38.4405 194.334 38.9459C194.334 39.4513 194.745 39.8623 195.249 39.8623H209.423C209.927 39.8623 210.337 39.4513 210.337 38.9459Z" fill="#CCCCCC"/>
<path d="M233.656 39.0414C233.656 38.536 233.246 38.125 232.741 38.125H218.567C218.063 38.125 217.653 38.536 217.653 39.0414C217.653 39.5468 218.063 39.9578 218.567 39.9578H232.741C233.246 39.9578 233.656 39.5468 233.656 39.0414Z" fill="#CCCCCC"/>
<path d="M256.974 60.0226C256.974 59.5172 256.564 59.1062 256.06 59.1062H241.886C241.381 59.1062 240.971 59.5172 240.971 60.0226C240.971 60.528 241.381 60.939 241.886 60.939H256.06C256.564 60.939 256.974 60.528 256.974 60.0226Z" fill="#CCCCCC"/>
<path d="M280.292 60.1178C280.292 59.6124 279.882 59.2014 279.378 59.2014H265.204C264.7 59.2014 264.29 59.6124 264.29 60.1178C264.29 60.6232 264.7 61.0342 265.204 61.0342H279.378C279.882 61.0342 280.292 60.6232 280.292 60.1178Z" fill="#CCCCCC"/>
<path d="M187.019 59.9274C187.019 59.422 186.609 59.011 186.104 59.011H171.931C171.426 59.011 171.016 59.422 171.016 59.9274C171.016 60.4328 171.426 60.8437 171.931 60.8437H186.104C186.609 60.8437 187.019 60.4328 187.019 59.9274Z" fill="#CCCCCC"/>
<path d="M210.337 60.0226C210.337 59.5172 209.927 59.1062 209.423 59.1062H195.249C194.745 59.1062 194.334 59.5172 194.334 60.0226C194.334 60.528 194.745 60.939 195.249 60.939H209.423C209.927 60.939 210.337 60.528 210.337 60.0226Z" fill="#CCCCCC"/>
<path d="M233.656 60.1178C233.656 59.6124 233.246 59.2014 232.741 59.2014H218.567C218.063 59.2014 217.653 59.6124 217.653 60.1178C217.653 60.6232 218.063 61.0342 218.567 61.0342H232.741C233.246 61.0342 233.656 60.6232 233.656 60.1178Z" fill="#CCCCCC"/>
<path d="M225.77 13.8203C228.917 13.8203 231.469 11.3175 231.469 8.2301C231.469 5.14271 228.917 2.63989 225.77 2.63989C222.623 2.63989 220.072 5.14271 220.072 8.2301C220.072 11.3175 222.623 13.8203 225.77 13.8203Z" fill="#CCCCCC"/>
<path d="M225.35 10.5382L225.338 10.538C225.186 10.5337 225.046 10.4546 224.965 10.3264L223.033 7.29087C222.897 7.07743 222.96 6.7942 223.173 6.65817C223.386 6.52282 223.668 6.58479 223.804 6.79822L225.373 9.26344L228.32 5.1543C228.468 4.94869 228.754 4.90239 228.959 5.04959C229.164 5.19725 229.21 5.48362 229.063 5.689L225.722 10.3474C225.636 10.4673 225.497 10.5382 225.35 10.5382Z" fill="#E6E6E6"/>
<path d="M250.003 13.8203C253.15 13.8203 255.702 11.3175 255.702 8.2301C255.702 5.14271 253.15 2.63989 250.003 2.63989C246.856 2.63989 244.305 5.14271 244.305 8.2301C244.305 11.3175 246.856 13.8203 250.003 13.8203Z" fill="#CCCCCC"/>
<path d="M249.583 10.5382L249.571 10.538C249.419 10.5337 249.279 10.4546 249.198 10.3264L247.266 7.29087C247.13 7.07743 247.193 6.7942 247.406 6.65817C247.619 6.52282 247.901 6.58479 248.037 6.79822L249.606 9.26344L252.553 5.1543C252.701 4.94869 252.987 4.90239 253.191 5.04959C253.397 5.19725 253.443 5.48362 253.296 5.689L249.955 10.3474C249.869 10.4673 249.73 10.5382 249.583 10.5382Z" fill="#E6E6E6"/>
<path d="M272.407 13.362C275.554 13.362 278.105 10.8592 278.105 7.77184C278.105 4.68446 275.554 2.18164 272.407 2.18164C269.26 2.18164 266.708 4.68446 266.708 7.77184C266.708 10.8592 269.26 13.362 272.407 13.362Z" fill="#CCCCCC"/>
<path d="M271.987 10.08L271.974 10.0797C271.823 10.0755 271.683 9.9963 271.601 9.86811L269.67 6.83262C269.534 6.61918 269.597 6.33595 269.81 6.19992C270.022 6.06457 270.305 6.12654 270.441 6.33997L272.01 8.80519L274.957 4.69605C275.105 4.49044 275.391 4.44413 275.595 4.59134C275.8 4.739 275.847 5.02537 275.7 5.23075L272.358 9.88913C272.272 10.0091 272.134 10.08 271.987 10.08Z" fill="#E6E6E6"/>
<path d="M280.292 37.6666C280.292 37.1612 279.882 36.7502 279.378 36.7502H265.204C264.7 36.7502 264.29 37.1612 264.29 37.6666C264.29 38.172 264.7 38.583 265.204 38.583H279.378C279.882 38.583 280.292 38.172 280.292 37.6666Z" fill="#CCCCCC"/>
<path d="M272.407 32.6059C275.554 32.6059 278.105 30.1031 278.105 27.0157C278.105 23.9284 275.554 21.4255 272.407 21.4255C269.26 21.4255 266.708 23.9284 266.708 27.0157C266.708 30.1031 269.26 32.6059 272.407 32.6059Z" fill="#CCCCCC"/>
<path d="M271.987 29.3239L271.974 29.3236C271.823 29.3194 271.683 29.2402 271.601 29.112L269.67 26.0765C269.534 25.8631 269.597 25.5798 269.81 25.4438C270.022 25.3085 270.305 25.3704 270.441 25.5839L272.01 28.0491L274.957 23.9399C275.105 23.7343 275.391 23.688 275.595 23.8352C275.8 23.9829 275.847 24.2693 275.7 24.4746L272.358 29.133C272.272 29.2529 272.134 29.3239 271.987 29.3239Z" fill="#E6E6E6"/>
<path d="M249.089 35.8135C252.236 35.8135 254.787 33.3106 254.787 30.2233C254.787 27.1359 252.236 24.6331 249.089 24.6331C245.941 24.6331 243.39 27.1359 243.39 30.2233C243.39 33.3106 245.941 35.8135 249.089 35.8135Z" fill="#CCCCCC"/>
<path d="M248.669 32.5314L248.656 32.5312C248.504 32.5269 248.365 32.4477 248.283 32.3195L246.352 29.284C246.216 29.0706 246.278 28.7874 246.491 28.6513C246.704 28.516 246.987 28.578 247.123 28.7914L248.691 31.2566L251.639 27.1475C251.787 26.9419 252.073 26.8955 252.277 27.0428C252.482 27.1904 252.529 27.4768 252.381 27.6822L249.04 32.3405C248.954 32.4605 248.816 32.5314 248.669 32.5314Z" fill="#E6E6E6"/>
<path d="M226.228 35.8135C229.375 35.8135 231.926 33.3106 231.926 30.2233C231.926 27.1359 229.375 24.6331 226.228 24.6331C223.081 24.6331 220.529 27.1359 220.529 30.2233C220.529 33.3106 223.081 35.8135 226.228 35.8135Z" fill="#CCCCCC"/>
<path d="M225.808 32.5314L225.795 32.5312C225.644 32.5269 225.504 32.4477 225.422 32.3195L223.491 29.284C223.355 29.0706 223.417 28.7874 223.63 28.6513C223.843 28.516 224.126 28.578 224.262 28.7914L225.83 31.2566L228.778 27.1475C228.926 26.9419 229.212 26.8955 229.416 27.0428C229.621 27.1904 229.668 27.4768 229.521 27.6822L226.179 32.3405C226.093 32.4605 225.955 32.5314 225.808 32.5314Z" fill="#E6E6E6"/>
<path d="M202.452 35.8135C205.599 35.8135 208.15 33.3106 208.15 30.2233C208.15 27.1359 205.599 24.6331 202.452 24.6331C199.305 24.6331 196.753 27.1359 196.753 30.2233C196.753 33.3106 199.305 35.8135 202.452 35.8135Z" fill="#CCCCCC"/>
<path d="M202.032 32.5314L202.019 32.5312C201.868 32.5269 201.728 32.4477 201.646 32.3195L199.715 29.284C199.579 29.0706 199.642 28.7874 199.855 28.6513C200.067 28.516 200.35 28.578 200.486 28.7914L202.055 31.2566L205.002 27.1475C205.15 26.9419 205.436 26.8955 205.64 27.0428C205.845 27.1904 205.892 27.4768 205.745 27.6822L202.403 32.3405C202.317 32.4605 202.179 32.5314 202.032 32.5314Z" fill="#E6E6E6"/>
<path d="M199.654 38.8204C199.654 37.748 198.783 36.876 197.713 36.876H167.638C166.567 36.876 165.697 37.748 165.697 38.8204C165.697 39.8928 166.567 40.7649 167.638 40.7649H197.713C198.783 40.7649 199.654 39.8928 199.654 38.8204Z" fill="#3F3D56"/>
<path d="M182.922 31.971C189.6 31.971 195.013 26.6603 195.013 20.1092C195.013 13.558 189.6 8.24731 182.922 8.24731C176.244 8.24731 170.83 13.558 170.83 20.1092C170.83 26.6603 176.244 31.971 182.922 31.971Z" fill="#6C63FF"/>
<path d="M182.03 25.0067C182.021 25.0067 182.012 25.0067 182.003 25.0063C181.682 24.9972 181.385 24.8292 181.212 24.5572L177.114 18.1162C176.826 17.6633 176.958 17.0623 177.41 16.7736C177.862 16.4864 178.461 16.6179 178.75 17.0708L182.078 22.3018L188.333 13.5826C188.646 13.1463 189.253 13.048 189.687 13.3604C190.122 13.6737 190.221 14.2814 189.908 14.7172L182.818 24.6018C182.636 24.8562 182.342 25.0067 182.03 25.0067Z" fill="#E6E6E6"/>
<path d="M58.2317 7.11338C58.8261 7.40662 59.3839 7.77317 59.8869 8.19469C60.0332 8.31841 58.6478 8.48338 58.785 8.61166C57.8019 10.197 61.8987 12.1809 60.1566 12.2772C59.8091 11.5349 54.4459 9.79835 53.8652 9.22562C53.9475 9.88541 56.1193 10.7056 56.0416 11.3608C54.0893 11.2371 49.7365 10.504 47.3544 9.52803C48.7896 12.3941 48.8004 14.6467 45.5255 15.4845C43.0745 15.4845 41.3633 17.9178 42.1876 20.2309L42.7822 21.8991L40.4961 19.6082C39.5453 18.6554 37.7039 16.4014 37.0979 13.9949C36.6626 12.2666 37.0172 10.4557 37.9231 8.92167C37.9566 8.86499 37.9869 8.81031 38.0133 8.75828C37.4967 8.99652 36.9572 9.1798 36.4039 9.30352C36.3811 8.30465 40.2491 6.45361 40.4961 5.86253C41.6437 3.10882 39.9702 3.1134 44.6111 3.1134C45.0111 2.84613 45.8148 3.30272 46.8972 3.1134C48.889 2.765 49.7124 1.40285 52.1855 1.92368C54.3196 2.37314 56.3963 3.0324 58.007 3.70494L58.785 4.02978C59.2559 4.78577 59.4479 5.4914 59.4205 6.13284C59.3793 6.1237 59.3336 6.11453 59.2925 6.10994C58.4832 5.99539 59.0273 6.93926 58.2317 7.11338Z" fill="#2F2E41"/>
</g>
<defs>
<clipPath id="clip0_52_411">
<rect width="279.33" height="195" fill="white" transform="translate(0.962891)"/>
</clipPath>
</defs>
</svg>
