<svg width="303" height="195" viewBox="0 0 303 195" fill="none" xmlns="http://www.w3.org/2000/svg">
<g clip-path="url(#clip0_52_278)">
<path d="M228.385 155.286C227.561 149.729 227.343 144.099 227.735 138.495L228.385 129.219C224.806 136.346 225.615 145.726 228.385 155.286Z" fill="#CACACA"/>
<path d="M231.175 156.838C230.779 153.522 230.674 150.177 230.863 146.843L231.175 141.322C229.454 145.564 229.843 151.147 231.175 156.838Z" fill="#CACACA"/>
<path d="M243.579 163.666V166.769C243.578 167.016 243.479 167.252 243.305 167.426C243.131 167.6 242.895 167.699 242.649 167.7H241.099C241.058 167.7 241.017 167.708 240.98 167.723C240.942 167.739 240.908 167.762 240.879 167.791C240.85 167.819 240.827 167.854 240.812 167.891C240.796 167.929 240.788 167.97 240.789 168.01V193.457C240.787 193.703 240.689 193.939 240.515 194.114C240.341 194.288 240.105 194.386 239.858 194.388H220.945C220.698 194.387 220.462 194.289 220.287 194.115C220.113 193.94 220.015 193.703 220.015 193.457V168.01C220.014 167.928 219.982 167.849 219.924 167.791C219.865 167.733 219.787 167.7 219.705 167.7H217.844C217.598 167.7 217.361 167.602 217.187 167.427C217.012 167.253 216.914 167.016 216.914 166.769V163.666C216.914 163.544 216.938 163.422 216.985 163.309C217.031 163.196 217.1 163.094 217.186 163.007C217.273 162.921 217.375 162.852 217.488 162.805C217.601 162.759 217.722 162.735 217.844 162.735H242.649C242.895 162.736 243.132 162.834 243.306 163.008C243.48 163.183 243.578 163.419 243.579 163.666Z" fill="#CCCCCC"/>
<path d="M240.817 168.352H220.043V169.283H240.817V168.352Z" fill="#E6E6E6"/>
<path d="M240.789 182.051C233.837 184.93 226.81 184.962 219.705 182.051V175.492C226.545 173.193 233.948 173.193 240.789 175.492V182.051Z" fill="#E6E6E6"/>
<path d="M140.956 77.6986C147.189 77.6986 152.241 72.6419 152.241 66.4042C152.241 60.1665 147.189 55.1099 140.956 55.1099C134.724 55.1099 129.671 60.1665 129.671 66.4042C129.671 72.6419 134.724 77.6986 140.956 77.6986Z" fill="#2F2E41"/>
<path d="M144.1 55.4208C146.053 55.4211 147.972 55.9285 149.671 56.8936C151.369 57.8586 152.788 59.2482 153.789 60.9266C154.79 62.6049 155.339 64.5145 155.382 66.4686C155.425 68.4228 154.96 70.3547 154.034 72.0754C155.012 70.8502 155.725 69.4345 156.126 67.9185C156.528 66.4025 156.609 64.8194 156.366 63.2701C156.122 61.7208 155.559 60.2393 154.711 58.92C153.864 57.6007 152.752 56.4725 151.444 55.6073C150.137 54.7422 148.665 54.159 147.12 53.895C145.575 53.631 143.993 53.692 142.473 54.074C140.953 54.456 139.529 55.1507 138.293 56.1138C137.056 57.077 136.033 58.2874 135.29 59.668C136.344 58.3425 137.684 57.2722 139.21 56.5369C140.735 55.8015 142.407 55.42 144.1 55.4208Z" fill="#2F2E41"/>
<path d="M119.869 66.3803C138.177 66.3803 153.018 51.5263 153.018 33.2031C153.018 14.8798 138.177 0.0258789 119.869 0.0258789C101.561 0.0258789 86.7197 14.8798 86.7197 33.2031C86.7197 51.5263 101.561 66.3803 119.869 66.3803Z" fill="#2F2E41"/>
<path d="M93.852 12.6182C99.5639 6.18898 107.548 2.23232 116.12 1.58327C124.691 0.934233 133.179 3.64359 139.792 9.13951C139.521 8.88162 139.253 8.62163 138.971 8.37103C132.4 2.52932 123.78 -0.461336 115.006 0.0566426C106.232 0.574621 98.0226 4.55882 92.183 11.1332C86.3434 17.7076 83.3516 26.334 83.8653 35.1156C84.3791 43.8973 88.3564 52.1152 94.9227 57.9626C95.2044 58.2132 95.4938 58.4493 95.7814 58.6885C89.5533 52.7589 85.8706 44.6394 85.5106 36.0438C85.1507 27.4481 88.1415 19.0486 93.852 12.6182Z" fill="#2F2E41"/>
<path d="M119.588 66.099C131.379 66.099 140.938 56.5321 140.938 44.7307C140.938 32.9292 131.379 23.3623 119.588 23.3623C107.796 23.3623 98.2373 32.9292 98.2373 44.7307C98.2373 56.5321 107.796 66.099 119.588 66.099Z" fill="#FFB8B8"/>
<path d="M130.494 71.8999L107.647 72.9279C107.647 72.9279 109.554 84.7537 97.1931 85.8783C84.8324 87.003 73.5954 83.629 69.1006 92.0639C64.6058 100.499 66.5432 130.533 66.5432 130.533C66.5432 130.533 74.9709 160.899 81.7131 165.397C88.4553 169.896 147.449 163.71 147.449 163.71L172.139 132.51L171.303 108.447C170.866 95.8822 159.404 86.4483 147.058 88.7736C146.816 88.8192 146.572 88.8684 146.326 88.9211C146.326 88.9211 143.614 86.8923 136.172 83.1685C131.622 80.8912 130.494 71.8999 130.494 71.8999Z" fill="#CACACA"/>
<path d="M80.8994 85.3159C80.8994 85.3159 86.3297 95.1773 84.0823 109.235C81.8349 123.294 91.2645 153.026 91.2645 153.026L98.0067 151.339C98.0067 151.339 93.5119 122.098 94.6356 115.35C95.7593 108.602 96.0694 88.6899 90.4509 85.3159C84.8324 81.942 80.8994 85.3159 80.8994 85.3159Z" fill="#2F2E41"/>
<path d="M145.93 90.4866L148.292 152.745L152.787 155.557C152.787 155.557 159.248 87.2341 155.877 87.2341H149.018C148.612 87.2341 148.21 87.3142 147.835 87.4696C147.46 87.6251 147.119 87.853 146.832 88.1403C146.545 88.4277 146.317 88.7687 146.162 89.1441C146.006 89.5195 145.926 89.9219 145.926 90.3282C145.926 90.381 145.928 90.4338 145.93 90.4866Z" fill="#2F2E41"/>
<path d="M94.3547 151.62C95.9062 151.62 97.1639 150.362 97.1639 148.809C97.1639 147.256 95.9062 145.997 94.3547 145.997C92.8032 145.997 91.5454 147.256 91.5454 148.809C91.5454 150.362 92.8032 151.62 94.3547 151.62Z" fill="#6C63FF"/>
<path d="M150.539 154.432C152.091 154.432 153.348 153.173 153.348 151.62C153.348 150.068 152.091 148.809 150.539 148.809C148.988 148.809 147.73 150.068 147.73 151.62C147.73 153.173 148.988 154.432 150.539 154.432Z" fill="#6C63FF"/>
<path d="M101.328 18.02V39.3884H106.272L112.565 32.6405L111.722 39.3884H133.578L132.229 32.6405L134.926 39.3884H138.41V18.02H101.328Z" fill="#2F2E41"/>
<path d="M97.9565 43.325C98.8874 43.325 99.6421 41.9403 99.6421 40.2322C99.6421 38.5241 98.8874 37.1394 97.9565 37.1394C97.0256 37.1394 96.271 38.5241 96.271 40.2322C96.271 41.9403 97.0256 43.325 97.9565 43.325Z" fill="#FFB8B8"/>
<path d="M141.219 43.325C142.15 43.325 142.904 41.9403 142.904 40.2322C142.904 38.5241 142.15 37.1394 141.219 37.1394C140.288 37.1394 139.533 38.5241 139.533 40.2322C139.533 41.9403 140.288 43.325 141.219 43.325Z" fill="#FFB8B8"/>
<path d="M187.982 188.814V190.697C187.984 191.214 187.888 191.727 187.7 192.209C187.617 192.423 187.516 192.631 187.4 192.829C187.03 193.45 186.506 193.964 185.878 194.321C185.25 194.678 184.54 194.865 183.818 194.865H45.3618C44.6399 194.865 43.9302 194.678 43.3024 194.321C42.6746 193.964 42.1502 193.45 41.7807 192.829C41.6638 192.631 41.5632 192.423 41.4799 192.209C41.2924 191.727 41.1967 191.214 41.1978 190.697V188.814C41.1976 188.266 41.3051 187.725 41.5142 187.219C41.7233 186.713 42.0298 186.254 42.4163 185.867C42.8027 185.48 43.2616 185.173 43.7666 184.964C44.2716 184.754 44.8129 184.646 45.3596 184.646H53.3427V183.768C53.3427 183.745 53.3472 183.722 53.3558 183.701C53.3645 183.68 53.3772 183.661 53.3933 183.645C53.4094 183.629 53.4285 183.616 53.4495 183.607C53.4705 183.599 53.493 183.594 53.5158 183.594H57.6805C57.7264 183.594 57.7706 183.612 57.8031 183.645C57.8357 183.677 57.854 183.721 57.8541 183.767V184.646H60.4555V183.768C60.4554 183.745 60.4599 183.722 60.4686 183.701C60.4772 183.68 60.49 183.661 60.5061 183.645C60.5221 183.629 60.5412 183.616 60.5622 183.607C60.5832 183.599 60.6058 183.594 60.6285 183.594H64.7932C64.8392 183.594 64.8833 183.612 64.9158 183.645C64.9484 183.677 64.9668 183.721 64.9668 183.767V184.646H67.5713V183.768C67.5713 183.745 67.5757 183.722 67.5844 183.701C67.5931 183.68 67.6058 183.661 67.6219 183.645C67.638 183.629 67.657 183.616 67.6781 183.607C67.6991 183.599 67.7216 183.594 67.7444 183.594H71.909C71.955 183.594 71.9991 183.612 72.0317 183.645C72.0643 183.677 72.0826 183.721 72.0827 183.767V184.646H74.684V183.768C74.684 183.745 74.6885 183.722 74.6971 183.701C74.7058 183.68 74.7186 183.661 74.7346 183.645C74.7507 183.629 74.7698 183.616 74.7908 183.607C74.8118 183.599 74.8343 183.594 74.8571 183.594H79.0218C79.0677 183.594 79.1119 183.612 79.1444 183.645C79.177 183.677 79.1953 183.721 79.1954 183.767V184.646H81.7968V183.768C81.7967 183.745 81.8012 183.722 81.8099 183.701C81.8185 183.68 81.8313 183.661 81.8474 183.645C81.8634 183.629 81.8825 183.616 81.9035 183.607C81.9245 183.599 81.9471 183.594 81.9698 183.594H86.1345C86.1805 183.594 86.2246 183.612 86.2572 183.645C86.2897 183.677 86.3081 183.721 86.3081 183.767V184.646H88.9126V183.768C88.9126 183.745 88.917 183.722 88.9257 183.701C88.9344 183.68 88.9471 183.661 88.9632 183.645C88.9793 183.629 88.9983 183.616 89.0194 183.607C89.0404 183.599 89.0629 183.594 89.0857 183.594H93.2503C93.2963 183.594 93.3404 183.612 93.373 183.645C93.4055 183.677 93.4239 183.721 93.424 183.767V184.646H96.0254V183.768C96.0253 183.745 96.0298 183.722 96.0384 183.701C96.0471 183.68 96.0598 183.661 96.0759 183.645C96.092 183.629 96.1111 183.616 96.1321 183.607C96.1531 183.599 96.1757 183.594 96.1984 183.594H128.817C128.84 183.594 128.862 183.598 128.883 183.607C128.905 183.616 128.924 183.629 128.94 183.645C128.956 183.661 128.969 183.68 128.977 183.701C128.986 183.722 128.991 183.744 128.991 183.767V184.646H131.595V183.768C131.595 183.745 131.6 183.722 131.608 183.701C131.617 183.68 131.63 183.661 131.646 183.645C131.662 183.629 131.681 183.616 131.702 183.607C131.723 183.599 131.746 183.594 131.768 183.594H135.933C135.979 183.594 136.023 183.613 136.055 183.645C136.088 183.678 136.106 183.722 136.107 183.768V184.646H138.708V183.768C138.708 183.745 138.712 183.722 138.721 183.701C138.73 183.68 138.742 183.661 138.759 183.645C138.775 183.629 138.794 183.616 138.815 183.607C138.836 183.599 138.858 183.594 138.881 183.594H143.046C143.068 183.594 143.091 183.598 143.112 183.607C143.133 183.616 143.152 183.629 143.168 183.645C143.184 183.661 143.197 183.68 143.206 183.701C143.215 183.722 143.219 183.744 143.219 183.767V184.646H145.821V183.768C145.821 183.745 145.825 183.722 145.834 183.701C145.842 183.68 145.855 183.661 145.871 183.645C145.887 183.629 145.906 183.616 145.927 183.607C145.948 183.599 145.971 183.594 145.994 183.594H150.158C150.181 183.594 150.204 183.598 150.225 183.607C150.246 183.616 150.265 183.629 150.281 183.645C150.297 183.661 150.31 183.68 150.319 183.701C150.327 183.722 150.332 183.744 150.332 183.767V184.646H152.937V183.768C152.937 183.745 152.941 183.722 152.95 183.701C152.958 183.68 152.971 183.661 152.987 183.645C153.003 183.629 153.022 183.616 153.043 183.607C153.064 183.599 153.087 183.594 153.11 183.594H157.274C157.32 183.595 157.363 183.613 157.395 183.646C157.427 183.678 157.445 183.722 157.445 183.768V184.646H160.049V183.768C160.049 183.745 160.054 183.722 160.062 183.701C160.071 183.68 160.084 183.661 160.1 183.645C160.116 183.629 160.135 183.616 160.156 183.607C160.177 183.599 160.2 183.594 160.222 183.594H164.387C164.41 183.594 164.432 183.598 164.453 183.607C164.474 183.616 164.494 183.629 164.51 183.645C164.526 183.661 164.539 183.68 164.547 183.701C164.556 183.722 164.561 183.744 164.561 183.767V184.646H167.162V183.768C167.162 183.745 167.166 183.722 167.175 183.701C167.184 183.68 167.197 183.661 167.213 183.645C167.229 183.629 167.248 183.616 167.269 183.607C167.29 183.599 167.312 183.594 167.335 183.594H171.5C171.523 183.594 171.545 183.598 171.566 183.607C171.587 183.616 171.606 183.629 171.622 183.645C171.639 183.661 171.651 183.68 171.66 183.701C171.669 183.722 171.673 183.744 171.673 183.767V184.646H183.818C184.922 184.646 185.981 185.084 186.762 185.866C187.543 186.647 187.982 187.706 187.982 188.811L187.982 188.814Z" fill="#3F3D56"/>
<path d="M302.053 194.379H0.970459V195H302.053V194.379Z" fill="#3F3D56"/>
<path d="M176.834 109.485H50.0064C49.548 109.485 49.0941 109.575 48.6706 109.751C48.247 109.926 47.8622 110.184 47.5381 110.508C47.2139 110.833 46.9568 111.218 46.7814 111.642C46.6059 112.066 46.5156 112.52 46.5156 112.979V183.704C46.5156 184.631 46.8834 185.52 47.5381 186.175C48.1927 186.83 49.0806 187.198 50.0064 187.198H176.834C177.76 187.198 178.648 186.83 179.302 186.175C179.957 185.52 180.325 184.631 180.325 183.704V112.979C180.325 112.052 179.957 111.163 179.302 110.508C178.648 109.853 177.76 109.485 176.834 109.485Z" fill="#3F3D56"/>
<path d="M113.521 141.935C117.802 141.935 121.273 138.462 121.273 134.177C121.273 129.892 117.802 126.419 113.521 126.419C109.24 126.419 105.77 129.892 105.77 134.177C105.77 138.462 109.24 141.935 113.521 141.935Z" fill="#6C63FF"/>
<path d="M161.507 82.9238L200.639 43.45H219.113V42.8293H200.38L200.289 42.9215L161.066 82.4874L161.507 82.9238Z" fill="#3F3D56"/>
<path d="M287.015 27.2439H241.677V31.2873H287.015V27.2439Z" fill="#6C63FF"/>
<path d="M236.152 33.844H226.554V24.2378H236.152V33.844ZM227.174 33.2233H235.531V24.8584H227.174L227.174 33.2233Z" fill="#3F3D56"/>
<path d="M287.015 40.7219H241.677V44.7654H287.015V40.7219Z" fill="#6C63FF"/>
<path d="M236.152 47.3221H226.554V37.7161H236.152V47.3221ZM227.174 46.7014H235.531V38.3367H227.174L227.174 46.7014Z" fill="#3F3D56"/>
<path d="M287.015 54.2H241.677V58.2434H287.015V54.2Z" fill="#6C63FF"/>
<path d="M236.152 60.8001H226.554V51.1941H236.152V60.8001ZM227.174 60.1795H235.531V51.8147H227.174L227.174 60.1795Z" fill="#3F3D56"/>
</g>
<defs>
<clipPath id="clip0_52_278">
<rect width="301.083" height="195" fill="white" transform="translate(0.970459)"/>
</clipPath>
</defs>
</svg>
