<svg width="72" height="73" viewBox="0 0 72 73" fill="none" xmlns="http://www.w3.org/2000/svg">
<circle cx="36" cy="36.5" r="36" fill="#6C63FF" fill-opacity="0.1"/>
<path d="M35.9418 48.3182C34.2448 48.3182 32.7334 48.0265 31.4077 47.4432C30.0895 46.8523 29.0478 46.0417 28.2827 45.0114C27.5251 43.9735 27.1349 42.7765 27.1122 41.4205H32.0668C32.0971 41.9886 32.2827 42.4886 32.6236 42.9205C32.9721 43.3447 33.4342 43.6742 34.0099 43.9091C34.5857 44.1439 35.2334 44.2614 35.9531 44.2614C36.7031 44.2614 37.366 44.1288 37.9418 43.8636C38.5175 43.5985 38.9683 43.2311 39.294 42.7614C39.6198 42.2917 39.7827 41.75 39.7827 41.1364C39.7827 40.5152 39.6084 39.9659 39.2599 39.4886C38.919 39.0038 38.4266 38.625 37.7827 38.3523C37.1463 38.0795 36.3887 37.9432 35.5099 37.9432H33.3395V34.3295H35.5099C36.2524 34.3295 36.9077 34.2008 37.4759 33.9432C38.0516 33.6856 38.4986 33.3295 38.8168 32.875C39.1349 32.4129 39.294 31.875 39.294 31.2614C39.294 30.678 39.1539 30.1667 38.8736 29.7273C38.6009 29.2803 38.2145 28.9318 37.7145 28.6818C37.2221 28.4318 36.6463 28.3068 35.9872 28.3068C35.3205 28.3068 34.7107 28.428 34.1577 28.6705C33.6046 28.9053 33.1615 29.2424 32.8281 29.6818C32.4948 30.1212 32.3168 30.6364 32.294 31.2273H27.5781C27.6009 29.8864 27.9834 28.7045 28.7259 27.6818C29.4683 26.6591 30.4683 25.8598 31.7259 25.2841C32.991 24.7008 34.419 24.4091 36.0099 24.4091C37.616 24.4091 39.0213 24.7008 40.2259 25.2841C41.4304 25.8674 42.366 26.6553 43.0327 27.6477C43.7069 28.6326 44.0402 29.7386 44.0327 30.9659C44.0402 32.2689 43.6349 33.3561 42.8168 34.2273C42.0062 35.0985 40.9493 35.6515 39.6463 35.8864V36.0682C41.3584 36.2879 42.6615 36.8826 43.5554 37.8523C44.4569 38.8144 44.9039 40.0189 44.8963 41.4659C44.9039 42.7917 44.5213 43.9697 43.7486 45C42.9834 46.0303 41.9266 46.8409 40.5781 47.4318C39.2296 48.0227 37.6842 48.3182 35.9418 48.3182Z" fill="#6C63FF"/>
</svg>
