<svg width="169" height="195" viewBox="0 0 169 195" fill="none" xmlns="http://www.w3.org/2000/svg">
<g clip-path="url(#clip0_52_365)">
<path d="M168.112 173.096H123.051V172.512C134.847 172.512 146.16 167.826 154.502 159.484C162.843 151.142 167.529 139.827 167.529 128.03V96.5781H168.112V173.096Z" fill="#CCCCCC"/>
<path d="M45.1614 59.4197C43.9635 59.8761 42.7403 60.2629 41.4978 60.5784C39.8566 60.9784 38.93 61.1638 37.346 60.549C37.2903 60.5274 37.2372 60.5061 37.1871 60.4851C34.1846 59.2083 31.618 57.0861 29.7997 54.3769C27.9814 51.6676 26.9898 48.4881 26.9456 45.2254C26.9377 45.1135 26.9377 44.9958 26.9377 44.881C26.9362 44.328 26.9626 43.7753 27.0169 43.225C27.0863 42.4755 27.2062 41.7314 27.3758 40.9979L27.3599 40.9951C26.0774 39.6835 25.584 37.8869 25.7476 36.0817C25.8597 34.8578 26.248 33.6754 26.8834 32.6234C27.5188 31.5715 28.3846 30.6775 29.4156 30.0088C31.0314 28.9928 32.8533 28.3497 34.7488 28.1261C35.2578 28.0674 35.7696 28.0377 36.282 28.0372H41.0953C42.0894 27.8044 43.0993 27.6451 44.1168 27.5607H44.1247C53.812 26.7571 61.4516 33.1801 60.7391 40.9951C60.7338 41.0037 60.7259 41.0123 60.7206 41.0209C60.5148 41.3567 60.3327 41.6753 60.1717 41.9795C60.016 42.2636 59.8841 42.5362 59.7706 42.7945C58.8866 44.792 63.0877 75.7832 61.5809 76.2539C60.7233 76.5208 57.2663 53.4594 57.8865 57.8447C58.6676 63.3464 49.6243 57.7697 45.1614 59.4197Z" fill="#2F2E41"/>
<path d="M59.7548 115.443L73.1833 144.054L21.5269 138.822L32.3099 111.355L59.7548 115.443Z" fill="#FFB6B6"/>
<path d="M86.7119 172.808C77.7292 175.798 68.2628 177.066 58.8099 176.545L54.6992 169.878C54.6992 169.878 54.5271 172.361 54.2704 176.157C49.7705 175.636 45.3293 174.694 41.0049 173.345C32.8041 170.78 25.1167 166.806 17.3243 163.141C15.746 153.731 15.1538 139.221 23.8797 130.774L70.8471 139.382C70.8471 139.382 78.3827 145.019 76.3668 147.038C74.3509 149.054 74.0387 148.742 75.3632 150.067C76.6877 151.391 79.5497 153.162 79.5789 154.321C79.5905 154.773 82.8026 162.975 86.7119 172.808Z" fill="#2F2E41"/>
<path d="M51.5534 60.1545L40.2062 60.9463L32.8721 68.0342L30.3036 68.4927C27.9948 68.9044 25.9173 70.1492 24.4651 71.9909C23.0128 73.8326 22.2869 76.1433 22.4248 78.4848C22.9531 87.4372 24.1361 100.814 26.6086 105.154C30.4424 111.883 33.609 109.772 30.4424 111.883C27.2757 113.994 25.1497 112.335 26.6086 115.672C28.0674 119.009 24.6369 123.289 24.6369 123.289L23.2712 124.655L24.7196 125.248L70.872 131.254C70.872 131.254 66.8813 113.31 69.377 108.901C71.8727 104.493 77.9239 91.1681 72.5233 85.9542L67.2429 67.3698L58.1599 64.6905L51.5534 60.1545Z" fill="#6C63FF"/>
<path d="M120.243 133.806C119.483 133.782 118.738 133.593 118.059 133.252C117.38 132.912 116.783 132.428 116.309 131.834C115.835 131.24 115.496 130.55 115.315 129.812C115.133 129.075 115.115 128.306 115.26 127.56L93.6108 112.897L96.194 105.911L121.78 123.515C123.017 123.852 124.087 124.632 124.788 125.706C125.489 126.78 125.771 128.074 125.582 129.343C125.392 130.611 124.744 131.766 123.76 132.589C122.776 133.411 121.525 133.844 120.243 133.806Z" fill="#FFB6B6"/>
<path d="M59.0951 66.4922L55.9492 67.738L72.7306 100.517L107.471 124.2L112.479 115.736L86.0339 92.8911L75.4467 72.5838C73.9567 69.726 71.4608 67.5217 68.4409 66.3966C65.421 65.2716 62.0913 65.3057 59.0951 66.4922Z" fill="#6C63FF"/>
<path d="M45.2892 57.2719C51.582 57.2719 56.6833 52.1699 56.6833 45.8763C56.6833 39.5827 51.582 34.4807 45.2892 34.4807C38.9964 34.4807 33.895 39.5827 33.895 45.8763C33.895 52.1699 38.9964 57.2719 45.2892 57.2719Z" fill="#FFB6B6"/>
<path d="M55.1978 41.0573C55.0078 41.1576 54.8204 41.2499 54.6304 41.3423C54.4325 41.4373 54.2346 41.5323 54.0341 41.6221C50.2209 43.3507 47.1149 43.5434 45.2307 41.0573C45.1792 39.7493 44.8848 38.4624 44.3626 37.2621C44.4548 38.6034 44.1014 39.9376 43.3572 41.0573H39.5624C35.6543 43.6516 33.6487 46.0348 36.3615 54.5515C36.5383 55.1111 37.7495 74.9895 38.0952 76.5176C32.1789 74.2479 27.0753 50.1493 26.946 43.7994C26.938 43.6965 26.9381 43.5883 26.9381 43.4827C26.9365 42.974 26.963 42.4657 27.0172 41.9599C27.0869 41.2694 27.2068 40.5849 27.3761 39.9119L27.3603 39.9092C26.7583 39.3337 26.2991 38.6254 26.0192 37.841C25.7392 37.0566 25.6464 36.2176 25.7479 35.3909C26.7404 34.0912 27.9686 32.99 29.3685 32.1447C30.6413 31.5282 31.9681 31.03 33.332 30.6562C33.3664 30.6483 33.3954 30.6403 33.4297 30.6324C33.8466 30.5189 34.2741 30.416 34.7016 30.3263C35.5826 30.1415 36.4733 30.0067 37.3695 29.9225C37.4355 29.9198 37.4988 29.9146 37.5569 29.9146C37.9154 29.9148 38.2672 30.0114 38.5755 30.1943C38.5781 30.1943 38.5781 30.197 38.5834 30.197C38.8797 30.374 39.1253 30.6243 39.2968 30.9238C39.4683 31.2234 39.5598 31.562 39.5624 31.9071H43.7899C43.9456 31.9071 44.1013 31.9124 44.257 31.9203C50.1443 32.1552 54.8759 34.673 55.1793 40.4608C55.1925 40.6614 55.1978 40.8567 55.1978 41.0573Z" fill="#2F2E41"/>
<path d="M30.2038 41.5154C34.3496 41.5154 37.7103 38.1542 37.7103 34.008C37.7103 29.8617 34.3496 26.5005 30.2038 26.5005C26.0581 26.5005 22.6973 29.8617 22.6973 34.008C22.6973 38.1542 26.0581 41.5154 30.2038 41.5154Z" fill="#2F2E41"/>
<path d="M40.5096 30.5355C39.6568 34.5931 35.4494 37.0199 31.4242 36.0272C29.4912 35.5504 27.8268 34.3253 26.797 32.6212C25.7673 30.9172 25.4565 28.8738 25.9332 26.9406C26.9258 22.9149 31.8108 24.0755 35.0186 21.4489C39.5565 17.7333 41.6597 25.0635 40.5096 30.5355Z" fill="#2F2E41"/>
<path d="M23.8314 143.483C30.2291 117.39 42.9055 94.963 63.8993 77.3915C64.7118 76.0548 66.0213 75.0949 67.5405 74.7225C69.0597 74.3502 70.6646 74.5957 72.003 75.4052L121.911 105.669C123.247 106.482 124.207 107.791 124.579 109.311C124.952 110.83 124.706 112.435 123.897 113.774C115.884 140.548 103.882 163.781 83.8288 179.866C83.0164 181.202 81.7069 182.162 80.1877 182.535C78.6684 182.907 77.0636 182.661 75.7251 181.852L25.8175 151.588C24.4809 150.775 23.5211 149.466 23.1488 147.946C22.7765 146.427 23.0219 144.822 23.8314 143.483Z" fill="#CCCCCC"/>
<path opacity="0.2" d="M32.702 152.277C31.3654 151.464 30.4056 150.155 30.0333 148.635C29.661 147.116 29.9065 145.511 30.7159 144.172C37.1136 118.079 49.79 95.652 70.7837 78.0805C71.3216 77.2054 72.081 76.488 72.9851 76.0008L72.003 75.4052C70.6646 74.5957 69.0597 74.3502 67.5405 74.7225C66.0213 75.0949 64.7118 76.0547 63.8993 77.3914C42.9055 94.963 30.2291 117.39 23.8314 143.483C23.022 144.822 22.7765 146.427 23.1488 147.946C23.5211 149.466 24.4809 150.775 25.8175 151.588L75.725 181.852C76.6133 182.386 77.6271 182.677 78.6637 182.693C79.7002 182.709 80.7227 182.451 81.6274 181.945L32.702 152.277Z" fill="#121213"/>
<path d="M91.231 137.699L57.7307 117.511C57.1985 117.189 56.8156 116.67 56.6663 116.066C56.517 115.462 56.6134 114.824 56.9343 114.291C57.2553 113.758 57.7745 113.375 58.378 113.225C58.9814 113.075 59.6198 113.17 60.1529 113.49L93.6532 133.678C94.1841 134 94.5656 134.52 94.7142 135.123C94.8627 135.726 94.7661 136.364 94.4456 136.896C94.1251 137.428 93.6067 137.811 93.0042 137.962C92.4016 138.112 91.764 138.018 91.231 137.699Z" fill="#E6E6E6"/>
<path d="M71.7424 110.928L64.3724 106.487C63.8383 106.167 63.453 105.648 63.3013 105.045C63.1495 104.441 63.2438 103.802 63.5633 103.268C63.8829 102.733 64.4015 102.348 65.0051 102.196C65.6087 102.045 66.2479 102.139 66.782 102.458L66.7946 102.466L74.1647 106.907C74.6958 107.23 75.0774 107.749 75.2261 108.352C75.3747 108.956 75.2782 109.593 74.9576 110.125C74.637 110.657 74.1185 111.041 73.5159 111.191C72.9132 111.342 72.2754 111.247 71.7424 110.928Z" fill="#E6E6E6"/>
<path d="M85.9064 146.536L52.4061 126.349C51.8732 126.028 51.4896 125.508 51.3394 124.905C51.1893 124.301 51.2849 123.663 51.6053 123.129C51.9256 122.596 52.4445 122.212 53.048 122.061C53.6514 121.91 54.2901 122.005 54.8235 122.325L54.8283 122.328L88.3285 142.516C88.8595 142.838 89.241 143.358 89.3896 143.961C89.5381 144.564 89.4415 145.201 89.121 145.734C88.8005 146.266 88.2821 146.649 87.6795 146.799C87.077 146.95 86.4394 146.855 85.9064 146.536Z" fill="#E6E6E6"/>
<path d="M95.4849 99.6342C100.889 99.6342 105.27 95.2529 105.27 89.8482C105.27 84.4436 100.889 80.0623 95.4849 80.0623C90.081 80.0623 85.7002 84.4436 85.7002 89.8482C85.7002 95.2529 90.081 99.6342 95.4849 99.6342Z" fill="#3F3D56"/>
<path d="M78.6185 194.708C90.1687 194.708 99.532 185.344 99.532 173.792C99.532 162.24 90.1687 152.876 78.6185 152.876C67.0683 152.876 57.7051 162.24 57.7051 173.792C57.7051 185.344 67.0683 194.708 78.6185 194.708Z" fill="#E6E6E6"/>
<path d="M78.6188 195C74.4248 195 70.325 193.756 66.8378 191.426C63.3506 189.095 60.6327 185.783 59.0277 181.908C57.4228 178.033 57.0028 173.769 57.821 169.655C58.6392 165.541 60.6588 161.762 63.6244 158.796C66.59 155.83 70.3684 153.81 74.4818 152.992C78.5951 152.173 82.8588 152.593 86.7335 154.199C90.6083 155.804 93.9201 158.522 96.2502 162.01C98.5802 165.497 99.8239 169.597 99.824 173.792C99.8176 179.415 97.5815 184.805 93.6061 188.781C89.6307 192.757 84.2408 194.994 78.6188 195ZM78.6188 153.168C74.5402 153.168 70.5532 154.377 67.162 156.644C63.7707 158.91 61.1276 162.131 59.5668 165.9C58.006 169.668 57.5976 173.815 58.3933 177.816C59.189 181.816 61.1531 185.491 64.0371 188.376C66.9211 191.26 70.5955 193.224 74.5958 194.02C78.596 194.816 82.7423 194.407 86.5104 192.846C90.2786 191.285 93.4992 188.642 95.7652 185.25C98.0311 181.859 99.2405 177.871 99.2405 173.792C99.2343 168.324 97.0597 163.082 93.1937 159.215C89.3277 155.349 84.0861 153.174 78.6188 153.168Z" fill="#3F3D56"/>
<path d="M75.7657 184.678C75.4046 184.678 75.0484 184.594 74.7254 184.432C74.4024 184.271 74.1215 184.036 73.9048 183.747L68.1993 176.139C68.0157 175.894 67.8821 175.616 67.8061 175.32C67.73 175.024 67.7131 174.716 67.7562 174.413C67.7993 174.111 67.9016 173.819 68.0573 173.556C68.2129 173.293 68.4189 173.063 68.6635 172.88C68.908 172.697 69.1863 172.563 69.4824 172.487C69.7785 172.412 70.0867 172.395 70.3892 172.438C70.6918 172.482 70.9829 172.584 71.2458 172.74C71.5087 172.896 71.7383 173.102 71.9215 173.347L75.6542 178.324L85.2413 163.942C85.4107 163.688 85.6286 163.469 85.8824 163.299C86.1363 163.129 86.4211 163.011 86.7207 162.951C87.0202 162.891 87.3287 162.891 87.6284 162.95C87.9281 163.01 88.2132 163.127 88.4674 163.297C88.7216 163.466 88.9399 163.684 89.1099 163.938C89.2799 164.192 89.3982 164.477 89.4581 164.776C89.518 165.076 89.5184 165.384 89.4591 165.684C89.3998 165.984 89.282 166.269 89.1126 166.523L77.7016 183.642C77.4951 183.952 77.2175 184.207 76.8919 184.387C76.5664 184.567 76.2024 184.667 75.8305 184.677C75.8089 184.678 75.7873 184.678 75.7657 184.678Z" fill="#6C63FF"/>
<path d="M146.159 67.7991C146.99 67.7281 147.624 67.2017 147.574 66.6235C147.525 66.0453 146.811 65.6342 145.98 65.7053C145.149 65.7764 144.515 66.3027 144.565 66.8809C144.614 67.4591 145.328 67.8702 146.159 67.7991Z" fill="#E6E6E6"/>
<path d="M155.509 64.6268C156.34 64.5557 156.974 64.0294 156.925 63.4512C156.875 62.873 156.161 62.4619 155.33 62.5329C154.499 62.604 153.866 63.1303 153.915 63.7085C153.965 64.2867 154.678 64.6978 155.509 64.6268Z" fill="#3F3D56"/>
<path d="M141.727 60.6644C142.558 60.5933 143.191 60.067 143.142 59.4888C143.093 58.9106 142.379 58.4995 141.548 58.5705C140.717 58.6416 140.083 59.1679 140.132 59.7461C140.182 60.3243 140.896 60.7354 141.727 60.6644Z" fill="#FF6584"/>
<path d="M137.805 58.3655C138.162 58.2847 138.358 57.8023 138.242 57.2881C138.126 56.7738 137.742 56.4225 137.384 56.5033C137.026 56.5841 136.831 57.0665 136.947 57.5808C137.063 58.095 137.447 58.4464 137.805 58.3655Z" fill="#E6E6E6"/>
<path d="M135.012 52.7842C135.37 52.7034 135.566 52.221 135.45 51.7068C135.333 51.1925 134.949 50.8412 134.591 50.922C134.234 51.0028 134.038 51.4852 134.154 51.9995C134.27 52.5137 134.655 52.8651 135.012 52.7842Z" fill="#3F3D56"/>
<path d="M148.41 60.6221C148.768 60.5413 148.964 60.0589 148.847 59.5446C148.731 59.0304 148.347 58.6791 147.989 58.7599C147.632 58.8407 147.436 59.3231 147.552 59.8374C147.668 60.3516 148.052 60.7029 148.41 60.6221Z" fill="#E6E6E6"/>
<path d="M144.326 64.013C144.683 63.9321 144.879 63.4498 144.763 62.9355C144.647 62.4213 144.263 62.0699 143.905 62.1508C143.547 62.2316 143.352 62.714 143.468 63.2282C143.584 63.7425 143.968 64.0938 144.326 64.013Z" fill="#FF6584"/>
<path d="M151.761 66.7749C152.118 66.6941 152.314 66.2117 152.198 65.6975C152.082 65.1832 151.698 64.8319 151.34 64.9127C150.982 64.9936 150.787 65.476 150.903 65.9902C151.019 66.5044 151.403 66.8558 151.761 66.7749Z" fill="#3F3D56"/>
<path d="M107.554 24.5656C107.697 24.0031 107.157 23.3809 106.348 23.176C105.54 22.9711 104.769 23.261 104.626 23.8235C104.484 24.386 105.024 25.0082 105.832 25.2131C106.641 25.418 107.412 25.1281 107.554 24.5656Z" fill="#E6E6E6"/>
<path d="M97.6806 24.5019C97.8232 23.9393 97.2833 23.3172 96.4748 23.1123C95.6662 22.9074 94.8953 23.1973 94.7527 23.7598C94.6102 24.3223 95.1501 24.9444 95.9586 25.1494C96.7671 25.3543 97.5381 25.0644 97.6806 24.5019Z" fill="#3F3D56"/>
<path d="M109.407 32.7582C109.55 32.1957 109.01 31.5736 108.201 31.3687C107.393 31.1637 106.622 31.4536 106.479 32.0161C106.337 32.5787 106.877 33.2008 107.685 33.4057C108.494 33.6106 109.265 33.3207 109.407 32.7582Z" fill="#FF6584"/>
<path d="M111.708 35.8475C111.767 35.3235 111.519 34.8658 111.155 34.8251C110.79 34.7843 110.447 35.1761 110.389 35.7C110.33 36.2239 110.578 36.6817 110.943 36.7224C111.307 36.7631 111.65 36.3714 111.708 35.8475Z" fill="#E6E6E6"/>
<path d="M112.52 42.0355C112.579 41.5115 112.331 41.0538 111.967 41.0131C111.602 40.9723 111.259 41.3641 111.201 41.888C111.142 42.4119 111.39 42.8697 111.755 42.9104C112.119 42.9511 112.462 42.5594 112.52 42.0355Z" fill="#3F3D56"/>
<path d="M102.426 30.243C102.485 29.7191 102.237 29.2613 101.872 29.2206C101.508 29.1799 101.165 29.5716 101.106 30.0955C101.048 30.6195 101.296 31.0772 101.66 31.1179C102.025 31.1587 102.368 30.7669 102.426 30.243Z" fill="#E6E6E6"/>
<path d="M107.395 28.3761C107.454 27.8521 107.206 27.3944 106.841 27.3536C106.477 27.3129 106.134 27.7046 106.075 28.2286C106.017 28.7525 106.265 29.2103 106.629 29.251C106.994 29.2917 107.336 28.9 107.395 28.3761Z" fill="#FF6584"/>
<path d="M101.274 23.3324C101.332 22.8084 101.084 22.3507 100.72 22.3099C100.356 22.2692 100.013 22.6609 99.9541 23.1849C99.8956 23.7088 100.144 24.1666 100.508 24.2073C100.872 24.248 101.215 23.8563 101.274 23.3324Z" fill="#3F3D56"/>
<path d="M0.811997 76.5177H0.228516V0H45.2894V0.583554C33.4932 0.583554 22.1802 5.27013 13.8391 13.6123C5.49799 21.9544 0.811997 33.2688 0.811997 45.0664V76.5177Z" fill="#CCCCCC"/>
<path d="M26.9434 143.759C26.1977 143.454 25.5273 142.99 24.9785 142.4C24.4297 141.81 24.0156 141.107 23.7649 140.341C23.5143 139.575 23.4329 138.764 23.5266 137.963C23.6203 137.163 23.8867 136.392 24.3074 135.705L8.23096 113.103L13.3884 107.119L32.2864 134.103C33.3907 134.897 34.1652 136.069 34.4633 137.396C34.7614 138.724 34.5622 140.114 33.9036 141.305C33.245 142.495 32.1727 143.402 30.8899 143.855C29.6071 144.307 28.2029 144.273 26.9434 143.759Z" fill="#FFB6B6"/>
<path d="M27.3124 72.1367C26.4991 71.6581 25.5418 71.4851 24.6124 71.6487C23.6831 71.8124 22.8424 72.302 22.2414 73.0296L0.52002 103.412L20.6501 132.006L28.5271 123.545L16.274 104.287L32.5585 88.7807C33.8967 85.8487 34.1011 82.5248 33.1322 79.4508C32.1633 76.3769 30.0899 73.7711 27.3124 72.1367Z" fill="#6C63FF"/>
</g>
<defs>
<clipPath id="clip0_52_365">
<rect width="167.884" height="195" fill="white" transform="translate(0.228516)"/>
</clipPath>
</defs>
</svg>
