<svg width="246" height="76" viewBox="0 0 246 76" fill="none" xmlns="http://www.w3.org/2000/svg">
<path d="M32.8125 74L44.7443 1.27273H56.108L44.1761 74H32.8125ZM0.24858 55.9602L2.13068 44.5966H58.9489L57.0668 55.9602H0.24858ZM7.24432 74L19.1761 1.27273H30.5398L18.608 74H7.24432ZM4.40341 30.6761L6.32102 19.3125H63.1392L61.2216 30.6761H4.40341ZM101.696 1.27273V74H86.3192V15.8679H85.8931L69.2383 26.3082V12.6719L87.2425 1.27273H101.696ZM147.496 75.598C141.388 75.5743 136.133 74.071 131.729 71.0881C127.35 68.1051 123.976 63.7846 121.609 58.1264C119.265 52.4683 118.105 45.6619 118.129 37.7074C118.129 29.7765 119.3 23.0175 121.644 17.4304C124.012 11.8433 127.385 7.59375 131.765 4.68182C136.168 1.74621 141.412 0.278406 147.496 0.278406C153.581 0.278406 158.813 1.74621 163.192 4.68182C167.596 7.61742 170.981 11.8788 173.349 17.4659C175.716 23.0294 176.888 29.7765 176.864 37.7074C176.864 45.6856 175.681 52.5038 173.313 58.1619C170.969 63.8201 167.608 68.1406 163.228 71.1236C158.848 74.1065 153.604 75.598 147.496 75.598ZM147.496 62.8494C151.663 62.8494 154.989 60.7543 157.475 56.5639C159.961 52.3736 161.192 46.0881 161.168 37.7074C161.168 32.1913 160.6 27.5985 159.464 23.929C158.351 20.2595 156.765 17.5014 154.705 15.6548C152.669 13.8082 150.266 12.8849 147.496 12.8849C143.353 12.8849 140.039 14.9564 137.553 19.0994C135.067 23.2424 133.813 29.4451 133.789 37.7074C133.789 43.2945 134.345 47.9583 135.458 51.6989C136.594 55.4157 138.192 58.2093 140.252 60.0795C142.312 61.9261 144.727 62.8494 147.496 62.8494ZM216.344 75.598C210.236 75.5743 204.98 74.071 200.577 71.0881C196.197 68.1051 192.824 63.7846 190.456 58.1264C188.113 52.4683 186.953 45.6619 186.976 37.7074C186.976 29.7765 188.148 23.0175 190.492 17.4304C192.859 11.8433 196.233 7.59375 200.613 4.68182C205.016 1.74621 210.26 0.278406 216.344 0.278406C222.428 0.278406 227.66 1.74621 232.04 4.68182C236.444 7.61742 239.829 11.8788 242.196 17.4659C244.564 23.0294 245.736 29.7765 245.712 37.7074C245.712 45.6856 244.528 52.5038 242.161 58.1619C239.817 63.8201 236.455 68.1406 232.076 71.1236C227.696 74.1065 222.452 75.598 216.344 75.598ZM216.344 62.8494C220.511 62.8494 223.837 60.7543 226.323 56.5639C228.809 52.3736 230.04 46.0881 230.016 37.7074C230.016 32.1913 229.448 27.5985 228.311 23.929C227.199 20.2595 225.613 17.5014 223.553 15.6548C221.517 13.8082 219.114 12.8849 216.344 12.8849C212.201 12.8849 208.887 14.9564 206.401 19.0994C203.915 23.2424 202.66 29.4451 202.637 37.7074C202.637 43.2945 203.193 47.9583 204.306 51.6989C205.442 55.4157 207.04 58.2093 209.1 60.0795C211.159 61.9261 213.574 62.8494 216.344 62.8494Z" fill="#6C63FF"/>
</svg>
